SplineFontDB: 3.2
FontName: ATM047-Regular
FullName: ATM047-Regular
FamilyName: ATM 047
Weight: Book
Copyright: AzhaguThamizh
Version: 1.001
ItalicAngle: -11
UnderlinePosition: -271
UnderlineWidth: 102
Ascent: 1600
Descent: 400
InvalidEm: 0
sfntRevision: 0x00010042
LayerCount: 2
Layer: 0 1 "Back" 1
Layer: 1 1 "Fore" 0
XUID: [1021 192 2086997156 17674]
StyleMap: 0x0040
FSType: 8
OS2Version: 3
OS2_WeightWidthSlopeOnly: 0
OS2_UseTypoMetrics: 0
CreationTime: 1536233612
ModificationTime: 1546053211
PfmFamily: 17
TTFWeight: 400
TTFWidth: 5
LineGap: 0
VLineGap: 0
Panose: 2 11 6 4 2 2 2 2 2 4
OS2TypoAscent: 2000
OS2TypoAOffset: 0
OS2TypoDescent: -1320
OS2TypoDOffset: 0
OS2TypoLinegap: 0
OS2WinAscent: 2000
OS2WinAOffset: 0
OS2WinDescent: 744
OS2WinDOffset: 0
HheadAscent: 2000
HheadAOffset: 0
HheadDescent: -1320
HheadDOffset: 0
OS2SubXSize: 1400
OS2SubYSize: 1300
OS2SubXOff: 0
OS2SubYOff: 0
OS2SupXSize: 1400
OS2SupYSize: 1300
OS2SupXOff: 0
OS2SupYOff: 0
OS2StrikeYSize: 100
OS2StrikeYPos: 518
OS2CapHeight: 1586
OS2XHeight: -200
OS2Vendor: '    '
OS2CodePages: 00000001.00000000
OS2UnicodeRanges: 00100003.00000000.00000000.00000000
Lookup: 4 0 0 "'akhn' Akhand in Tamil2 lookup 0" { "'akhn' Akhand in Tamil2 lookup 0 subtable"  } ['akhn' ('tml2' <'dflt' > ) ]
Lookup: 4 0 0 "'akhn' Akhand in Tamil lookup 1" { "'akhn' Akhand in Tamil lookup 1 subtable"  } ['akhn' ('taml' <'dflt' > ) ]
Lookup: 4 0 0 "'half' Half Forms in Tamil lookup 2" { "'half' Half Forms in Tamil lookup 2 subtable"  } ['half' ('taml' <'dflt' > ) ]
Lookup: 4 0 0 "'haln' Halant Forms in Tamil2 lookup 3" { "'haln' Halant Forms in Tamil2 lookup 3 subtable"  } ['haln' ('tml2' <'dflt' > ) ]
Lookup: 4 0 0 "'haln' Halant Forms in Tamil lookup 4" { "'haln' Halant Forms in Tamil lookup 4 subtable"  } ['haln' ('taml' <'dflt' > ) ]
Lookup: 4 0 0 "'abvs' Above Base Substitutions lookup 5" { "'abvs' Above Base Substitutions lookup 5 subtable"  } ['abvs' ('taml' <'dflt' > 'tml2' <'dflt' > ) ]

StartChar: .notdef
Encoding: 65536 -1 0
Width: 1600
Flags: W
LayerCount: 2
Fore
SplineSet
100 0 m 1,0,-1
 100 1600 l 1,1,-1
 1500 1600 l 1,2,-1
 1500 0 l 1,3,-1
 100 0 l 1,0,-1
1400 100 m 1,4,-1
 1400 1500 l 1,5,-1
 200 1500 l 1,6,-1
 200 100 l 1,7,-1
 1400 100 l 1,4,-1
EndSplineSet
EndChar

StartChar: exclam
Encoding: 33 33 4
Width: 300
GlyphClass: 2
Flags: W
LayerCount: 2
Fore
SplineSet
180 266 m 1,0,-1
 70 266 l 1,1,-1
 50 590 l 1,2,-1
 50 1170 l 1,3,-1
 202 1170 l 1,4,-1
 202 590 l 1,5,-1
 180 266 l 1,0,-1
202 0 m 1,6,-1
 50 0 l 1,7,-1
 50 166 l 1,8,-1
 202 166 l 1,9,-1
 202 0 l 1,6,-1
EndSplineSet
EndChar

StartChar: quotedbl
Encoding: 34 34 5
Width: 410
GlyphClass: 2
Flags: W
LayerCount: 2
Fore
SplineSet
152 904 m 1,0,-1
 32 904 l 1,1,-1
 32 1272 l 1,2,-1
 152 1272 l 1,3,-1
 152 904 l 1,0,-1
312 904 m 1,4,-1
 192 904 l 1,5,-1
 192 1272 l 1,6,-1
 312 1272 l 1,7,-1
 312 904 l 1,4,-1
EndSplineSet
EndChar

StartChar: numbersign
Encoding: 35 35 6
Width: 1120
GlyphClass: 2
Flags: W
LayerCount: 2
Fore
SplineSet
1016 402 m 1,0,-1
 700 402 l 1,1,-1
 700 -34 l 1,2,-1
 568 -34 l 1,3,-1
 568 402 l 1,4,-1
 474 402 l 1,5,-1
 474 -34 l 1,6,-1
 342 -34 l 1,7,-1
 342 402 l 1,8,-1
 48 402 l 1,9,-1
 48 534 l 1,10,-1
 342 534 l 1,11,-1
 342 668 l 1,12,-1
 48 668 l 1,13,-1
 48 800 l 1,14,-1
 342 800 l 1,15,-1
 342 1174 l 1,16,-1
 474 1174 l 1,17,-1
 474 800 l 1,18,-1
 568 800 l 1,19,-1
 568 1174 l 1,20,-1
 700 1174 l 1,21,-1
 700 800 l 1,22,-1
 1016 800 l 1,23,-1
 1016 668 l 1,24,-1
 700 668 l 1,25,-1
 700 534 l 1,26,-1
 1016 534 l 1,27,-1
 1016 402 l 1,0,-1
568 534 m 1,28,-1
 568 668 l 1,29,-1
 474 668 l 1,30,-1
 474 534 l 1,31,-1
 568 534 l 1,28,-1
EndSplineSet
EndChar

StartChar: dollar
Encoding: 36 36 7
Width: 810
GlyphClass: 2
Flags: W
LayerCount: 2
Fore
SplineSet
688 342 m 0,0,1
 688 240 688 240 630 172 c 0,2,3
 584 120 584 120 512 92 c 1,4,-1
 512 -20 l 1,5,-1
 392 -20 l 1,6,-1
 392 72 l 1,7,-1
 352 72 l 1,8,-1
 352 -20 l 1,9,-1
 232 -20 l 1,10,-1
 232 88 l 1,11,12
 190 106 190 106 178 112 c 0,13,14
 150 128 150 128 124 154 c 0,15,16
 74 204 74 204 55 266 c 128,-1,17
 36 328 36 328 36 372 c 0,18,19
 36 382 36 382 36 388 c 128,-1,20
 36 394 36 394 38 396 c 2,21,-1
 172 396 l 1,22,23
 170 360 170 360 174 320 c 128,-1,24
 178 280 178 280 210 248 c 1,25,-1
 232 230 l 1,26,-1
 232 520 l 1,27,28
 156 548 156 548 110 598 c 0,29,30
 48 666 48 666 48 766 c 0,31,32
 48 852 48 852 84 908 c 0,33,34
 130 980 130 980 232 1008 c 1,35,-1
 232 1128 l 1,36,-1
 352 1128 l 1,37,-1
 352 1026 l 1,38,-1
 392 1024 l 1,39,-1
 392 1128 l 1,40,-1
 512 1128 l 1,41,-1
 512 994 l 1,42,43
 592 962 592 962 612 932 c 0,44,45
 656 866 656 866 672 780 c 0,46,47
 676 752 676 752 680 706 c 1,48,-1
 552 706 l 1,49,50
 554 722 554 722 554 734 c 0,51,52
 554 764 554 764 549 789 c 128,-1,53
 544 814 544 814 526 840 c 2,54,-1
 512 856 l 1,55,-1
 512 592 l 1,56,57
 586 566 586 566 630 516 c 0,58,59
 688 448 688 448 688 342 c 0,0,1
392 616 m 1,60,-1
 392 904 l 1,61,-1
 352 906 l 1,62,-1
 352 624 l 1,63,-1
 392 616 l 1,60,-1
232 658 m 1,64,-1
 232 876 l 1,65,66
 206 858 206 858 190 830 c 128,-1,67
 174 802 174 802 174 760 c 0,68,69
 174 724 174 724 190 699 c 128,-1,70
 206 674 206 674 232 658 c 1,64,-1
560 344 m 256,71,72
 560 382 560 382 547 407 c 128,-1,73
 534 432 534 432 512 452 c 1,74,-1
 512 234 l 1,75,76
 534 254 534 254 547 280 c 128,-1,77
 560 306 560 306 560 344 c 256,71,72
392 196 m 1,78,-1
 392 490 l 1,79,-1
 352 496 l 1,80,-1
 352 196 l 1,81,-1
 392 196 l 1,78,-1
EndSplineSet
EndChar

StartChar: percent
Encoding: 37 37 8
Width: 1560
GlyphClass: 2
Flags: W
LayerCount: 2
Fore
SplineSet
1438 310 m 0,0,1
 1438 184 1438 184 1348 98 c 128,-1,2
 1258 12 1258 12 1132 12 c 0,3,4
 1000 12 1000 12 909 99 c 128,-1,5
 818 186 818 186 818 314 c 256,6,7
 818 442 818 442 909 531 c 128,-1,8
 1000 620 1000 620 1132 620 c 0,9,10
 1262 620 1262 620 1350 530 c 128,-1,11
 1438 440 1438 440 1438 310 c 0,0,1
1154 1168 m 1,12,-1
 492 -2 l 1,13,-1
 324 0 l 1,14,-1
 984 1168 l 1,15,-1
 1154 1168 l 1,12,-1
668 848 m 0,16,17
 668 724 668 724 576 636 c 128,-1,18
 484 548 484 548 362 548 c 0,19,20
 230 548 230 548 139 635 c 128,-1,21
 48 722 48 722 48 850 c 256,22,23
 48 978 48 978 138 1070 c 128,-1,24
 228 1162 228 1162 362 1162 c 0,25,26
 490 1162 490 1162 579 1071 c 128,-1,27
 668 980 668 980 668 848 c 0,16,17
1292 308 m 0,28,29
 1292 380 1292 380 1244 434 c 128,-1,30
 1196 488 1196 488 1130 488 c 0,31,32
 1058 488 1058 488 1012 438 c 128,-1,33
 966 388 966 388 966 314 c 0,34,35
 966 242 966 242 1012 196 c 128,-1,36
 1058 150 1058 150 1128 150 c 0,37,38
 1194 150 1194 150 1243 197 c 128,-1,39
 1292 244 1292 244 1292 308 c 0,28,29
520 846 m 0,40,41
 520 918 520 918 472 972 c 128,-1,42
 424 1026 424 1026 360 1026 c 0,43,44
 290 1026 290 1026 243 975 c 128,-1,45
 196 924 196 924 196 850 c 0,46,47
 196 780 196 780 242 734 c 128,-1,48
 288 688 288 688 358 688 c 0,49,50
 424 688 424 688 472 734 c 128,-1,51
 520 780 520 780 520 846 c 0,40,41
EndSplineSet
EndChar

StartChar: ampersand
Encoding: 38 38 9
Width: 1128
GlyphClass: 2
Flags: W
LayerCount: 2
Fore
SplineSet
1070 22 m 1,0,-1
 856 24 l 1,1,-1
 764 140 l 1,2,3
 702 78 702 78 605 39 c 128,-1,4
 508 0 508 0 420 0 c 0,5,6
 266 0 266 0 154 90 c 0,7,8
 34 188 34 188 34 340 c 0,9,10
 34 454 34 454 140 572 c 0,11,12
 188 626 188 626 276 692 c 1,13,14
 232 736 232 736 210 766 c 0,15,16
 142 858 142 858 142 932 c 0,17,18
 142 1034 142 1034 228 1106 c 128,-1,19
 314 1178 314 1178 432 1178 c 0,20,21
 568 1178 568 1178 647 1107 c 128,-1,22
 726 1036 726 1036 726 916 c 0,23,24
 726 836 726 836 632 748 c 0,25,26
 592 710 592 710 508 656 c 1,27,-1
 752 372 l 1,28,29
 764 406 764 406 766 410 c 0,30,31
 776 442 776 442 784 482 c 128,-1,32
 792 522 792 522 796 564 c 128,-1,33
 800 606 800 606 802 642 c 1,34,-1
 956 642 l 1,35,36
 952 588 952 588 950 558 c 0,37,38
 940 470 940 470 926 415 c 128,-1,39
 912 360 912 360 900 324 c 0,40,41
 882 276 882 276 868 254 c 1,42,-1
 1070 22 l 1,0,-1
574 928 m 0,43,44
 574 976 574 976 533 1007 c 128,-1,45
 492 1038 492 1038 434 1038 c 0,46,47
 388 1038 388 1038 344 1011 c 128,-1,48
 300 984 300 984 300 938 c 0,49,50
 300 886 300 886 354 818 c 0,51,52
 372 796 372 796 408 762 c 1,53,54
 464 788 464 788 502 818 c 0,55,56
 574 874 574 874 574 928 c 0,43,44
654 254 m 1,57,-1
 376 580 l 1,58,59
 314 538 314 538 272 494 c 0,60,61
 190 410 190 410 190 338 c 0,62,63
 190 258 190 258 257 203 c 128,-1,64
 324 148 324 148 418 148 c 0,65,66
 480 148 480 148 544 176 c 128,-1,67
 608 204 608 204 654 254 c 1,57,-1
EndSplineSet
EndChar

StartChar: quotesingle
Encoding: 39 39 10
Width: 250
GlyphClass: 2
Flags: W
LayerCount: 2
Fore
SplineSet
172 904 m 1,0,-1
 52 904 l 1,1,-1
 52 1272 l 1,2,-1
 172 1272 l 1,3,-1
 172 904 l 1,0,-1
EndSplineSet
EndChar

StartChar: parenleft
Encoding: 40 40 11
Width: 470
GlyphClass: 2
Flags: W
LayerCount: 2
Fore
SplineSet
378 1134 m 1,0,1
 320 1052 320 1052 292 990 c 0,2,3
 204 798 204 798 204 582 c 0,4,5
 204 352 204 352 288 178 c 0,6,7
 316 120 316 120 374 48 c 1,8,-1
 266 -10 l 1,9,10
 192 92 192 92 156 162 c 0,11,12
 46 376 46 376 46 578 c 0,13,14
 46 732 46 732 106 890 c 0,15,16
 148 1002 148 1002 220 1114 c 0,17,18
 274 1200 274 1200 282 1200 c 1,19,-1
 378 1134 l 1,0,1
EndSplineSet
EndChar

StartChar: parenright
Encoding: 41 41 12
Width: 420
GlyphClass: 2
Flags: W
LayerCount: 2
Fore
SplineSet
346 578 m 0,0,1
 346 376 346 376 240 164 c 0,2,3
 206 94 206 94 132 -10 c 1,4,-1
 22 48 l 1,5,6
 78 120 78 120 106 178 c 0,7,8
 190 354 190 354 190 582 c 0,9,10
 190 802 190 802 106 990 c 0,11,12
 78 1052 78 1052 20 1134 c 1,13,-1
 112 1200 l 2,14,15
 118 1200 118 1200 172 1114 c 0,16,17
 240 1008 240 1008 284 890 c 0,18,19
 346 726 346 726 346 578 c 0,0,1
EndSplineSet
EndChar

StartChar: asterisk
Encoding: 42 42 13
Width: 662
GlyphClass: 2
Flags: W
LayerCount: 2
Fore
SplineSet
566 864 m 1,0,-1
 408 818 l 1,1,-1
 528 714 l 1,2,-1
 416 626 l 1,3,-1
 312 748 l 1,4,-1
 216 622 l 1,5,-1
 96 708 l 1,6,-1
 216 818 l 1,7,-1
 54 870 l 1,8,-1
 106 1008 l 1,9,-1
 240 942 l 1,10,-1
 240 1110 l 1,11,-1
 382 1110 l 1,12,-1
 382 940 l 1,13,-1
 520 998 l 1,14,-1
 566 864 l 1,0,-1
EndSplineSet
EndChar

StartChar: plus
Encoding: 43 43 14
Width: 790
GlyphClass: 2
Flags: W
LayerCount: 2
Fore
SplineSet
678 468 m 1,0,-1
 440 468 l 1,1,-1
 440 224 l 1,2,-1
 284 224 l 1,3,-1
 284 468 l 1,4,-1
 36 468 l 1,5,-1
 36 620 l 1,6,-1
 284 620 l 1,7,-1
 284 868 l 1,8,-1
 440 868 l 1,9,-1
 440 620 l 1,10,-1
 678 620 l 1,11,-1
 678 468 l 1,0,-1
EndSplineSet
EndChar

StartChar: comma
Encoding: 44 44 15
Width: 330
GlyphClass: 2
Flags: W
LayerCount: 2
Fore
SplineSet
216 14 m 2,0,1
 214 -10 214 -10 212 -26 c 0,2,3
 204 -76 204 -76 185 -115 c 128,-1,4
 166 -154 166 -154 136 -198 c 0,5,6
 130 -206 130 -206 120 -218 c 1,7,-1
 52 -172 l 1,8,9
 66 -150 66 -150 74 -138 c 0,10,11
 100 -98 100 -98 108 -71 c 128,-1,12
 116 -44 116 -44 117 -27 c 128,-1,13
 118 -10 118 -10 118 0 c 1,14,-1
 36 0 l 1,15,-1
 36 178 l 1,16,-1
 216 178 l 1,17,-1
 216 14 l 2,0,1
EndSplineSet
EndChar

StartChar: hyphen
Encoding: 45 45 16
Width: 776
GlyphClass: 2
Flags: W
LayerCount: 2
Fore
SplineSet
704 612 m 1,0,-1
 52 612 l 1,1,-1
 52 764 l 1,2,-1
 704 764 l 1,3,-1
 704 612 l 1,0,-1
EndSplineSet
EndChar

StartChar: period
Encoding: 46 46 17
Width: 350
GlyphClass: 2
Flags: W
LayerCount: 2
Fore
SplineSet
208 0 m 1,0,-1
 26 0 l 1,1,-1
 26 178 l 1,2,-1
 208 178 l 1,3,-1
 208 0 l 1,0,-1
EndSplineSet
EndChar

StartChar: slash
Encoding: 47 47 18
Width: 548
GlyphClass: 2
Flags: W
LayerCount: 2
Fore
SplineSet
520 1170 m 1,0,-1
 180 0 l 1,1,-1
 22 0 l 1,2,-1
 368 1170 l 1,3,-1
 520 1170 l 1,0,-1
EndSplineSet
EndChar

StartChar: zero
Encoding: 48 48 19
Width: 763
GlyphClass: 2
Flags: W
LayerCount: 2
Fore
SplineSet
673 503 m 0,0,1
 673 286 673 286 602 154 c 0,2,3
 518 -4 518 -4 349 -4 c 0,4,5
 192 -4 192 -4 103 161 c 0,6,7
 26 301 26 301 26 492 c 0,8,9
 26 694 26 694 103 837 c 0,10,11
 194 1002 194 1002 358 1002 c 0,12,13
 513 1002 513 1002 597 850 c 0,14,15
 673 712 673 712 673 503 c 0,0,1
539 507 m 0,16,17
 539 718 539 718 485 807 c 0,18,19
 442 882 442 882 358 882 c 0,20,21
 245 882 245 882 194 752 c 0,22,23
 154 654 154 654 154 494 c 0,24,25
 154 345 154 345 196 245 c 0,26,27
 247 120 247 120 351 120 c 0,28,29
 458 120 458 120 504 248 c 0,30,31
 539 345 539 345 539 507 c 0,16,17
EndSplineSet
EndChar

StartChar: one
Encoding: 49 49 20
Width: 505
GlyphClass: 2
Flags: W
LayerCount: 2
Fore
SplineSet
392 0 m 1,0,-1
 261 0 l 1,1,-1
 261 777 l 1,2,3
 245 765 245 765 221 750 c 128,-1,4
 197 735 197 735 190 733 c 0,5,6
 151 722 151 722 118 716.5 c 128,-1,7
 85 711 85 711 66 711 c 2,8,-1
 42 711 l 1,9,-1
 42 839 l 1,10,-1
 65 839 l 1,11,12
 93 844 93 844 108 845 c 0,13,14
 154 856 154 856 173 867 c 0,15,16
 254 928 254 928 264 984 c 1,17,-1
 269 1002 l 1,18,-1
 392 1002 l 1,19,-1
 392 0 l 1,0,-1
EndSplineSet
EndChar

StartChar: two
Encoding: 50 50 21
Width: 806
GlyphClass: 2
Flags: W
LayerCount: 2
Fore
SplineSet
682 0 m 1,0,-1
 40 0 l 1,1,-1
 40 36 l 1,2,3
 55 175 55 175 99 250 c 0,4,5
 171 371 171 371 322 458 c 0,6,7
 451 533 451 533 465 545 c 0,8,9
 533 605 533 605 533 709 c 0,10,11
 533 784 533 784 473 835 c 0,12,13
 420 880 420 880 358 880 c 0,14,15
 295 880 295 880 242 840 c 0,16,17
 173 788 173 788 173 699 c 0,18,19
 173 676 173 676 182.5 647.5 c 128,-1,20
 192 619 192 619 202 607 c 2,21,-1
 218 588 l 1,22,-1
 108 524 l 1,23,-1
 93 545 l 2,24,25
 76 569 76 569 61 613.5 c 128,-1,26
 46 658 46 658 46 703 c 0,27,28
 46 859 46 859 162 941 c 0,29,30
 250 1002 250 1002 356 1002 c 0,31,32
 478 1002 478 1002 566 929 c 0,33,34
 663 847 663 847 663 705 c 0,35,36
 663 552 663 552 573 465 c 0,37,38
 549 441 549 441 441 381 c 0,39,40
 311 307 311 307 247 235 c 0,41,42
 204 185 204 185 189 132 c 1,43,-1
 682 132 l 1,44,-1
 682 0 l 1,0,-1
EndSplineSet
EndChar

StartChar: three
Encoding: 51 51 22
Width: 814
GlyphClass: 2
Flags: W
LayerCount: 2
Fore
SplineSet
712 322 m 0,0,1
 712 173 712 173 602 82 c 0,2,3
 503 0 503 0 366 0 c 0,4,5
 228 0 228 0 132 94.5 c 128,-1,6
 36 189 36 189 36 322 c 2,7,-1
 36 351 l 1,8,-1
 180 351 l 1,9,-1
 180 322 l 2,10,11
 180 238 180 238 230.5 182.5 c 128,-1,12
 281 127 281 127 371 127 c 0,13,14
 456 127 456 127 512 187.5 c 128,-1,15
 568 248 568 248 568 330 c 0,16,17
 568 394 568 394 524 442 c 128,-1,18
 480 490 480 490 408 503 c 1,19,-1
 261 503 l 1,20,-1
 261 597 l 1,21,-1
 466 871 l 1,22,-1
 36 871 l 1,23,-1
 36 1002 l 1,24,-1
 605 1002 l 1,25,-1
 663 931 l 1,26,-1
 449 625 l 1,27,28
 569 605 569 605 640.5 525.5 c 128,-1,29
 712 446 712 446 712 322 c 0,0,1
EndSplineSet
EndChar

StartChar: four
Encoding: 52 52 23
Width: 823
GlyphClass: 2
Flags: W
LayerCount: 2
Fore
SplineSet
709 219 m 1,0,-1
 568 219 l 1,1,-1
 568 0 l 1,2,-1
 436 0 l 1,3,-1
 436 219 l 1,4,-1
 34 219 l 1,5,-1
 34 305 l 1,6,-1
 447 1001 l 1,7,-1
 568 1001 l 1,8,-1
 568 352 l 1,9,-1
 709 352 l 1,10,-1
 709 219 l 1,0,-1
436 352 m 1,11,-1
 436 726 l 1,12,-1
 213 352 l 1,13,-1
 436 352 l 1,11,-1
EndSplineSet
EndChar

StartChar: five
Encoding: 53 53 24
Width: 780
GlyphClass: 2
Flags: W
LayerCount: 2
Fore
SplineSet
690 335 m 0,0,1
 690 196 690 196 588.5 96 c 128,-1,2
 487 -4 487 -4 339 -4 c 0,3,4
 237 -4 237 -4 156.5 54.5 c 128,-1,5
 76 113 76 113 38 209 c 2,6,-1
 28 233 l 1,7,-1
 149 284 l 1,8,-1
 158 256 l 2,9,10
 177 199 177 199 226.5 159.5 c 128,-1,11
 276 120 276 120 339 120 c 0,12,13
 427 120 427 120 492 183.5 c 128,-1,14
 557 247 557 247 557 337 c 0,15,16
 557 432 557 432 501.5 500 c 128,-1,17
 446 568 446 568 354 568 c 0,18,19
 299 568 299 568 249.5 536.5 c 128,-1,20
 200 505 200 505 175 458 c 2,21,-1
 164 439 l 1,22,-1
 53 490 l 1,23,-1
 137 1002 l 1,24,-1
 636 1002 l 1,25,-1
 636 871 l 1,26,-1
 248 871 l 1,27,-1
 214 658 l 1,28,29
 245 674 245 674 280.5 683.5 c 128,-1,30
 316 693 316 693 360 693 c 0,31,32
 501 693 501 693 595.5 588.5 c 128,-1,33
 690 484 690 484 690 335 c 0,0,1
EndSplineSet
EndChar

StartChar: six
Encoding: 54 54 25
Width: 763
GlyphClass: 2
Flags: W
LayerCount: 2
Fore
SplineSet
671 335 m 0,0,1
 671 189 671 189 595 98 c 0,2,3
 513 -2 513 -2 364 -2 c 0,4,5
 199 -2 199 -2 108 173 c 0,6,7
 30 320 30 320 30 524 c 0,8,9
 30 711 30 711 117 847 c 0,10,11
 214 1002 214 1002 375 1002 c 0,12,13
 475 1002 475 1002 545 941 c 0,14,15
 604 890 604 890 640 797 c 1,16,-1
 650 775 l 1,17,-1
 539 712 l 1,18,-1
 528 737 l 2,19,20
 487 831 487 831 453.5 855.5 c 128,-1,21
 420 880 420 880 370 880 c 0,22,23
 298 880 298 880 245 805.5 c 128,-1,24
 192 731 192 731 168 593 c 1,25,26
 194 625 194 625 238 648 c 0,27,28
 299 678 299 678 381 678 c 0,29,30
 511 678 511 678 593 576 c 0,31,32
 671 478 671 478 671 335 c 0,0,1
547 333 m 0,33,34
 547 420 547 420 504 485 c 0,35,36
 456 557 456 557 381 557 c 0,37,38
 313 557 313 557 256.5 509 c 128,-1,39
 200 461 200 461 170 390 c 1,40,41
 183 279 183 279 235.5 199.5 c 128,-1,42
 288 120 288 120 362 120 c 0,43,44
 442 120 442 120 494.5 182.5 c 128,-1,45
 547 245 547 245 547 333 c 0,33,34
EndSplineSet
EndChar

StartChar: seven
Encoding: 55 55 26
Width: 729
GlyphClass: 2
Flags: W
LayerCount: 2
Fore
SplineSet
667 922 m 1,0,-1
 427 366 l 2,1,2
 408 324 408 324 397 284.5 c 128,-1,3
 386 245 386 245 379.5 207.5 c 128,-1,4
 373 170 373 170 371.5 136.5 c 128,-1,5
 370 103 370 103 370 70 c 0,6,7
 370 42 370 42 370 25 c 128,-1,8
 370 8 370 8 371 0 c 1,9,-1
 242 0 l 1,10,11
 240 21 240 21 239 46.5 c 128,-1,12
 238 72 238 72 238 104 c 0,13,14
 238 160 238 160 244 208 c 128,-1,15
 250 256 250 256 260.5 300.5 c 128,-1,16
 271 345 271 345 292 390 c 2,17,-1
 501 871 l 1,18,-1
 49 871 l 1,19,-1
 49 1002 l 1,20,-1
 604 1002 l 1,21,-1
 667 922 l 1,0,-1
EndSplineSet
EndChar

StartChar: eight
Encoding: 56 56 27
Width: 788
GlyphClass: 2
Flags: W
LayerCount: 2
Fore
SplineSet
682 294 m 0,0,1
 682 168 682 168 579 79 c 0,2,3
 484 -4 484 -4 370 -4 c 0,4,5
 235 -4 235 -4 137 70 c 0,6,7
 27 153 27 153 27 288 c 0,8,9
 27 368 27 368 65 432 c 128,-1,10
 103 496 103 496 170 532 c 1,11,12
 144 554 144 554 127 574 c 0,13,14
 68 644 68 644 68 728 c 0,15,16
 68 848 68 848 147 925 c 128,-1,17
 226 1002 226 1002 352 1002 c 0,18,19
 470 1002 470 1002 549 933 c 0,20,21
 635 856 635 856 635 728 c 0,22,23
 635 658 635 658 597 600 c 0,24,25
 576 569 576 569 539 533 c 1,26,27
 585 511 585 511 622 466 c 0,28,29
 682 394 682 394 682 294 c 0,0,1
505 729 m 0,30,31
 505 797 505 797 462.5 840 c 128,-1,32
 420 883 420 883 352 883 c 0,33,34
 282 883 282 883 239 839.5 c 128,-1,35
 196 796 196 796 196 731 c 0,36,37
 196 676 196 676 244 634.5 c 128,-1,38
 292 593 292 593 351 593 c 0,39,40
 415 593 415 593 460 633 c 128,-1,41
 505 673 505 673 505 729 c 0,30,31
549 295 m 0,42,43
 549 370 549 370 490.5 420 c 128,-1,44
 432 470 432 470 351 470 c 0,45,46
 273 470 273 470 217.5 419 c 128,-1,47
 162 368 162 368 162 288 c 0,48,49
 162 214 162 214 220.5 167 c 128,-1,50
 279 120 279 120 360 120 c 0,51,52
 442 120 442 120 495.5 169.5 c 128,-1,53
 549 219 549 219 549 295 c 0,42,43
EndSplineSet
EndChar

StartChar: nine
Encoding: 57 57 28
Width: 746
GlyphClass: 2
Flags: W
LayerCount: 2
Fore
SplineSet
663 480 m 0,0,1
 663 292 663 292 588 160 c 0,2,3
 497 0 497 0 330 0 c 0,4,5
 231 0 231 0 152.5 57.5 c 128,-1,6
 74 115 74 115 32 214 c 1,7,-1
 25 238 l 1,8,-1
 128 294 l 1,9,-1
 139 262 l 2,10,11
 164 197 164 197 214 158.5 c 128,-1,12
 264 120 264 120 332 120 c 0,13,14
 424 120 424 120 480 230 c 0,15,16
 522 311 522 311 535 413 c 1,17,18
 456 339 456 339 337 339 c 0,19,20
 207 339 207 339 125 438 c 128,-1,21
 43 537 43 537 43 671 c 0,22,23
 43 801 43 801 130.5 901.5 c 128,-1,24
 218 1002 218 1002 337 1002 c 0,25,26
 507 1002 507 1002 593 828 c 0,27,28
 663 686 663 686 663 480 c 0,0,1
526 602 m 1,29,30
 526 712 526 712 476.5 797 c 128,-1,31
 427 882 427 882 343 882 c 0,32,33
 264 882 264 882 214 817 c 128,-1,34
 164 752 164 752 164 667 c 0,35,36
 164 581 164 581 213 517.5 c 128,-1,37
 262 454 262 454 337 454 c 0,38,39
 406 454 406 454 456 497 c 0,40,41
 513 545 513 545 526 602 c 1,29,30
EndSplineSet
EndChar

StartChar: colon
Encoding: 58 58 29
Width: 320
GlyphClass: 2
Flags: W
LayerCount: 2
Fore
SplineSet
216 666 m 1,0,-1
 36 666 l 1,1,-1
 36 844 l 1,2,-1
 216 844 l 1,3,-1
 216 666 l 1,0,-1
216 0 m 1,4,-1
 36 0 l 1,5,-1
 36 178 l 1,6,-1
 216 178 l 1,7,-1
 216 0 l 1,4,-1
EndSplineSet
EndChar

StartChar: semicolon
Encoding: 59 59 30
Width: 288
GlyphClass: 2
Flags: W
LayerCount: 2
Fore
SplineSet
208 664 m 1,0,-1
 28 664 l 1,1,-1
 28 844 l 1,2,-1
 208 844 l 1,3,-1
 208 664 l 1,0,-1
206 14 m 2,4,5
 204 -10 204 -10 202 -26 c 0,6,7
 194 -76 194 -76 175 -115 c 128,-1,8
 156 -154 156 -154 126 -198 c 0,9,10
 120 -206 120 -206 110 -218 c 1,11,-1
 42 -172 l 1,12,13
 56 -150 56 -150 64 -138 c 0,14,15
 90 -98 90 -98 99 -68 c 128,-1,16
 108 -38 108 -38 108 -24 c 128,-1,17
 108 -10 108 -10 106 0 c 1,18,-1
 28 0 l 1,19,-1
 28 178 l 1,20,-1
 206 178 l 1,21,-1
 206 14 l 2,4,5
EndSplineSet
EndChar

StartChar: less
Encoding: 60 60 31
Width: 1104
GlyphClass: 2
Flags: W
LayerCount: 2
Fore
SplineSet
992 -20 m 1,0,-1
 42 516 l 1,1,-1
 42 654 l 1,2,-1
 992 1192 l 1,3,-1
 992 1024 l 1,4,-1
 216 582 l 1,5,-1
 992 140 l 1,6,-1
 992 -20 l 1,0,-1
EndSplineSet
EndChar

StartChar: equal
Encoding: 61 61 32
Width: 810
GlyphClass: 2
Flags: W
LayerCount: 2
Fore
SplineSet
724 692 m 1,0,-1
 72 692 l 1,1,-1
 72 844 l 1,2,-1
 724 844 l 1,3,-1
 724 692 l 1,0,-1
724 362 m 1,4,-1
 72 362 l 1,5,-1
 72 516 l 1,6,-1
 724 516 l 1,7,-1
 724 362 l 1,4,-1
EndSplineSet
EndChar

StartChar: greater
Encoding: 62 62 33
Width: 1100
GlyphClass: 2
Flags: W
LayerCount: 2
Fore
SplineSet
994 516 m 1,0,-1
 46 -20 l 1,1,-1
 46 146 l 1,2,-1
 820 582 l 1,3,-1
 46 1024 l 1,4,-1
 46 1190 l 1,5,-1
 994 654 l 1,6,-1
 994 516 l 1,0,-1
EndSplineSet
EndChar

StartChar: question
Encoding: 63 63 34
Width: 900
GlyphClass: 2
Flags: W
LayerCount: 2
Fore
SplineSet
788 804 m 0,0,1
 788 692 788 692 692 590 c 1,2,3
 592 496 592 496 492 404 c 1,4,-1
 492 248 l 1,5,-1
 340 248 l 1,6,-1
 340 392 l 2,7,8
 340 486 340 486 487 597 c 128,-1,9
 634 708 634 708 634 804 c 0,10,11
 634 896 634 896 588 952 c 0,12,13
 528 1024 528 1024 400 1024 c 0,14,15
 282 1024 282 1024 230 930 c 0,16,17
 194 864 194 864 194 770 c 0,18,19
 194 750 194 750 195 738 c 128,-1,20
 196 726 196 726 198 718 c 1,21,-1
 40 718 l 1,22,-1
 38 744 l 2,23,24
 36 756 36 756 36 769 c 128,-1,25
 36 782 36 782 36 790 c 0,26,27
 36 944 36 944 130 1052 c 0,28,29
 234 1170 234 1170 402 1170 c 0,30,31
 572 1170 572 1170 680 1072 c 128,-1,32
 788 974 788 974 788 804 c 0,0,1
492 -20 m 1,33,-1
 340 -20 l 1,34,-1
 340 136 l 1,35,-1
 492 136 l 1,36,-1
 492 -20 l 1,33,-1
EndSplineSet
EndChar

StartChar: at
Encoding: 64 64 35
Width: 1330
GlyphClass: 2
Flags: W
LayerCount: 2
Fore
SplineSet
1206 30 m 1,0,1
 1154 -70 1154 -70 1086 -130 c 0,2,3
 1042 -166 1042 -166 1003 -189 c 128,-1,4
 964 -212 964 -212 906 -232 c 0,5,6
 806 -272 806 -272 658 -272 c 0,7,8
 530 -272 530 -272 413 -236 c 128,-1,9
 296 -200 296 -200 218 -134 c 0,10,11
 178 -102 178 -102 147 -60 c 128,-1,12
 116 -18 116 -18 96 28 c 0,13,14
 44 144 44 144 44 274 c 0,15,16
 44 424 44 424 106 556 c 0,17,18
 144 638 144 638 194 700 c 128,-1,19
 244 762 244 762 314 806 c 0,20,21
 448 894 448 894 646 894 c 0,22,23
 796 894 796 894 919 832 c 128,-1,24
 1042 770 1042 770 1108 648 c 0,25,26
 1166 542 1166 542 1166 418 c 0,27,28
 1166 240 1166 240 1040 102 c 0,29,30
 928 -22 928 -22 794 -22 c 0,31,32
 748 -22 748 -22 718 -7 c 128,-1,33
 688 8 688 8 674 36 c 2,34,-1
 666 52 l 1,35,-1
 606 8 l 1,36,37
 552 -22 552 -22 500 -22 c 0,38,39
 438 -22 438 -22 386 13 c 128,-1,40
 334 48 334 48 301 114 c 128,-1,41
 268 180 268 180 268 262 c 0,42,43
 268 360 268 360 319 457 c 128,-1,44
 370 554 370 554 442 604 c 0,45,46
 478 630 478 630 517 642 c 128,-1,47
 556 654 556 654 592 654 c 0,48,49
 650 654 650 654 700 626 c 0,50,51
 736 602 736 602 760 574 c 1,52,-1
 774 638 l 1,53,-1
 920 638 l 1,54,-1
 830 222 l 1,55,-1
 812 134 l 1,56,-1
 818 120 l 1,57,-1
 832 116 l 1,58,59
 860 116 860 116 902 146 c 0,60,61
 966 192 966 192 1003 269 c 128,-1,62
 1040 346 1040 346 1040 420 c 0,63,64
 1040 508 1040 508 991 591 c 128,-1,65
 942 674 942 674 848 722 c 128,-1,66
 754 770 754 770 640 770 c 0,67,68
 510 770 510 770 400 707 c 128,-1,69
 290 644 290 644 231 529 c 128,-1,70
 172 414 172 414 172 284 c 0,71,72
 172 142 172 142 230 47 c 128,-1,73
 288 -48 288 -48 402 -98 c 0,74,75
 464 -122 464 -122 523 -134 c 128,-1,76
 582 -146 582 -146 656 -146 c 0,77,78
 800 -146 800 -146 901 -97 c 128,-1,79
 1002 -48 1002 -48 1060 30 c 1,80,-1
 1206 30 l 1,0,1
716 380 m 0,81,82
 716 454 716 454 682 491 c 128,-1,83
 648 528 648 528 600 528 c 0,84,85
 572 528 572 528 541 513 c 128,-1,86
 510 498 510 498 482 456 c 0,87,88
 464 430 464 430 454 410 c 128,-1,89
 444 390 444 390 436 358 c 0,90,91
 418 304 418 304 418 254 c 0,92,93
 418 184 418 184 449 145 c 128,-1,94
 480 106 480 106 522 106 c 0,95,96
 544 106 544 106 582 122 c 1,97,98
 614 140 614 140 644 178 c 0,99,100
 670 206 670 206 696 268 c 1,101,102
 716 332 716 332 716 380 c 0,81,82
EndSplineSet
EndChar

StartChar: bracketleft
Encoding: 91 91 36
Width: 400
GlyphClass: 2
Flags: W
LayerCount: 2
Fore
SplineSet
294 -178 m 1,0,-1
 22 -178 l 1,1,-1
 22 960 l 1,2,-1
 294 960 l 1,3,-1
 294 832 l 1,4,-1
 168 832 l 1,5,-1
 168 -52 l 1,6,-1
 294 -52 l 1,7,-1
 294 -178 l 1,0,-1
EndSplineSet
EndChar

StartChar: backslash
Encoding: 92 92 37
Width: 480
GlyphClass: 2
Flags: W
LayerCount: 2
Fore
SplineSet
422 -34 m 1,0,-1
 294 -34 l 1,1,-1
 32 894 l 1,2,-1
 162 894 l 1,3,-1
 422 -34 l 1,0,-1
EndSplineSet
EndChar

StartChar: bracketright
Encoding: 93 93 38
Width: 430
GlyphClass: 2
Flags: W
LayerCount: 2
Fore
SplineSet
300 -178 m 1,0,-1
 28 -178 l 1,1,-1
 28 -52 l 1,2,-1
 154 -52 l 1,3,-1
 154 832 l 1,4,-1
 28 832 l 1,5,-1
 28 960 l 1,6,-1
 300 960 l 1,7,-1
 300 -178 l 1,0,-1
EndSplineSet
EndChar

StartChar: asciicircum
Encoding: 94 94 39
Width: 710
GlyphClass: 2
Flags: W
LayerCount: 2
Fore
SplineSet
584 404 m 1,0,-1
 432 404 l 1,1,-1
 302 722 l 1,2,-1
 176 404 l 1,3,-1
 24 404 l 1,4,-1
 248 914 l 1,5,-1
 358 914 l 1,6,-1
 584 404 l 1,0,-1
EndSplineSet
EndChar

StartChar: underscore
Encoding: 95 95 40
Width: 830
GlyphClass: 2
Flags: W
LayerCount: 2
Fore
SplineSet
704 12 m 1,0,-1
 52 12 l 1,1,-1
 52 164 l 1,2,-1
 704 164 l 1,3,-1
 704 12 l 1,0,-1
EndSplineSet
EndChar

StartChar: grave
Encoding: 96 96 41
Width: 264
GlyphClass: 2
Flags: W
LayerCount: 2
Fore
SplineSet
228 934 m 1,0,-1
 162 894 l 1,1,-1
 16 1184 l 1,2,-1
 136 1216 l 1,3,-1
 228 934 l 1,0,-1
EndSplineSet
EndChar

StartChar: braceleft
Encoding: 123 123 42
Width: 510
GlyphClass: 2
Flags: W
LayerCount: 2
Fore
SplineSet
414 -272 m 1,0,-1
 360 -272 l 2,1,2
 294 -272 294 -272 262 -260 c 128,-1,3
 230 -248 230 -248 198 -212 c 0,4,5
 184 -192 184 -192 177 -175 c 128,-1,6
 170 -158 170 -158 162 -126 c 0,7,8
 158 -94 158 -94 156 -64 c 128,-1,9
 154 -34 154 -34 154 28 c 2,10,-1
 154 54 l 2,11,12
 154 140 154 140 147 172 c 128,-1,13
 140 204 140 204 115 223 c 128,-1,14
 90 242 90 242 34 242 c 1,15,-1
 34 378 l 1,16,17
 86 378 86 378 112 398 c 0,18,19
 138 422 138 422 146 450 c 0,20,21
 150 478 150 478 152 504 c 128,-1,22
 154 530 154 530 154 584 c 2,23,-1
 158 716 l 1,24,25
 164 766 164 766 180 804 c 1,26,27
 198 834 198 834 219 855 c 128,-1,28
 240 876 240 876 273 885 c 128,-1,29
 306 894 306 894 360 894 c 2,30,-1
 414 894 l 1,31,-1
 414 762 l 1,32,-1
 374 762 l 2,33,34
 320 762 320 762 309 750 c 128,-1,35
 298 738 298 738 296 710 c 128,-1,36
 294 682 294 682 294 662 c 2,37,-1
 294 624 l 1,38,-1
 294 594 l 1,39,-1
 294 570 l 2,40,41
 294 494 294 494 288 466 c 0,42,43
 276 402 276 402 246 358 c 0,44,45
 234 344 234 344 232 342 c 0,46,47
 216 326 216 326 192 312 c 1,48,49
 244 280 244 280 262 238 c 0,50,51
 294 178 294 178 294 46 c 2,52,-1
 296 -86 l 2,53,54
 300 -122 300 -122 314 -131 c 128,-1,55
 328 -140 328 -140 374 -140 c 2,56,-1
 414 -140 l 1,57,-1
 414 -272 l 1,0,-1
EndSplineSet
EndChar

StartChar: bar
Encoding: 124 124 43
Width: 270
GlyphClass: 2
Flags: W
LayerCount: 2
Fore
SplineSet
182 -152 m 1,0,-1
 50 -152 l 1,1,-1
 50 1014 l 1,2,-1
 182 1014 l 1,3,-1
 182 -152 l 1,0,-1
EndSplineSet
EndChar

StartChar: braceright
Encoding: 125 125 44
Width: 530
GlyphClass: 2
Flags: W
LayerCount: 2
Fore
SplineSet
408 242 m 1,0,1
 350 242 350 242 326 223 c 128,-1,2
 302 204 302 204 294 165 c 128,-1,3
 286 126 286 126 286 38 c 2,4,-1
 282 -94 l 1,5,6
 276 -148 276 -148 259 -179 c 128,-1,7
 242 -210 242 -210 219 -231 c 128,-1,8
 196 -252 196 -252 162 -262 c 128,-1,9
 128 -272 128 -272 80 -272 c 2,10,-1
 28 -272 l 1,11,-1
 28 -140 l 1,12,-1
 66 -140 l 2,13,14
 94 -140 94 -140 108 -138 c 128,-1,15
 122 -136 122 -136 130 -124 c 0,16,17
 146 -108 146 -108 146 -40 c 0,18,19
 146 106 146 106 154 163 c 128,-1,20
 162 220 162 220 194 262 c 0,21,22
 214 288 214 288 246 310 c 1,23,24
 198 346 198 346 176 386 c 0,25,26
 146 446 146 446 146 574 c 2,27,-1
 144 710 l 2,28,29
 140 740 140 740 125 751 c 128,-1,30
 110 762 110 762 66 762 c 2,31,-1
 28 762 l 1,32,-1
 28 894 l 1,33,-1
 80 894 l 2,34,35
 114 894 114 894 135 892 c 128,-1,36
 156 890 156 890 170 882 c 0,37,38
 210 870 210 870 242 832 c 0,39,40
 266 802 266 802 278 748 c 0,41,42
 282 716 282 716 284 686 c 128,-1,43
 286 656 286 656 286 592 c 0,44,45
 286 484 286 484 296 452 c 0,46,47
 302 424 302 424 324 398 c 1,48,49
 346 382 346 382 408 376 c 1,50,-1
 408 242 l 1,0,1
EndSplineSet
EndChar

StartChar: asciitilde
Encoding: 126 126 45
Width: 770
GlyphClass: 2
Flags: W
LayerCount: 2
Fore
SplineSet
690 1026 m 1,0,1
 646 982 646 982 602 966 c 1,2,3
 568 948 568 948 508 948 c 0,4,5
 466 948 466 948 435 955 c 128,-1,6
 404 962 404 962 332 998 c 1,7,8
 266 1026 266 1026 224 1026 c 0,9,10
 210 1026 210 1026 195 1023 c 128,-1,11
 180 1020 180 1020 163 1012 c 128,-1,12
 146 1004 146 1004 120 983 c 128,-1,13
 94 962 94 962 50 920 c 1,14,-1
 52 1094 l 1,15,16
 126 1178 126 1178 234 1178 c 0,17,18
 270 1178 270 1178 309 1168 c 128,-1,19
 348 1158 348 1158 426 1124 c 0,20,21
 438 1118 438 1118 455 1113 c 128,-1,22
 472 1108 472 1108 484 1104 c 2,23,-1
 520 1098 l 2,24,25
 544 1098 544 1098 588 1118 c 0,26,27
 604 1128 604 1128 628 1148 c 128,-1,28
 652 1168 652 1168 690 1202 c 1,29,-1
 690 1026 l 1,0,1
EndSplineSet
EndChar

StartChar: cent
Encoding: 162 162 46
Width: 721
GlyphClass: 2
Flags: W
LayerCount: 2
Fore
SplineSet
598 156 m 1,0,1
 537 71 537 71 467 31 c 128,-1,2
 397 -9 397 -9 304 -17 c 1,3,-1
 228 -265 l 1,4,-1
 187 -265 l 1,5,-1
 262 -17 l 1,6,7
 177 -8 177 -8 128.5 47 c 128,-1,8
 80 102 80 102 80 188 c 0,9,10
 80 345 80 345 191.5 478.5 c 128,-1,11
 303 612 303 612 457 638 c 1,12,-1
 541 917 l 1,13,-1
 580 917 l 1,14,-1
 499 638 l 1,15,16
 580 638 580 638 616.5 607 c 128,-1,17
 653 576 653 576 653 523 c 0,18,19
 653 482 653 482 631.5 455.5 c 128,-1,20
 610 429 610 429 580 429 c 0,21,22
 557 429 557 429 544 442 c 128,-1,23
 531 455 531 455 531 476 c 0,24,25
 531 491 531 491 536 502 c 128,-1,26
 541 513 541 513 560.5 534.5 c 128,-1,27
 580 556 580 556 580 570 c 0,28,29
 580 578 580 578 575 585 c 0,30,31
 565 596 565 596 549.5 601 c 128,-1,32
 534 606 534 606 489 606 c 1,33,-1
 322 49 l 1,34,-1
 352 47 l 1,35,36
 470 47 470 47 580 173 c 1,37,-1
 598 156 l 1,0,1
284 57 m 1,38,-1
 445 598 l 1,39,40
 383 570 383 570 342 533 c 0,41,42
 274 467 274 467 237 380.5 c 128,-1,43
 200 294 200 294 200 205 c 0,44,45
 200 146 200 146 224 108 c 0,46,47
 243 81 243 81 284 57 c 1,38,-1
EndSplineSet
EndChar

StartChar: multiply
Encoding: 215 215 47
Width: 975
GlyphClass: 2
Flags: W
LayerCount: 2
Fore
SplineSet
267 230 m 1,0,-1
 515 479 l 1,1,-1
 267 728 l 1,2,-1
 308 768 l 1,3,-1
 556 520 l 1,4,-1
 805 768 l 1,5,-1
 844 728 l 1,6,-1
 595 480 l 1,7,-1
 845 230 l 1,8,-1
 805 190 l 1,9,-1
 555 439 l 1,10,-1
 307 190 l 1,11,-1
 267 230 l 1,0,-1
EndSplineSet
EndChar

StartChar: divide
Encoding: 247 247 48
Width: 792
GlyphClass: 2
Flags: W
LayerCount: 2
Fore
SplineSet
418 757 m 0,0,1
 443 757 443 757 461 739 c 128,-1,2
 479 721 479 721 479 695 c 0,3,4
 479 670 479 670 461 652 c 128,-1,5
 443 634 443 634 417 634 c 0,6,7
 392 634 392 634 373.5 652 c 128,-1,8
 355 670 355 670 355 695 c 0,9,10
 355 721 355 721 373.5 739 c 128,-1,11
 392 757 392 757 418 757 c 0,0,1
797 450 m 1,12,-1
 38 450 l 1,13,-1
 38 508 l 1,14,-1
 797 508 l 1,15,-1
 797 450 l 1,12,-1
418 320 m 0,16,17
 443 320 443 320 461 301.5 c 128,-1,18
 479 283 479 283 479 257 c 0,19,20
 479 233 479 233 461 215 c 128,-1,21
 443 197 443 197 418 197 c 0,22,23
 392 197 392 197 373.5 215 c 128,-1,24
 355 233 355 233 355 257 c 0,25,26
 355 283 355 283 373.5 301.5 c 128,-1,27
 392 320 392 320 418 320 c 0,16,17
EndSplineSet
EndChar

StartChar: tm_visarga
Encoding: 2947 2947 49
Width: 1330
GlyphClass: 2
Flags: W
LayerCount: 2
Fore
SplineSet
858 1072 m 0,0,1
 858 984 858 984 790 920 c 128,-1,2
 722 856 722 856 634 856 c 256,3,4
 546 856 546 856 477 921 c 128,-1,5
 408 986 408 986 408 1072 c 0,6,7
 408 1170 408 1170 471 1233 c 128,-1,8
 534 1296 534 1296 626 1296 c 0,9,10
 736 1296 736 1296 797 1233 c 128,-1,11
 858 1170 858 1170 858 1072 c 0,0,1
1224 208 m 0,12,13
 1224 120 1224 120 1157 57 c 128,-1,14
 1090 -6 1090 -6 998 -6 c 0,15,16
 910 -6 910 -6 841 59 c 128,-1,17
 772 124 772 124 772 208 c 0,18,19
 772 302 772 302 837 367 c 128,-1,20
 902 432 902 432 992 432 c 0,21,22
 1102 432 1102 432 1163 369 c 128,-1,23
 1224 306 1224 306 1224 208 c 0,12,13
482 208 m 0,24,25
 482 120 482 120 415 57 c 128,-1,26
 348 -6 348 -6 256 -6 c 0,27,28
 170 -6 170 -6 101 59 c 128,-1,29
 32 124 32 124 32 208 c 0,30,31
 32 304 32 304 96 368 c 128,-1,32
 160 432 160 432 248 432 c 0,33,34
 360 432 360 432 421 369 c 128,-1,35
 482 306 482 306 482 208 c 0,24,25
734 1076 m 0,36,37
 734 1122 734 1122 704 1150 c 128,-1,38
 674 1178 674 1178 630 1178 c 0,39,40
 588 1178 588 1178 559 1149 c 128,-1,41
 530 1120 530 1120 530 1076 c 0,42,43
 530 1040 530 1040 562 1008 c 128,-1,44
 594 976 594 976 632 976 c 0,45,46
 672 976 672 976 703 1005 c 128,-1,47
 734 1034 734 1034 734 1076 c 0,36,37
1102 212 m 0,48,49
 1102 260 1102 260 1072 286 c 128,-1,50
 1042 312 1042 312 996 312 c 0,51,52
 952 312 952 312 924 284 c 128,-1,53
 896 256 896 256 896 212 c 0,54,55
 896 176 896 176 928 144 c 128,-1,56
 960 112 960 112 998 112 c 0,57,58
 1040 112 1040 112 1071 141 c 128,-1,59
 1102 170 1102 170 1102 212 c 0,48,49
360 212 m 0,60,61
 360 260 360 260 330 286 c 128,-1,62
 300 312 300 312 252 312 c 0,63,64
 210 312 210 312 183 283 c 128,-1,65
 156 254 156 254 156 212 c 0,66,67
 156 176 156 176 186 144 c 128,-1,68
 216 112 216 112 254 112 c 0,69,70
 296 112 296 112 328 140 c 128,-1,71
 360 168 360 168 360 212 c 0,60,61
EndSplineSet
EndChar

StartChar: tm_a
Encoding: 2949 2949 50
Width: 1990
GlyphClass: 2
Flags: W
LayerCount: 2
Fore
SplineSet
1888 -318 m 1,0,-1
 1734 -318 l 1,1,-1
 1734 128 l 1,2,-1
 1548 128 l 1,3,4
 1396 -88 1396 -88 1196 -182 c 0,5,6
 1024 -262 1024 -262 804 -262 c 0,7,8
 498 -262 498 -262 270 -160 c 0,9,10
 24 -50 24 -50 24 120 c 0,11,12
 24 200 24 200 118 244 c 0,13,14
 196 280 196 280 296 280 c 2,15,-1
 1428 280 l 1,16,17
 1438 304 1438 304 1440 336 c 128,-1,18
 1442 368 1442 368 1442 376 c 0,19,20
 1442 494 1442 494 1376 590 c 0,21,22
 1318 674 1318 674 1230 710 c 1,23,24
 1260 660 1260 660 1260 584 c 0,25,26
 1260 478 1260 478 1187 407 c 128,-1,27
 1114 336 1114 336 1002 336 c 0,28,29
 886 336 886 336 805 409 c 128,-1,30
 724 482 724 482 724 598 c 0,31,32
 724 722 724 722 819 794 c 128,-1,33
 914 866 914 866 1052 866 c 0,34,35
 1310 866 1310 866 1462 712 c 0,36,37
 1600 572 1600 572 1600 378 c 0,38,39
 1600 354 1600 354 1597 331 c 128,-1,40
 1594 308 1594 308 1586 280 c 1,41,-1
 1734 280 l 1,42,-1
 1734 844 l 1,43,-1
 1888 844 l 1,44,-1
 1888 -318 l 1,0,-1
1106 586 m 0,45,46
 1106 640 1106 640 1074 678 c 128,-1,47
 1042 716 1042 716 996 716 c 0,48,49
 940 716 940 716 908 680 c 128,-1,50
 876 644 876 644 876 590 c 0,51,52
 876 552 876 552 910 516 c 128,-1,53
 944 480 944 480 996 480 c 0,54,55
 1036 480 1036 480 1071 513 c 128,-1,56
 1106 546 1106 546 1106 586 c 0,45,46
1356 128 m 1,57,-1
 292 128 l 1,58,-1
 252 128 l 2,59,60
 192 128 192 128 192 92 c 0,61,62
 192 12 192 12 418 -68 c 0,63,64
 588 -128 588 -128 802 -128 c 0,65,66
 994 -128 994 -128 1158 -34 c 0,67,68
 1264 26 1264 26 1356 128 c 1,57,-1
EndSplineSet
EndChar

StartChar: tm_aa
Encoding: 2950 2950 51
Width: 2500
GlyphClass: 2
Flags: W
LayerCount: 2
Fore
SplineSet
2386 -92 m 0,0,1
 2386 -298 2386 -298 2176 -442 c 0,2,3
 1942 -602 1942 -602 1546 -602 c 0,4,5
 1352 -602 1352 -602 1242 -528 c 0,6,7
 1148 -464 1148 -464 1148 -372 c 0,8,9
 1148 -300 1148 -300 1206 -250 c 128,-1,10
 1264 -200 1264 -200 1366 -200 c 0,11,12
 1488 -200 1488 -200 1578 -226 c 0,13,14
 1606 -234 1606 -234 1644 -252 c 1,15,-1
 1578 -376 l 1,16,17
 1538 -364 1538 -364 1516 -358 c 0,18,19
 1444 -340 1444 -340 1396 -340 c 2,20,-1
 1374 -340 l 1,21,22
 1298 -348 1298 -348 1298 -384 c 0,23,24
 1298 -414 1298 -414 1365 -442 c 128,-1,25
 1432 -470 1432 -470 1542 -470 c 0,26,27
 1764 -470 1764 -470 1968 -386 c 0,28,29
 2230 -278 2230 -278 2230 -94 c 0,30,31
 2230 -40 2230 -40 2189 1 c 128,-1,32
 2148 42 2148 42 2090 42 c 0,33,34
 2022 42 2022 42 1961 9 c 128,-1,35
 1900 -24 1900 -24 1888 -82 c 1,36,-1
 1888 -314 l 1,37,-1
 1734 -314 l 1,38,-1
 1734 122 l 1,39,-1
 1556 122 l 1,40,41
 1444 -36 1444 -36 1292 -130 c 0,42,43
 1078 -262 1078 -262 796 -262 c 0,44,45
 492 -262 492 -262 266 -160 c 0,46,47
 22 -50 22 -50 22 120 c 0,48,49
 22 190 22 190 113 235 c 128,-1,50
 204 280 204 280 296 280 c 2,51,-1
 1428 280 l 1,52,53
 1446 324 1446 324 1446 376 c 0,54,55
 1446 494 1446 494 1378 590 c 0,56,57
 1318 674 1318 674 1230 710 c 1,58,59
 1260 660 1260 660 1260 584 c 0,60,61
 1260 478 1260 478 1187 407 c 128,-1,62
 1114 336 1114 336 1002 336 c 0,63,64
 888 336 888 336 806 410 c 128,-1,65
 724 484 724 484 724 598 c 0,66,67
 724 720 724 720 821 793 c 128,-1,68
 918 866 918 866 1054 866 c 0,69,70
 1308 866 1308 866 1460 712 c 0,71,72
 1598 572 1598 572 1598 378 c 0,73,74
 1598 320 1598 320 1588 280 c 1,75,-1
 1734 280 l 1,76,-1
 1734 844 l 1,77,-1
 1888 844 l 1,78,-1
 1888 116 l 1,79,80
 1918 142 1918 142 1958 156 c 0,81,82
 2018 178 2018 178 2094 178 c 0,83,84
 2208 178 2208 178 2292 112 c 0,85,86
 2386 38 2386 38 2386 -92 c 0,0,1
1108 586 m 0,87,88
 1108 640 1108 640 1076 678 c 128,-1,89
 1044 716 1044 716 996 716 c 0,90,91
 940 716 940 716 908 680 c 128,-1,92
 876 644 876 644 876 590 c 0,93,94
 876 552 876 552 910 516 c 128,-1,95
 944 480 944 480 996 480 c 0,96,97
 1036 480 1036 480 1072 512 c 128,-1,98
 1108 544 1108 544 1108 586 c 0,87,88
1358 128 m 1,99,-1
 292 128 l 1,100,-1
 250 128 l 2,101,102
 184 128 184 128 184 92 c 0,103,104
 184 14 184 14 414 -64 c 0,105,106
 586 -122 586 -122 802 -122 c 0,107,108
 998 -122 998 -122 1158 -32 c 0,109,110
 1264 28 1264 28 1358 128 c 1,99,-1
EndSplineSet
EndChar

StartChar: tm_i
Encoding: 2951 2951 52
Width: 1540
GlyphClass: 2
Flags: W
LayerCount: 2
Fore
SplineSet
1432 178 m 1,0,-1
 1278 178 l 1,1,-1
 1278 754 l 2,2,3
 1278 920 1278 920 1168 1052 c 0,4,5
 1032 1214 1032 1214 796 1214 c 0,6,7
 542 1214 542 1214 396 1020 c 0,8,9
 270 852 270 852 270 622 c 0,10,11
 270 534 270 534 293 441 c 128,-1,12
 316 348 316 348 360 256 c 1,13,14
 436 290 436 290 517 309 c 128,-1,15
 598 328 598 328 666 328 c 0,16,17
 790 328 790 328 856 320 c 128,-1,18
 922 312 922 312 952 300 c 1,19,20
 966 342 966 342 972 388 c 128,-1,21
 978 434 978 434 978 474 c 0,22,23
 978 504 978 504 976 527 c 128,-1,24
 974 550 974 550 966 574 c 0,25,26
 950 626 950 626 922 664 c 0,27,28
 908 682 908 682 872 716 c 1,29,30
 876 698 876 698 878 682 c 128,-1,31
 880 666 880 666 880 628 c 0,32,33
 880 512 880 512 806 456 c 0,34,35
 748 412 748 412 662 412 c 0,36,37
 572 412 572 412 509 479 c 128,-1,38
 446 546 446 546 446 638 c 0,39,40
 446 760 446 760 529 839 c 128,-1,41
 612 918 612 918 732 918 c 0,42,43
 874 918 874 918 980 822 c 0,44,45
 1078 734 1078 734 1112 594 c 0,46,47
 1126 532 1126 532 1126 464 c 0,48,49
 1126 392 1126 392 1116 338 c 128,-1,50
 1106 284 1106 284 1094 250 c 1,51,52
 1202 190 1202 190 1263 101 c 128,-1,53
 1324 12 1324 12 1324 -102 c 0,54,55
 1324 -222 1324 -222 1234 -294 c 0,56,57
 1154 -358 1154 -358 1042 -358 c 0,58,59
 944 -358 944 -358 838 -321 c 128,-1,60
 732 -284 732 -284 674 -240 c 1,61,62
 618 -282 618 -282 514 -318 c 0,63,64
 386 -362 386 -362 276 -362 c 0,65,66
 178 -362 178 -362 102 -304 c 0,67,68
 18 -240 18 -240 18 -134 c 0,69,70
 18 -32 18 -32 100 64 c 0,71,72
 162 136 162 136 238 178 c 1,73,74
 192 258 192 258 160 374 c 0,75,76
 122 508 122 508 122 636 c 0,77,78
 122 932 122 932 306 1140 c 0,79,80
 500 1358 500 1358 796 1358 c 0,81,82
 1088 1358 1088 1358 1270 1164 c 0,83,84
 1432 990 1432 990 1432 764 c 2,85,-1
 1432 178 l 1,0,-1
738 630 m 0,86,87
 738 676 738 676 719 710 c 128,-1,88
 700 744 700 744 660 744 c 256,89,90
 620 744 620 744 599 711 c 128,-1,91
 578 678 578 678 578 634 c 0,92,93
 578 598 578 598 604 568 c 128,-1,94
 630 538 630 538 662 538 c 0,95,96
 692 538 692 538 715 565 c 128,-1,97
 738 592 738 592 738 630 c 0,86,87
1164 -150 m 0,98,99
 1182 -110 1182 -110 1182 -78 c 0,100,101
 1182 -24 1182 -24 1141 29 c 128,-1,102
 1100 82 1100 82 1030 120 c 1,103,104
 1010 88 1010 88 990 60 c 0,105,106
 956 12 956 12 924 -27 c 128,-1,107
 892 -66 892 -66 859 -99 c 128,-1,108
 826 -132 826 -132 790 -158 c 1,109,110
 834 -182 834 -182 898 -201 c 128,-1,111
 962 -220 962 -220 1022 -220 c 0,112,113
 1074 -220 1074 -220 1109 -205 c 128,-1,114
 1144 -190 1144 -190 1164 -150 c 0,98,99
898 178 m 1,115,116
 812 188 812 188 753 194 c 128,-1,117
 694 200 694 200 664 200 c 0,118,119
 612 200 612 200 553 183 c 128,-1,120
 494 166 494 166 442 134 c 1,121,122
 466 104 466 104 480 88 c 0,123,124
 506 58 506 58 538 27 c 128,-1,125
 570 -4 570 -4 596 -22 c 0,126,127
 612 -34 612 -34 662 -66 c 1,128,129
 706 -36 706 -36 734 -12 c 128,-1,130
 762 12 762 12 798 52 c 0,131,132
 820 74 820 74 855 120 c 128,-1,133
 890 166 890 166 898 178 c 1,115,116
546 -160 m 1,134,135
 484 -118 484 -118 424 -58 c 0,136,137
 394 -30 394 -30 378 -14 c 0,138,139
 356 10 356 10 314 60 c 1,140,141
 260 24 260 24 228 -10 c 0,142,143
 172 -70 172 -70 172 -126 c 0,144,145
 172 -154 172 -154 186 -182 c 0,146,147
 214 -228 214 -228 290 -228 c 0,148,149
 348 -228 348 -228 421 -205 c 128,-1,150
 494 -182 494 -182 546 -160 c 1,134,135
EndSplineSet
EndChar

StartChar: tm_ii
Encoding: 2952 2952 53
Width: 1180
GlyphClass: 2
Flags: W
LayerCount: 2
Fore
SplineSet
1014 414 m 0,0,1
 1014 370 1014 370 983 339 c 128,-1,2
 952 308 952 308 912 308 c 0,3,4
 860 308 860 308 828 337 c 128,-1,5
 796 366 796 366 796 418 c 0,6,7
 796 460 796 460 828 492 c 128,-1,8
 860 524 860 524 906 524 c 0,9,10
 950 524 950 524 982 492 c 128,-1,11
 1014 460 1014 460 1014 414 c 0,0,1
1060 692 m 1,12,-1
 718 692 l 1,13,-1
 718 0 l 1,14,-1
 566 0 l 1,15,-1
 566 692 l 1,16,-1
 182 692 l 1,17,-1
 182 0 l 1,18,-1
 30 0 l 1,19,-1
 30 844 l 1,20,-1
 1060 844 l 1,21,-1
 1060 692 l 1,12,-1
484 418 m 0,22,23
 484 374 484 374 454 342 c 128,-1,24
 424 310 424 310 380 310 c 0,25,26
 334 310 334 310 302 338 c 128,-1,27
 270 366 270 366 270 422 c 0,28,29
 270 462 270 462 301 495 c 128,-1,30
 332 528 332 528 378 528 c 0,31,32
 422 528 422 528 453 497 c 128,-1,33
 484 466 484 466 484 418 c 0,22,23
EndSplineSet
EndChar

StartChar: tm_u
Encoding: 2953 2953 54
Width: 1520
GlyphClass: 2
Flags: W
LayerCount: 2
Fore
SplineSet
1414 0 m 1,0,-1
 214 0 l 2,1,2
 152 0 152 0 100 32 c 0,3,4
 26 78 26 78 26 172 c 0,5,6
 26 272 26 272 100 320 c 0,7,8
 156 356 156 356 236 356 c 2,9,-1
 454 356 l 2,10,11
 542 356 542 356 592 394 c 0,12,13
 650 438 650 438 650 526 c 0,14,15
 650 626 650 626 576 668 c 0,16,17
 524 698 524 698 444 698 c 0,18,19
 416 698 416 698 406 696 c 1,20,21
 416 684 416 684 420 676 c 0,22,23
 432 654 432 654 432 584 c 0,24,25
 432 510 432 510 372 460 c 128,-1,26
 312 410 312 410 230 410 c 0,27,28
 150 410 150 410 89 464 c 128,-1,29
 28 518 28 518 28 600 c 0,30,31
 28 730 28 730 126 790 c 128,-1,32
 224 850 224 850 390 850 c 0,33,34
 568 850 568 850 678 782 c 0,35,36
 814 698 814 698 814 524 c 0,37,38
 814 362 814 362 692 276 c 0,39,40
 590 204 590 204 442 204 c 2,41,-1
 222 204 l 2,42,43
 208 204 208 204 194 204 c 0,44,45
 174 200 174 200 174 178 c 0,46,47
 174 160 174 160 188 157 c 128,-1,48
 202 154 202 154 230 154 c 2,49,-1
 1414 154 l 1,50,-1
 1414 0 l 1,0,-1
298 612 m 0,51,52
 298 646 298 646 278 674 c 128,-1,53
 258 702 258 702 228 702 c 256,54,55
 198 702 198 702 179 677 c 128,-1,56
 160 652 160 652 160 612 c 0,57,58
 160 582 160 582 180 562 c 128,-1,59
 200 542 200 542 230 542 c 0,60,61
 254 542 254 542 276 562 c 128,-1,62
 298 582 298 582 298 612 c 0,51,52
EndSplineSet
EndChar

StartChar: tm_uu
Encoding: 2954 2954 55
Width: 2140
GlyphClass: 2
Flags: W
LayerCount: 2
Fore
SplineSet
2028 692 m 1,0,-1
 1864 692 l 1,1,-1
 1864 208 l 1,2,-1
 1710 208 l 1,3,-1
 1710 692 l 1,4,-1
 1578 692 l 1,5,-1
 1578 208 l 1,6,-1
 1422 208 l 1,7,-1
 1422 564 l 1,8,9
 1402 612 1402 612 1382 634 c 0,10,11
 1318 706 1318 706 1212 706 c 0,12,13
 1124 706 1124 706 1074 650 c 0,14,15
 1036 608 1036 608 1028 556 c 1,16,17
 1054 574 1054 574 1070 582 c 0,18,19
 1100 596 1100 596 1138 596 c 0,20,21
 1230 596 1230 596 1285 539 c 128,-1,22
 1340 482 1340 482 1340 390 c 0,23,24
 1340 304 1340 304 1278 252 c 128,-1,25
 1216 200 1216 200 1128 200 c 0,26,27
 1024 200 1024 200 957 287 c 128,-1,28
 890 374 890 374 890 504 c 0,29,30
 890 664 890 664 990 762 c 0,31,32
 1082 852 1082 852 1216 852 c 0,33,34
 1290 852 1290 852 1364 822 c 0,35,36
 1388 812 1388 812 1422 792 c 1,37,-1
 1422 844 l 1,38,-1
 2028 844 l 1,39,-1
 2028 692 l 1,0,-1
2006 0 m 1,40,-1
 222 0 l 2,41,42
 134 0 134 0 83 49 c 128,-1,43
 32 98 32 98 32 172 c 0,44,45
 32 272 32 272 106 320 c 0,46,47
 162 356 162 356 244 356 c 2,48,-1
 462 356 l 2,49,50
 546 356 546 356 592 396 c 128,-1,51
 638 436 638 436 638 526 c 0,52,53
 638 624 638 624 570 668 c 0,54,55
 522 698 522 698 450 698 c 0,56,57
 424 698 424 698 414 696 c 1,58,59
 424 684 424 684 428 676 c 0,60,61
 440 654 440 654 440 584 c 0,62,63
 440 510 440 510 380 460 c 128,-1,64
 320 410 320 410 238 410 c 0,65,66
 160 410 160 410 97 465 c 128,-1,67
 34 520 34 520 34 600 c 0,68,69
 34 728 34 728 134 789 c 128,-1,70
 234 850 234 850 398 850 c 0,71,72
 572 850 572 850 676 782 c 0,73,74
 802 700 802 700 802 524 c 0,75,76
 802 360 802 360 690 276 c 0,77,78
 594 204 594 204 450 204 c 2,79,-1
 230 204 l 2,80,81
 216 204 216 204 202 204 c 0,82,83
 182 200 182 200 182 178 c 0,84,85
 182 160 182 160 196 157 c 128,-1,86
 210 154 210 154 238 154 c 2,87,-1
 2006 154 l 1,88,-1
 2006 0 l 1,40,-1
1190 394 m 0,89,90
 1190 470 1190 470 1124 470 c 0,91,92
 1092 470 1092 470 1073 449 c 128,-1,93
 1054 428 1054 428 1054 398 c 256,94,95
 1054 368 1054 368 1071 347 c 128,-1,96
 1088 326 1088 326 1120 326 c 0,97,98
 1158 326 1158 326 1174 347 c 128,-1,99
 1190 368 1190 368 1190 394 c 0,89,90
306 612 m 0,100,101
 306 646 306 646 286 674 c 128,-1,102
 266 702 266 702 236 702 c 256,103,104
 206 702 206 702 187 677 c 128,-1,105
 168 652 168 652 168 612 c 0,106,107
 168 582 168 582 188 562 c 128,-1,108
 208 542 208 542 238 542 c 0,109,110
 262 542 262 542 284 562 c 128,-1,111
 306 582 306 582 306 612 c 0,100,101
EndSplineSet
EndChar

StartChar: tm_e
Encoding: 2958 2958 56
Width: 1370
GlyphClass: 2
Flags: W
LayerCount: 2
Fore
SplineSet
1274 692 m 1,0,-1
 996 692 l 1,1,-1
 996 0 l 1,2,-1
 842 0 l 1,3,-1
 842 692 l 1,4,-1
 454 692 l 2,5,6
 346 692 346 692 259 609 c 128,-1,7
 172 526 172 526 172 384 c 0,8,9
 172 330 172 330 186 287 c 128,-1,10
 200 244 200 244 232 214 c 1,11,12
 226 230 226 230 226 258 c 0,13,14
 226 332 226 332 274 402 c 0,15,16
 338 494 338 494 450 494 c 0,17,18
 568 494 568 494 632 410 c 0,19,20
 686 340 686 340 686 242 c 256,21,22
 686 144 686 144 611 73 c 128,-1,23
 536 2 536 2 426 2 c 0,24,25
 258 2 258 2 146 98 c 0,26,27
 22 204 22 204 22 384 c 0,28,29
 22 586 22 586 146 706 c 0,30,31
 234 792 234 792 376 826 c 0,32,33
 450 844 450 844 500 844 c 2,34,-1
 1274 844 l 1,35,-1
 1274 692 l 1,0,-1
540 248 m 0,36,37
 540 294 540 294 517 325 c 128,-1,38
 494 356 494 356 454 356 c 0,39,40
 410 356 410 356 387 322 c 128,-1,41
 364 288 364 288 364 242 c 0,42,43
 364 202 364 202 389 173 c 128,-1,44
 414 144 414 144 450 144 c 0,45,46
 494 144 494 144 517 174 c 128,-1,47
 540 204 540 204 540 248 c 0,36,37
EndSplineSet
EndChar

StartChar: tm_ee
Encoding: 2959 2959 57
Width: 1370
GlyphClass: 2
Flags: W
LayerCount: 2
Fore
SplineSet
1248 692 m 1,0,-1
 970 692 l 1,1,-1
 970 12 l 1,2,3
 930 -2 930 -2 904 -14 c 0,4,5
 826 -52 826 -52 762 -116 c 0,6,7
 708 -172 708 -172 656 -256 c 0,8,9
 648 -270 648 -270 634 -298 c 1,10,-1
 504 -216 l 1,11,12
 538 -164 538 -164 558 -136 c 0,13,14
 618 -54 618 -54 658 -16 c 0,15,16
 684 6 684 6 716 34 c 0,17,18
 764 74 764 74 816 106 c 1,19,-1
 816 692 l 1,20,-1
 454 692 l 2,21,22
 346 692 346 692 259 609 c 128,-1,23
 172 526 172 526 172 384 c 0,24,25
 172 330 172 330 186 287 c 128,-1,26
 200 244 200 244 232 214 c 1,27,28
 226 230 226 230 226 258 c 0,29,30
 226 332 226 332 276 400 c 0,31,32
 342 490 342 490 452 490 c 0,33,34
 572 490 572 490 634 408 c 0,35,36
 686 340 686 340 686 242 c 256,37,38
 686 144 686 144 611 73 c 128,-1,39
 536 2 536 2 426 2 c 0,40,41
 256 2 256 2 146 98 c 0,42,43
 24 204 24 204 24 384 c 0,44,45
 24 588 24 588 146 706 c 0,46,47
 234 792 234 792 376 826 c 0,48,49
 450 844 450 844 500 844 c 2,50,-1
 1248 844 l 1,51,-1
 1248 692 l 1,0,-1
540 248 m 0,52,53
 540 294 540 294 517 325 c 128,-1,54
 494 356 494 356 454 356 c 0,55,56
 410 356 410 356 387 322 c 128,-1,57
 364 288 364 288 364 242 c 0,58,59
 364 202 364 202 389 173 c 128,-1,60
 414 144 414 144 450 144 c 0,61,62
 494 144 494 144 517 174 c 128,-1,63
 540 204 540 204 540 248 c 0,52,53
EndSplineSet
EndChar

StartChar: tm_ai
Encoding: 2960 2960 58
Width: 1370
GlyphClass: 2
Flags: W
LayerCount: 2
Fore
SplineSet
1266 470 m 0,0,1
 1266 304 1266 304 1141 193 c 128,-1,2
 1016 82 1016 82 826 82 c 2,3,-1
 364 82 l 2,4,5
 282 82 282 82 229 25 c 128,-1,6
 176 -32 176 -32 176 -114 c 0,7,8
 176 -214 176 -214 246 -272 c 0,9,10
 304 -320 304 -320 378 -320 c 0,11,12
 466 -320 466 -320 536 -276 c 128,-1,13
 606 -232 606 -232 606 -172 c 2,14,-1
 606 18 l 1,15,-1
 758 18 l 1,16,-1
 758 -164 l 2,17,18
 758 -220 758 -220 813 -271 c 128,-1,19
 868 -322 868 -322 940 -322 c 0,20,21
 1008 -322 1008 -322 1057 -292 c 128,-1,22
 1106 -262 1106 -262 1106 -206 c 0,23,24
 1106 -148 1106 -148 1082 -110 c 0,25,26
 1068 -88 1068 -88 1030 -70 c 1,27,-1
 1116 56 l 1,28,29
 1164 30 1164 30 1188 6 c 0,30,31
 1262 -72 1262 -72 1262 -198 c 0,32,33
 1262 -326 1262 -326 1162 -400 c 0,34,35
 1070 -468 1070 -468 938 -468 c 0,36,37
 840 -468 840 -468 768 -422 c 0,38,39
 726 -394 726 -394 682 -340 c 1,40,41
 634 -392 634 -392 580 -420 c 0,42,43
 494 -464 494 -464 370 -464 c 0,44,45
 242 -464 242 -464 134 -370 c 0,46,47
 14 -264 14 -264 14 -108 c 256,48,49
 14 48 14 48 130 146 c 0,50,51
 236 236 236 236 388 236 c 2,52,-1
 856 236 l 2,53,54
 954 236 954 236 1032 304 c 128,-1,55
 1110 372 1110 372 1110 472 c 0,56,57
 1110 564 1110 564 1060 632 c 128,-1,58
 1010 700 1010 700 928 700 c 256,59,60
 846 700 846 700 802 650 c 128,-1,61
 758 600 758 600 758 512 c 2,62,-1
 758 300 l 1,63,-1
 606 300 l 1,64,-1
 606 514 l 2,65,66
 606 614 606 614 526 666 c 0,67,68
 464 706 464 706 380 706 c 0,69,70
 348 706 348 706 326 702 c 128,-1,71
 304 698 304 698 286 692 c 1,72,73
 300 692 300 692 315 692 c 128,-1,74
 330 692 330 692 348 688 c 0,75,76
 412 674 412 674 452 630 c 0,77,78
 502 576 502 576 502 488 c 0,79,80
 502 388 502 388 439 334 c 128,-1,81
 376 280 376 280 278 280 c 0,82,83
 174 280 174 280 106 352 c 128,-1,84
 38 424 38 424 38 532 c 0,85,86
 38 664 38 664 142 754 c 128,-1,87
 246 844 246 844 382 844 c 0,88,89
 530 844 530 844 622 780 c 0,90,91
 652 760 652 760 686 714 c 1,92,93
 716 758 716 758 740 778 c 0,94,95
 818 844 818 844 926 844 c 0,96,97
 1092 844 1092 844 1184 728 c 0,98,99
 1266 624 1266 624 1266 470 c 0,0,1
364 500 m 0,100,101
 364 538 364 538 338 562 c 128,-1,102
 312 586 312 586 276 586 c 0,103,104
 238 586 238 586 212 562 c 128,-1,105
 186 538 186 538 186 500 c 0,106,107
 186 466 186 466 213 441 c 128,-1,108
 240 416 240 416 276 416 c 0,109,110
 314 416 314 416 339 437 c 128,-1,111
 364 458 364 458 364 500 c 0,100,101
EndSplineSet
EndChar

StartChar: tm_o
Encoding: 2962 2962 59
Width: 1380
GlyphClass: 2
Flags: W
LayerCount: 2
Fore
SplineSet
1282 320 m 0,0,1
 1282 214 1282 214 1216 140 c 128,-1,2
 1150 66 1150 66 1044 66 c 0,3,4
 952 66 952 66 890 114 c 0,5,6
 818 170 818 170 818 264 c 1,7,8
 800 238 800 238 790 218 c 128,-1,9
 780 198 780 198 780 174 c 0,10,11
 780 88 780 88 840 42 c 0,12,13
 892 2 892 2 962 2 c 2,14,-1
 1192 2 l 1,15,-1
 1192 -152 l 1,16,-1
 954 -152 l 1,17,18
 946 -156 946 -156 940 -158 c 0,19,20
 900 -180 900 -180 866 -222 c 0,21,22
 846 -250 846 -250 811 -300 c 128,-1,23
 776 -350 776 -350 768 -362 c 0,24,25
 724 -434 724 -434 652 -462 c 0,26,27
 600 -482 600 -482 516 -482 c 0,28,29
 396 -482 396 -482 316 -426 c 0,30,31
 224 -362 224 -362 224 -248 c 0,32,33
 224 -126 224 -126 344 -68 c 0,34,35
 384 -50 384 -50 464 -34 c 1,36,-1
 464 -172 l 1,37,38
 432 -172 432 -172 418 -178 c 0,39,40
 370 -196 370 -196 370 -250 c 256,41,42
 370 -304 370 -304 407 -324 c 128,-1,43
 444 -344 444 -344 516 -344 c 0,44,45
 600 -344 600 -344 640 -302 c 1,46,47
 686 -232 686 -232 724 -178 c 0,48,49
 750 -140 750 -140 772 -123 c 128,-1,50
 794 -106 794 -106 812 -94 c 1,51,52
 726 -50 726 -50 700 -24 c 0,53,54
 634 46 634 46 634 172 c 0,55,56
 634 334 634 334 792 412 c 0,57,58
 844 436 844 436 950 456 c 1,59,60
 946 444 946 444 946 434 c 0,61,62
 940 394 940 394 940 364 c 0,63,64
 940 320 940 320 945 288 c 128,-1,65
 950 256 950 256 973 228 c 128,-1,66
 996 200 996 200 1044 200 c 0,67,68
 1086 200 1086 200 1110 230 c 128,-1,69
 1134 260 1134 260 1134 310 c 0,70,71
 1134 484 1134 484 995 593 c 128,-1,72
 856 702 856 702 648 702 c 0,73,74
 446 702 446 702 312 602 c 0,75,76
 216 530 216 530 174 428 c 0,77,78
 156 380 156 380 156 324 c 0,79,80
 156 286 156 286 164 254 c 1,81,82
 164 338 164 338 217 395 c 128,-1,83
 270 452 270 452 356 452 c 0,84,85
 464 452 464 452 520 384 c 0,86,87
 570 322 570 322 570 222 c 0,88,89
 570 130 570 130 502 69 c 128,-1,90
 434 8 434 8 344 8 c 0,91,92
 190 8 190 8 102 108 c 0,93,94
 24 196 24 196 24 326 c 0,95,96
 24 544 24 544 204 692 c 128,-1,97
 384 840 384 840 660 840 c 0,98,99
 914 840 914 840 1092 700 c 0,100,101
 1282 550 1282 550 1282 320 c 0,0,1
428 228 m 0,102,103
 428 270 428 270 414 296 c 0,104,105
 394 330 394 330 356 330 c 256,106,107
 318 330 318 330 298 300 c 128,-1,108
 278 270 278 270 278 230 c 0,109,110
 278 194 278 194 298 166 c 128,-1,111
 318 138 318 138 354 138 c 0,112,113
 388 138 388 138 408 166 c 128,-1,114
 428 194 428 194 428 228 c 0,102,103
EndSplineSet
EndChar

StartChar: tm_oo
Encoding: 2963 2963 60
Width: 1370
GlyphClass: 2
Flags: W
LayerCount: 2
Fore
SplineSet
1272 320 m 0,0,1
 1272 216 1272 216 1203 139 c 128,-1,2
 1134 62 1134 62 1030 62 c 0,3,4
 944 62 944 62 878 116 c 0,5,6
 806 176 806 176 806 268 c 1,7,8
 792 250 792 250 779 225 c 128,-1,9
 766 200 766 200 766 178 c 0,10,11
 766 102 766 102 825 52 c 128,-1,12
 884 2 884 2 950 2 c 2,13,-1
 1122 2 l 1,14,-1
 1122 -152 l 1,15,-1
 916 -152 l 1,16,17
 898 -156 898 -156 888 -158 c 0,18,19
 820 -176 820 -176 794 -216 c 0,20,21
 786 -230 786 -230 763 -274 c 128,-1,22
 740 -318 740 -318 692 -386 c 0,23,24
 662 -430 662 -430 597 -453 c 128,-1,25
 532 -476 532 -476 456 -476 c 0,26,27
 338 -476 338 -476 264 -424 c 0,28,29
 172 -360 172 -360 172 -234 c 0,30,31
 172 -162 172 -162 227 -101 c 128,-1,32
 282 -40 282 -40 360 -40 c 0,33,34
 446 -40 446 -40 501 -93 c 128,-1,35
 556 -146 556 -146 556 -228 c 0,36,37
 556 -280 556 -280 542 -310 c 128,-1,38
 528 -340 528 -340 502 -360 c 1,39,40
 530 -356 530 -356 550 -346 c 0,41,42
 580 -330 580 -330 600 -301 c 128,-1,43
 620 -272 620 -272 640 -240 c 128,-1,44
 660 -208 660 -208 674 -174 c 128,-1,45
 688 -140 688 -140 713 -120 c 128,-1,46
 738 -100 738 -100 792 -80 c 1,47,48
 738 -56 738 -56 694 -2 c 0,49,50
 632 76 632 76 632 178 c 0,51,52
 632 334 632 334 790 408 c 0,53,54
 842 432 842 432 948 450 c 1,55,56
 940 438 940 438 938 428 c 0,57,58
 926 394 926 394 926 360 c 0,59,60
 926 344 926 344 926 334 c 128,-1,61
 926 324 926 324 934 291 c 128,-1,62
 942 258 942 258 969 231 c 128,-1,63
 996 204 996 204 1030 204 c 0,64,65
 1124 204 1124 204 1124 310 c 0,66,67
 1124 484 1124 484 979 595 c 128,-1,68
 834 706 834 706 616 706 c 0,69,70
 412 706 412 706 288 602 c 0,71,72
 198 526 198 526 160 406 c 0,73,74
 154 384 154 384 152 364 c 128,-1,75
 150 344 150 344 150 320 c 0,76,77
 150 282 150 282 156 254 c 1,78,79
 156 340 156 340 206 396 c 128,-1,80
 256 452 256 452 346 452 c 0,81,82
 454 452 454 452 510 384 c 0,83,84
 560 322 560 322 560 222 c 0,85,86
 560 130 560 130 493 69 c 128,-1,87
 426 8 426 8 338 8 c 0,88,89
 186 8 186 8 98 116 c 0,90,91
 22 210 22 210 22 336 c 0,92,93
 22 554 22 554 197 699 c 128,-1,94
 372 844 372 844 624 844 c 0,95,96
 880 844 880 844 1070 702 c 0,97,98
 1272 550 1272 550 1272 320 c 0,0,1
418 228 m 0,99,100
 418 270 418 270 404 296 c 0,101,102
 384 330 384 330 346 330 c 256,103,104
 308 330 308 330 288 300 c 128,-1,105
 268 270 268 270 268 230 c 0,106,107
 268 194 268 194 288 166 c 128,-1,108
 308 138 308 138 344 138 c 0,109,110
 378 138 378 138 398 166 c 128,-1,111
 418 194 418 194 418 228 c 0,99,100
432 -244 m 0,112,113
 432 -212 432 -212 415 -188 c 128,-1,114
 398 -164 398 -164 366 -164 c 0,115,116
 332 -164 332 -164 314 -190 c 128,-1,117
 296 -216 296 -216 296 -244 c 256,118,119
 296 -272 296 -272 313 -301 c 128,-1,120
 330 -330 330 -330 368 -330 c 0,121,122
 402 -330 402 -330 417 -307 c 128,-1,123
 432 -284 432 -284 432 -244 c 0,112,113
EndSplineSet
EndChar

StartChar: tm_au
Encoding: 2964 2964 61
Width: 2842
GlyphClass: 2
Flags: W
LayerCount: 2
Fore
SplineSet
2754 694 m 1,0,-1
 2572 694 l 1,1,-1
 2572 2 l 1,2,-1
 2418 2 l 1,3,-1
 2418 694 l 1,4,-1
 2222 694 l 1,5,-1
 2222 2 l 1,6,-1
 2068 2 l 1,7,-1
 2068 536 l 1,8,9
 2030 592 2030 592 2000 618 c 0,10,11
 1904 702 1904 702 1778 702 c 0,12,13
 1654 702 1654 702 1574 598 c 0,14,15
 1504 506 1504 506 1504 396 c 0,16,17
 1504 352 1504 352 1513 310 c 128,-1,18
 1522 268 1522 268 1534 246 c 1,19,-1
 1532 272 l 1,20,21
 1532 356 1532 356 1595 429 c 128,-1,22
 1658 502 1658 502 1752 502 c 0,23,24
 1860 502 1860 502 1919 426 c 128,-1,25
 1978 350 1978 350 1978 232 c 0,26,27
 1978 132 1978 132 1910 62 c 128,-1,28
 1842 -8 1842 -8 1734 -8 c 0,29,30
 1574 -8 1574 -8 1466 112 c 128,-1,31
 1358 232 1358 232 1358 400 c 0,32,33
 1358 602 1358 602 1486 728 c 0,34,35
 1606 846 1606 846 1782 846 c 0,36,37
 1884 846 1884 846 1970 806 c 0,38,39
 2024 780 2024 780 2068 742 c 1,40,-1
 2068 846 l 1,41,-1
 2754 846 l 1,42,-1
 2754 694 l 1,0,-1
1830 252 m 0,43,44
 1830 302 1830 302 1810 335 c 128,-1,45
 1790 368 1790 368 1748 368 c 0,46,47
 1708 368 1708 368 1686 335 c 128,-1,48
 1664 302 1664 302 1664 252 c 0,49,50
 1664 198 1664 198 1682 164 c 128,-1,51
 1700 130 1700 130 1742 130 c 0,52,53
 1788 130 1788 130 1809 164 c 128,-1,54
 1830 198 1830 198 1830 252 c 0,43,44
1295 320 m 0,55,56
 1295 214 1295 214 1229 140 c 128,-1,57
 1163 66 1163 66 1057 66 c 0,58,59
 965 66 965 66 903 114 c 0,60,61
 831 170 831 170 831 264 c 1,62,63
 813 238 813 238 803 218 c 128,-1,64
 793 198 793 198 793 174 c 0,65,66
 793 88 793 88 853 42 c 0,67,68
 905 2 905 2 975 2 c 2,69,-1
 1205 2 l 1,70,-1
 1205 -152 l 1,71,-1
 967 -152 l 1,72,73
 959 -156 959 -156 953 -158 c 0,74,75
 913 -180 913 -180 879 -222 c 0,76,77
 859 -250 859 -250 824 -300 c 128,-1,78
 789 -350 789 -350 781 -362 c 0,79,80
 737 -434 737 -434 665 -462 c 0,81,82
 613 -482 613 -482 529 -482 c 0,83,84
 409 -482 409 -482 329 -426 c 0,85,86
 237 -362 237 -362 237 -248 c 0,87,88
 237 -126 237 -126 357 -68 c 0,89,90
 397 -50 397 -50 477 -34 c 1,91,-1
 477 -172 l 1,92,93
 445 -172 445 -172 431 -178 c 0,94,95
 383 -196 383 -196 383 -250 c 256,96,97
 383 -304 383 -304 420 -324 c 128,-1,98
 457 -344 457 -344 529 -344 c 0,99,100
 613 -344 613 -344 653 -302 c 1,101,102
 699 -232 699 -232 737 -178 c 0,103,104
 763 -140 763 -140 785 -123 c 128,-1,105
 807 -106 807 -106 825 -94 c 1,106,107
 739 -50 739 -50 713 -24 c 0,108,109
 647 46 647 46 647 172 c 0,110,111
 647 334 647 334 805 412 c 0,112,113
 857 436 857 436 963 456 c 1,114,115
 959 444 959 444 959 434 c 0,116,117
 953 394 953 394 953 364 c 0,118,119
 953 320 953 320 958 288 c 128,-1,120
 963 256 963 256 986 228 c 128,-1,121
 1009 200 1009 200 1057 200 c 0,122,123
 1099 200 1099 200 1123 230 c 128,-1,124
 1147 260 1147 260 1147 310 c 0,125,126
 1147 484 1147 484 1008 593 c 128,-1,127
 869 702 869 702 661 702 c 0,128,129
 459 702 459 702 325 602 c 0,130,131
 229 530 229 530 187 428 c 0,132,133
 169 380 169 380 169 324 c 0,134,135
 169 286 169 286 177 254 c 1,136,137
 177 338 177 338 230 395 c 128,-1,138
 283 452 283 452 369 452 c 0,139,140
 477 452 477 452 533 384 c 0,141,142
 583 322 583 322 583 222 c 0,143,144
 583 130 583 130 515 69 c 128,-1,145
 447 8 447 8 357 8 c 0,146,147
 203 8 203 8 115 108 c 0,148,149
 37 196 37 196 37 326 c 0,150,151
 37 544 37 544 217 692 c 128,-1,152
 397 840 397 840 673 840 c 0,153,154
 927 840 927 840 1105 700 c 0,155,156
 1295 550 1295 550 1295 320 c 0,55,56
441 228 m 0,157,158
 441 270 441 270 427 296 c 0,159,160
 407 330 407 330 369 330 c 256,161,162
 331 330 331 330 311 300 c 128,-1,163
 291 270 291 270 291 230 c 0,164,165
 291 194 291 194 311 166 c 128,-1,166
 331 138 331 138 367 138 c 0,167,168
 401 138 401 138 421 166 c 128,-1,169
 441 194 441 194 441 228 c 0,157,158
EndSplineSet
EndChar

StartChar: tm_ka
Encoding: 2965 2965 62
Width: 1140
GlyphClass: 2
Flags: W
LayerCount: 2
Fore
SplineSet
1018 254 m 0,0,1
 1018 116 1018 116 930 48 c 0,2,3
 868 0 868 0 798 0 c 0,4,5
 762 0 762 0 724 10 c 0,6,7
 712 12 712 12 694 20 c 1,8,-1
 730 154 l 1,9,10
 744 150 744 150 761 146 c 128,-1,11
 778 142 778 142 798 142 c 0,12,13
 826 142 826 142 844 174 c 128,-1,14
 862 206 862 206 862 248 c 0,15,16
 862 322 862 322 824 346 c 0,17,18
 804 358 804 358 766 358 c 2,19,-1
 688 358 l 1,20,-1
 688 276 l 2,21,22
 688 170 688 170 634 102 c 0,23,24
 554 0 554 0 374 0 c 0,25,26
 236 0 236 0 138 78 c 0,27,28
 30 164 30 164 30 296 c 0,29,30
 30 380 30 380 86 436 c 0,31,32
 150 498 150 498 240 508 c 1,33,-1
 240 844 l 1,34,-1
 1000 844 l 1,35,-1
 1000 692 l 1,36,-1
 688 692 l 1,37,-1
 688 512 l 1,38,-1
 762 512 l 2,39,40
 878 512 878 512 948 442 c 128,-1,41
 1018 372 1018 372 1018 254 c 0,0,1
534 512 m 1,42,-1
 534 692 l 1,43,-1
 394 692 l 1,44,-1
 394 512 l 1,45,-1
 534 512 l 1,42,-1
534 270 m 2,46,-1
 534 358 l 1,47,-1
 276 358 l 2,48,49
 228 358 228 358 206 342 c 128,-1,50
 184 326 184 326 184 294 c 0,51,52
 184 226 184 226 237 183 c 128,-1,53
 290 140 290 140 372 140 c 0,54,55
 448 140 448 140 491 180 c 128,-1,56
 534 220 534 220 534 270 c 2,46,-1
EndSplineSet
EndChar

StartChar: tm_nga
Encoding: 2969 2969 63
Width: 1320
GlyphClass: 2
Flags: W
LayerCount: 2
Fore
SplineSet
1214 0 m 1,0,-1
 366 0 l 1,1,-1
 366 154 l 1,2,-1
 656 154 l 1,3,4
 684 166 684 166 696 178 c 0,5,6
 738 220 738 220 738 296 c 0,7,8
 738 342 738 342 705 375 c 128,-1,9
 672 408 672 408 636 408 c 0,10,11
 566 408 566 408 536 382 c 0,12,13
 526 374 526 374 518 354 c 1,14,-1
 518 230 l 1,15,-1
 364 230 l 1,16,-1
 364 692 l 1,17,-1
 182 692 l 1,18,-1
 182 0 l 1,19,-1
 30 0 l 1,20,-1
 30 844 l 1,21,-1
 792 844 l 1,22,-1
 792 692 l 1,23,-1
 518 692 l 1,24,-1
 518 510 l 1,25,26
 544 522 544 522 572 536 c 0,27,28
 604 548 604 548 642 548 c 0,29,30
 766 548 766 548 838 470 c 0,31,32
 902 400 902 400 902 298 c 0,33,34
 902 242 902 242 888 209 c 128,-1,35
 874 176 874 176 852 154 c 1,36,-1
 1062 154 l 1,37,-1
 1062 844 l 1,38,-1
 1214 844 l 1,39,-1
 1214 0 l 1,0,-1
EndSplineSet
EndChar

StartChar: tm_ca
Encoding: 2970 2970 64
Width: 1010
GlyphClass: 2
Flags: W
LayerCount: 2
Fore
SplineSet
902 358 m 1,0,-1
 688 358 l 1,1,-1
 688 276 l 2,2,3
 688 174 688 174 628 102 c 0,4,5
 544 0 544 0 374 0 c 0,6,7
 234 0 234 0 136 78 c 0,8,9
 30 162 30 162 30 296 c 0,10,11
 30 382 30 382 84 436 c 0,12,13
 148 498 148 498 240 508 c 1,14,-1
 240 844 l 1,15,-1
 902 844 l 1,16,-1
 902 692 l 1,17,-1
 688 692 l 1,18,-1
 688 512 l 1,19,-1
 902 512 l 1,20,-1
 902 358 l 1,0,-1
534 512 m 1,21,-1
 534 692 l 1,22,-1
 394 692 l 1,23,-1
 394 512 l 1,24,-1
 534 512 l 1,21,-1
534 270 m 2,25,-1
 534 358 l 1,26,-1
 276 358 l 2,27,28
 238 358 238 358 213 347 c 128,-1,29
 188 336 188 336 188 294 c 0,30,31
 188 224 188 224 239 182 c 128,-1,32
 290 140 290 140 372 140 c 0,33,34
 446 140 446 140 490 180 c 128,-1,35
 534 220 534 220 534 270 c 2,25,-1
EndSplineSet
EndChar

StartChar: tm_ja
Encoding: 2972 2972 65
Width: 2080
GlyphClass: 2
Flags: W
LayerCount: 2
Fore
SplineSet
1976 0 m 1,0,-1
 1638 0 l 1,1,-1
 1638 -446 l 1,2,-1
 1484 -446 l 1,3,-1
 1484 0 l 1,4,-1
 756 0 l 1,5,-1
 756 112 l 1,6,7
 772 130 772 130 782 144 c 0,8,9
 844 236 844 236 844 380 c 0,10,11
 844 522 844 522 745 619 c 128,-1,12
 646 716 646 716 512 716 c 0,13,14
 372 716 372 716 268 620 c 128,-1,15
 164 524 164 524 164 390 c 0,16,17
 164 314 164 314 178 272 c 128,-1,18
 192 230 192 230 214 204 c 1,19,20
 210 214 210 214 208 225 c 128,-1,21
 206 236 206 236 206 256 c 0,22,23
 206 350 206 350 264 420 c 0,24,25
 330 500 330 500 444 500 c 0,26,27
 562 500 562 500 627 431 c 128,-1,28
 692 362 692 362 692 246 c 0,29,30
 692 126 692 126 618 56 c 128,-1,31
 544 -14 544 -14 436 -14 c 0,32,33
 258 -14 258 -14 143 103 c 128,-1,34
 28 220 28 220 28 390 c 0,35,36
 28 580 28 580 171 715 c 128,-1,37
 314 850 314 850 514 850 c 0,38,39
 716 850 716 850 853 719 c 128,-1,40
 990 588 990 588 990 392 c 0,41,42
 990 308 990 308 978 253 c 128,-1,43
 966 198 966 198 944 154 c 1,44,-1
 1484 154 l 1,45,-1
 1484 254 l 1,46,-1
 1424 250 l 1,47,48
 1324 250 1324 250 1232 304 c 0,49,50
 1098 384 1098 384 1098 544 c 0,51,52
 1098 670 1098 670 1177 757 c 128,-1,53
 1256 844 1256 844 1394 844 c 0,54,55
 1492 844 1492 844 1565 773 c 128,-1,56
 1638 702 1638 702 1638 602 c 2,57,-1
 1638 420 l 1,58,59
 1690 436 1690 436 1716 444 c 128,-1,60
 1742 452 1742 452 1750 458 c 0,61,62
 1770 472 1770 472 1812 516 c 0,63,64
 1826 530 1826 530 1852 560 c 1,65,-1
 1976 560 l 1,66,-1
 1976 0 l 1,0,-1
1824 154 m 1,67,-1
 1824 340 l 1,68,-1
 1746 302 l 2,69,70
 1736 298 1736 298 1699 287 c 128,-1,71
 1662 276 1662 276 1638 276 c 1,72,-1
 1638 154 l 1,73,-1
 1824 154 l 1,67,-1
1484 388 m 1,74,-1
 1484 592 l 2,75,76
 1484 642 1484 642 1458 674 c 128,-1,77
 1432 706 1432 706 1382 706 c 0,78,79
 1316 706 1316 706 1277 663 c 128,-1,80
 1238 620 1238 620 1238 546 c 0,81,82
 1238 468 1238 468 1300 422 c 0,83,84
 1354 382 1354 382 1422 382 c 0,85,86
 1454 382 1454 382 1484 388 c 1,74,-1
556 234 m 0,87,88
 556 298 556 298 525 337 c 128,-1,89
 494 376 494 376 444 376 c 0,90,91
 390 376 390 376 358 336 c 128,-1,92
 326 296 326 296 326 240 c 0,93,94
 326 192 326 192 357 155 c 128,-1,95
 388 118 388 118 438 118 c 0,96,97
 484 118 484 118 520 152 c 128,-1,98
 556 186 556 186 556 234 c 0,87,88
EndSplineSet
EndChar

StartChar: tm_nya
Encoding: 2974 2974 66
Width: 1740
GlyphClass: 2
Flags: W
LayerCount: 2
Fore
SplineSet
1628 188 m 0,0,1
 1628 62 1628 62 1585 -39 c 128,-1,2
 1542 -140 1542 -140 1450 -230 c 0,3,4
 1338 -340 1338 -340 1194 -397 c 128,-1,5
 1050 -454 1050 -454 894 -454 c 0,6,7
 728 -454 728 -454 586 -406 c 0,8,9
 420 -350 420 -350 288 -230 c 0,10,11
 174 -122 174 -122 106 22 c 0,12,13
 32 180 32 180 32 356 c 0,14,15
 32 494 32 494 58 597 c 128,-1,16
 84 700 84 700 160 812 c 2,17,-1
 176 836 l 1,18,-1
 296 760 l 1,19,-1
 276 734 l 2,20,21
 234 674 234 674 210 588 c 0,22,23
 180 482 180 482 180 348 c 0,24,25
 180 216 180 216 250 76 c 0,26,27
 314 -54 314 -54 404 -130 c 0,28,29
 504 -216 504 -216 632 -266 c 128,-1,30
 760 -316 760 -316 898 -316 c 0,31,32
 1022 -316 1022 -316 1152 -261 c 128,-1,33
 1282 -206 1282 -206 1349 -132 c 128,-1,34
 1416 -58 1416 -58 1442 4 c 0,35,36
 1476 84 1476 84 1476 198 c 0,37,38
 1476 256 1476 256 1446 310 c 0,39,40
 1408 378 1408 378 1344 378 c 0,41,42
 1292 378 1292 378 1262 336 c 0,43,44
 1252 322 1252 322 1242 292 c 1,45,-1
 1242 0 l 1,46,-1
 1090 0 l 1,47,-1
 1090 692 l 1,48,-1
 708 692 l 1,49,50
 614 676 614 676 568 650 c 0,51,52
 426 566 426 566 426 366 c 0,53,54
 426 314 426 314 437 278 c 128,-1,55
 448 242 448 242 464 218 c 1,56,-1
 458 286 l 1,57,58
 458 370 458 370 520 436 c 0,59,60
 590 510 590 510 694 510 c 0,61,62
 804 510 804 510 872 424 c 0,63,64
 932 348 932 348 932 244 c 0,65,66
 932 152 932 152 862 82 c 0,67,68
 784 4 784 4 662 4 c 0,69,70
 494 4 494 4 388 106 c 128,-1,71
 282 208 282 208 282 372 c 0,72,73
 282 580 282 580 410 702 c 0,74,75
 504 790 504 790 652 826 c 0,76,77
 726 844 726 844 782 844 c 2,78,-1
 1584 844 l 1,79,-1
 1584 692 l 1,80,-1
 1242 692 l 1,81,-1
 1242 486 l 1,82,83
 1276 504 1276 504 1300 511 c 128,-1,84
 1324 518 1324 518 1346 518 c 0,85,86
 1466 518 1466 518 1547 425 c 128,-1,87
 1628 332 1628 332 1628 188 c 0,0,1
780 256 m 0,88,89
 780 308 780 308 756 343 c 128,-1,90
 732 378 732 378 684 378 c 0,91,92
 634 378 634 378 606 344 c 128,-1,93
 578 310 578 310 578 262 c 256,94,95
 578 214 578 214 604 180 c 128,-1,96
 630 146 630 146 674 146 c 0,97,98
 720 146 720 146 750 178 c 128,-1,99
 780 210 780 210 780 256 c 0,88,89
EndSplineSet
EndChar

StartChar: tm_tta
Encoding: 2975 2975 67
Width: 1350
GlyphClass: 2
Flags: W
LayerCount: 2
Fore
SplineSet
1226 0 m 1,0,-1
 30 0 l 1,1,-1
 30 844 l 1,2,-1
 182 844 l 1,3,-1
 182 154 l 1,4,-1
 1226 154 l 1,5,-1
 1226 0 l 1,0,-1
EndSplineSet
EndChar

StartChar: tm_nna
Encoding: 2979 2979 68
Width: 2230
GlyphClass: 2
Flags: W
LayerCount: 2
Fore
SplineSet
2106 692 m 1,0,-1
 1864 692 l 1,1,-1
 1864 0 l 1,2,-1
 1710 0 l 1,3,-1
 1710 692 l 1,4,-1
 1624 692 l 1,5,-1
 1544 690 l 1,6,-1
 1488 674 l 1,7,8
 1540 596 1540 596 1572 508 c 128,-1,9
 1604 420 1604 420 1604 356 c 0,10,11
 1604 196 1604 196 1560 106 c 0,12,13
 1508 0 1508 0 1394 0 c 0,14,15
 1282 0 1282 0 1226 110 c 0,16,17
 1178 204 1178 204 1178 352 c 0,18,19
 1178 454 1178 454 1224 562 c 0,20,21
 1252 630 1252 630 1290 678 c 1,22,23
 1248 692 1248 692 1209 699 c 128,-1,24
 1170 706 1170 706 1142 706 c 0,25,26
 1108 706 1108 706 1062 695 c 128,-1,27
 1016 684 1016 684 994 676 c 1,28,29
 1008 660 1008 660 1036 596 c 0,30,31
 1100 448 1100 448 1100 338 c 0,32,33
 1100 178 1100 178 1054 94 c 0,34,35
 1002 0 1002 0 892 0 c 0,36,37
 790 0 790 0 732 108 c 0,38,39
 682 202 682 202 682 340 c 0,40,41
 682 402 682 402 711 491 c 128,-1,42
 740 580 740 580 790 672 c 1,43,44
 758 688 758 688 687 698 c 128,-1,45
 616 708 616 708 546 708 c 0,46,47
 368 708 368 708 264 594 c 0,48,49
 168 490 168 490 168 334 c 0,50,51
 168 312 168 312 172 289 c 128,-1,52
 176 266 176 266 180 254 c 1,53,54
 180 354 180 354 234 422 c 0,55,56
 296 500 296 500 396 500 c 0,57,58
 500 500 500 500 562 412 c 0,59,60
 616 336 616 336 616 236 c 0,61,62
 616 132 616 132 548 64 c 128,-1,63
 480 -4 480 -4 380 -4 c 0,64,65
 246 -4 246 -4 144 92 c 0,66,67
 32 198 32 198 32 362 c 0,68,69
 32 558 32 558 174 696 c 0,70,71
 326 844 326 844 558 844 c 0,72,73
 664 844 664 844 755 822 c 128,-1,74
 846 800 846 800 888 772 c 1,75,76
 922 796 922 796 998 820 c 128,-1,77
 1074 844 1074 844 1144 844 c 0,78,79
 1206 844 1206 844 1275 825 c 128,-1,80
 1344 806 1344 806 1392 776 c 1,81,82
 1410 790 1410 790 1440 805 c 128,-1,83
 1470 820 1470 820 1491 826 c 128,-1,84
 1512 832 1512 832 1566 838 c 128,-1,85
 1620 844 1620 844 1648 844 c 2,86,-1
 2106 844 l 1,87,-1
 2106 692 l 1,0,-1
1460 356 m 2,88,89
 1460 426 1460 426 1430 504 c 0,90,91
 1412 554 1412 554 1384 594 c 1,92,93
 1352 530 1352 530 1334 464 c 128,-1,94
 1316 398 1316 398 1316 348 c 0,95,96
 1316 248 1316 248 1324 212 c 0,97,98
 1340 140 1340 140 1390 140 c 0,99,100
 1424 140 1424 140 1442 175 c 128,-1,101
 1460 210 1460 210 1460 312 c 2,102,-1
 1460 356 l 2,88,89
960 342 m 0,103,104
 960 396 960 396 932 476 c 0,105,106
 918 516 918 516 890 578 c 1,107,108
 860 516 860 516 842 450 c 128,-1,109
 824 384 824 384 824 342 c 0,110,111
 824 250 824 250 835 194 c 128,-1,112
 846 138 846 138 892 138 c 0,113,114
 942 138 942 138 954 240 c 0,115,116
 960 290 960 290 960 342 c 0,103,104
472 250 m 0,117,118
 472 302 472 302 451 336 c 128,-1,119
 430 370 430 370 386 370 c 0,120,121
 348 370 348 370 323 332 c 128,-1,122
 298 294 298 294 298 250 c 0,123,124
 298 204 298 204 321 172 c 128,-1,125
 344 140 344 140 386 140 c 0,126,127
 426 140 426 140 449 170 c 128,-1,128
 472 200 472 200 472 250 c 0,117,118
EndSplineSet
EndChar

StartChar: tm_ta
Encoding: 2980 2980 69
Width: 1160
GlyphClass: 2
Flags: W
LayerCount: 2
Fore
SplineSet
1052 194 m 0,0,1
 1052 -20 1052 -20 902 -148 c 0,2,3
 780 -252 780 -252 636 -252 c 2,4,-1
 252 -252 l 2,5,6
 222 -252 222 -252 208 -256 c 0,7,8
 164 -272 164 -272 164 -334 c 0,9,10
 164 -370 164 -370 178 -392 c 0,11,12
 182 -398 182 -398 192 -406 c 2,13,-1
 212 -420 l 1,14,-1
 124 -524 l 1,15,-1
 96 -506 l 1,16,17
 16 -460 16 -460 16 -318 c 0,18,19
 16 -218 16 -218 83 -158 c 128,-1,20
 150 -98 150 -98 248 -98 c 2,21,-1
 632 -98 l 2,22,23
 752 -98 752 -98 822 -10 c 0,24,25
 884 68 884 68 884 186 c 0,26,27
 884 256 884 256 856 302 c 0,28,29
 822 358 822 358 762 358 c 2,30,-1
 694 358 l 1,31,-1
 694 276 l 2,32,33
 694 156 694 156 620 82 c 0,34,35
 538 0 538 0 380 0 c 0,36,37
 244 0 244 0 146 78 c 0,38,39
 40 162 40 162 40 296 c 0,40,41
 40 408 40 408 128 466 c 0,42,43
 178 500 178 500 246 510 c 1,44,-1
 246 844 l 1,45,-1
 968 844 l 1,46,-1
 968 692 l 1,47,-1
 694 692 l 1,48,-1
 694 512 l 1,49,-1
 760 512 l 2,50,51
 898 512 898 512 982 400 c 0,52,53
 1052 306 1052 306 1052 194 c 0,0,1
540 512 m 1,54,-1
 540 692 l 1,55,-1
 400 692 l 1,56,-1
 400 512 l 1,57,-1
 540 512 l 1,54,-1
540 270 m 2,58,-1
 540 358 l 1,59,-1
 282 358 l 2,60,61
 234 358 234 358 212 342 c 128,-1,62
 190 326 190 326 190 294 c 0,63,64
 190 226 190 226 243 183 c 128,-1,65
 296 140 296 140 378 140 c 0,66,67
 454 140 454 140 497 180 c 128,-1,68
 540 220 540 220 540 270 c 2,58,-1
EndSplineSet
EndChar

StartChar: tm_na
Encoding: 2984 2984 70
Width: 1130
GlyphClass: 2
Flags: W
LayerCount: 2
Fore
SplineSet
1024 230 m 0,0,1
 1024 10 1024 10 906 -121 c 128,-1,2
 788 -252 788 -252 616 -252 c 2,3,-1
 240 -252 l 2,4,5
 210 -252 210 -252 196 -256 c 0,6,7
 150 -274 150 -274 150 -334 c 0,8,9
 150 -372 150 -372 164 -392 c 0,10,11
 168 -398 168 -398 180 -406 c 2,12,-1
 198 -420 l 1,13,-1
 110 -524 l 1,14,-1
 80 -506 l 2,15,16
 2 -460 2 -460 2 -318 c 0,17,18
 2 -218 2 -218 69 -158 c 128,-1,19
 136 -98 136 -98 234 -98 c 2,20,-1
 650 -98 l 2,21,22
 752 -98 752 -98 810 6 c 0,23,24
 862 98 862 98 862 218 c 0,25,26
 862 296 862 296 834 356 c 0,27,28
 798 432 798 432 734 432 c 0,29,30
 684 432 684 432 652 406 c 0,31,32
 640 396 640 396 622 370 c 1,33,-1
 622 0 l 1,34,-1
 468 0 l 1,35,-1
 468 692 l 1,36,-1
 288 692 l 1,37,-1
 288 0 l 1,38,-1
 136 0 l 1,39,-1
 136 844 l 1,40,-1
 954 844 l 1,41,-1
 954 692 l 1,42,-1
 622 692 l 1,43,-1
 622 548 l 1,44,45
 644 556 644 556 673 564 c 128,-1,46
 702 572 702 572 734 572 c 0,47,48
 864 572 864 572 944 472 c 128,-1,49
 1024 372 1024 372 1024 230 c 0,0,1
EndSplineSet
EndChar

StartChar: tm_nnna
Encoding: 2985 2985 71
Width: 1690
GlyphClass: 2
Flags: W
LayerCount: 2
Fore
SplineSet
1574 692 m 1,0,-1
 1418 692 l 1,1,-1
 1418 0 l 1,2,-1
 1264 0 l 1,3,-1
 1264 692 l 1,4,-1
 1168 692 l 2,5,6
 1150 692 1150 692 1136 692 c 128,-1,7
 1122 692 1122 692 1098 686 c 2,8,-1
 1040 664 l 1,9,10
 1080 606 1080 606 1098 566 c 0,11,12
 1158 442 1158 442 1158 326 c 0,13,14
 1158 148 1158 148 1108 66 c 128,-1,15
 1058 -16 1058 -16 940 -16 c 0,16,17
 828 -16 828 -16 770 94 c 0,18,19
 720 188 720 188 720 330 c 0,20,21
 720 410 720 410 766 522 c 0,22,23
 786 568 786 568 830 654 c 1,24,25
 782 678 782 678 711 692 c 128,-1,26
 640 706 640 706 564 706 c 0,27,28
 380 706 380 706 264 600 c 0,29,30
 156 502 156 502 156 364 c 0,31,32
 156 316 156 316 161 290 c 128,-1,33
 166 264 166 264 178 234 c 1,34,-1
 174 266 l 1,35,36
 174 380 174 380 262 444 c 0,37,38
 330 494 330 494 404 494 c 0,39,40
 514 494 514 494 582 422 c 128,-1,41
 650 350 650 350 650 244 c 0,42,43
 650 132 650 132 590 60 c 0,44,45
 524 -20 524 -20 400 -20 c 0,46,47
 246 -20 246 -20 135 93 c 128,-1,48
 24 206 24 206 24 376 c 0,49,50
 24 572 24 572 176 710 c 128,-1,51
 328 848 328 848 562 848 c 0,52,53
 704 848 704 848 816 810 c 0,54,55
 878 790 878 790 924 758 c 1,56,57
 948 780 948 780 958 786 c 0,58,59
 984 806 984 806 1006 814 c 0,60,61
 1052 832 1052 832 1087 837 c 128,-1,62
 1122 842 1122 842 1172 842 c 2,63,-1
 1574 842 l 1,64,-1
 1574 692 l 1,0,-1
1008 330 m 0,65,66
 1008 390 1008 390 982 464 c 0,67,68
 966 508 966 508 942 554 c 1,69,70
 922 518 922 518 900 458 c 0,71,72
 870 376 870 376 870 332 c 0,73,74
 870 242 870 242 885 181 c 128,-1,75
 900 120 900 120 940 120 c 0,76,77
 990 120 990 120 1002 226 c 0,78,79
 1008 278 1008 278 1008 330 c 0,65,66
508 234 m 0,80,81
 508 288 508 288 480 325 c 128,-1,82
 452 362 452 362 404 362 c 0,83,84
 360 362 360 362 331 327 c 128,-1,85
 302 292 302 292 302 242 c 0,86,87
 302 188 302 188 329 150 c 128,-1,88
 356 112 356 112 402 112 c 0,89,90
 444 112 444 112 476 148 c 128,-1,91
 508 184 508 184 508 234 c 0,80,81
EndSplineSet
EndChar

StartChar: tm_pa
Encoding: 2986 2986 72
Width: 1140
GlyphClass: 2
Flags: W
LayerCount: 2
Fore
SplineSet
1020 0 m 1,0,-1
 28 0 l 1,1,-1
 28 844 l 1,2,-1
 180 844 l 1,3,-1
 180 154 l 1,4,-1
 864 154 l 1,5,-1
 864 844 l 1,6,-1
 1020 844 l 1,7,-1
 1020 0 l 1,0,-1
EndSplineSet
EndChar

StartChar: tm_ma
Encoding: 2990 2990 73
Width: 1270
GlyphClass: 2
Flags: W
LayerCount: 2
Fore
SplineSet
1160 350 m 0,0,1
 1160 218 1160 218 1108 132 c 0,2,3
 1028 0 1028 0 844 0 c 2,4,-1
 26 0 l 1,5,-1
 26 844 l 1,6,-1
 178 844 l 1,7,-1
 178 154 l 1,8,-1
 502 154 l 1,9,-1
 502 600 l 2,10,11
 502 702 502 702 574 782 c 128,-1,12
 646 862 646 862 750 862 c 0,13,14
 934 862 934 862 1052 694 c 0,15,16
 1160 542 1160 542 1160 350 c 0,0,1
1004 316 m 0,17,18
 1004 478 1004 478 926 598 c 128,-1,19
 848 718 848 718 754 718 c 0,20,21
 714 718 714 718 686 688 c 128,-1,22
 658 658 658 658 658 612 c 2,23,-1
 658 154 l 1,24,-1
 870 154 l 2,25,26
 934 154 934 154 969 197 c 128,-1,27
 1004 240 1004 240 1004 316 c 0,17,18
EndSplineSet
EndChar

StartChar: tm_ya
Encoding: 2991 2991 74
Width: 1320
GlyphClass: 2
Flags: W
LayerCount: 2
Fore
SplineSet
1206 0 m 1,0,-1
 408 0 l 1,1,-1
 408 100 l 1,2,3
 376 58 376 58 352 40 c 0,4,5
 302 0 302 0 248 0 c 0,6,7
 152 0 152 0 86 76 c 0,8,9
 28 144 28 144 28 230 c 2,10,-1
 28 844 l 1,11,-1
 180 844 l 1,12,-1
 180 242 l 2,13,14
 180 200 180 200 203 171 c 128,-1,15
 226 142 226 142 260 142 c 0,16,17
 344 142 344 142 382 220 c 0,18,19
 394 246 394 246 404 298 c 1,20,-1
 404 844 l 1,21,-1
 558 844 l 1,22,-1
 558 154 l 1,23,-1
 1054 154 l 1,24,-1
 1054 844 l 1,25,-1
 1206 844 l 1,26,-1
 1206 0 l 1,0,-1
EndSplineSet
EndChar

StartChar: tm_ra
Encoding: 2992 2992 75
Width: 940
GlyphClass: 2
Flags: W
LayerCount: 2
Fore
SplineSet
806 692 m 1,0,-1
 578 692 l 1,1,-1
 578 12 l 1,2,3
 532 -14 532 -14 506 -30 c 0,4,5
 428 -82 428 -82 388 -130 c 0,6,7
 350 -170 350 -170 326 -202 c 128,-1,8
 302 -234 302 -234 284 -270 c 2,9,-1
 268 -298 l 1,10,-1
 150 -218 l 1,11,-1
 164 -192 l 2,12,13
 184 -154 184 -154 202 -128 c 0,14,15
 204 -126 204 -126 286 -32 c 0,16,17
 318 4 318 4 364 42 c 0,18,19
 394 64 394 64 424 88 c 1,20,-1
 424 692 l 1,21,-1
 178 692 l 1,22,-1
 178 0 l 1,23,-1
 26 0 l 1,24,-1
 26 844 l 1,25,-1
 806 844 l 1,26,-1
 806 692 l 1,0,-1
EndSplineSet
EndChar

StartChar: tm_rra
Encoding: 2993 2993 76
Width: 1110
GlyphClass: 2
Flags: W
LayerCount: 2
Fore
SplineSet
1002 386 m 0,0,1
 1002 124 1002 124 904 -46 c 0,2,3
 784 -252 784 -252 552 -252 c 2,4,-1
 246 -252 l 2,5,6
 196 -252 196 -252 184 -264 c 0,7,8
 160 -286 160 -286 160 -334 c 0,9,10
 160 -370 160 -370 174 -392 c 0,11,12
 178 -398 178 -398 188 -406 c 2,13,-1
 208 -420 l 1,14,-1
 120 -524 l 1,15,-1
 92 -506 l 1,16,17
 12 -460 12 -460 12 -318 c 0,18,19
 12 -218 12 -218 79 -158 c 128,-1,20
 146 -98 146 -98 244 -98 c 2,21,-1
 550 -98 l 2,22,23
 708 -98 708 -98 784 56 c 0,24,25
 844 178 844 178 844 376 c 0,26,27
 844 562 844 562 798 638 c 0,28,29
 760 702 760 702 686 702 c 0,30,31
 640 702 640 702 609 669 c 128,-1,32
 578 636 578 636 578 584 c 2,33,-1
 578 0 l 1,34,-1
 424 0 l 1,35,-1
 424 590 l 2,36,37
 424 638 424 638 399 670 c 128,-1,38
 374 702 374 702 330 702 c 0,39,40
 278 702 278 702 254 654 c 0,41,42
 240 624 240 624 240 588 c 2,43,-1
 240 0 l 1,44,-1
 88 0 l 1,45,-1
 88 594 l 2,46,47
 88 694 88 694 151 769 c 128,-1,48
 214 844 214 844 320 844 c 0,49,50
 370 844 370 844 418 823 c 128,-1,51
 466 802 466 802 502 760 c 1,52,53
 534 800 534 800 584 822 c 128,-1,54
 634 844 634 844 686 844 c 0,55,56
 846 844 846 844 930 696 c 0,57,58
 1002 570 1002 570 1002 386 c 0,0,1
EndSplineSet
EndChar

StartChar: tm_la
Encoding: 2994 2994 77
Width: 1370
GlyphClass: 2
Flags: W
LayerCount: 2
Fore
SplineSet
1264 442 m 0,0,1
 1264 250 1264 250 1202 142 c 0,2,3
 1122 0 1122 0 936 0 c 0,4,5
 816 0 816 0 746 82 c 0,6,7
 684 156 684 156 684 254 c 2,8,-1
 684 504 l 2,9,10
 684 594 684 594 607 651 c 128,-1,11
 530 708 530 708 440 708 c 0,12,13
 314 708 314 708 244 630 c 0,14,15
 168 544 168 544 168 370 c 0,16,17
 168 318 168 318 179 281 c 128,-1,18
 190 244 190 244 206 216 c 1,19,-1
 204 264 l 2,20,21
 204 328 204 328 260 389 c 128,-1,22
 316 450 316 450 396 450 c 0,23,24
 496 450 496 450 548 386 c 128,-1,25
 600 322 600 322 600 222 c 0,26,27
 600 128 600 128 537 63 c 128,-1,28
 474 -2 474 -2 374 -2 c 0,29,30
 216 -2 216 -2 122 109 c 128,-1,31
 28 220 28 220 28 380 c 0,32,33
 28 588 28 588 146 716 c 128,-1,34
 264 844 264 844 454 844 c 0,35,36
 622 844 622 844 736 740 c 0,37,38
 838 646 838 646 838 536 c 2,39,-1
 838 254 l 2,40,41
 838 208 838 208 866 174 c 128,-1,42
 894 140 894 140 938 140 c 0,43,44
 1046 140 1046 140 1086 222 c 0,45,46
 1118 288 1118 288 1118 438 c 0,47,48
 1118 540 1118 540 1070 624 c 128,-1,49
 1022 708 1022 708 932 766 c 1,50,-1
 888 792 l 1,51,-1
 976 900 l 1,52,-1
 1000 890 l 1,53,54
 1116 830 1116 830 1190 706 c 128,-1,55
 1264 582 1264 582 1264 442 c 0,0,1
466 230 m 0,56,57
 466 278 466 278 448 307 c 128,-1,58
 430 336 430 336 388 336 c 0,59,60
 356 336 356 336 333 305 c 128,-1,61
 310 274 310 274 310 238 c 0,62,63
 310 190 310 190 329 162 c 128,-1,64
 348 134 348 134 390 134 c 0,65,66
 466 134 466 134 466 230 c 0,56,57
EndSplineSet
EndChar

StartChar: tm_lla
Encoding: 2995 2995 78
Width: 1530
GlyphClass: 2
Flags: W
LayerCount: 2
Fore
SplineSet
1420 692 m 1,0,-1
 1238 692 l 1,1,-1
 1238 0 l 1,2,-1
 1084 0 l 1,3,-1
 1084 692 l 1,4,-1
 888 692 l 1,5,-1
 888 0 l 1,6,-1
 734 0 l 1,7,-1
 734 534 l 1,8,9
 696 590 696 590 666 616 c 0,10,11
 570 700 570 700 444 700 c 0,12,13
 320 700 320 700 240 596 c 0,14,15
 170 504 170 504 170 394 c 0,16,17
 170 350 170 350 179 308 c 128,-1,18
 188 266 188 266 200 244 c 1,19,-1
 198 270 l 1,20,21
 198 354 198 354 261 427 c 128,-1,22
 324 500 324 500 418 500 c 0,23,24
 526 500 526 500 585 424 c 128,-1,25
 644 348 644 348 644 230 c 0,26,27
 644 130 644 130 576 60 c 128,-1,28
 508 -10 508 -10 400 -10 c 0,29,30
 240 -10 240 -10 132 110 c 128,-1,31
 24 230 24 230 24 398 c 0,32,33
 24 600 24 600 152 726 c 0,34,35
 272 844 272 844 448 844 c 0,36,37
 550 844 550 844 636 804 c 0,38,39
 690 778 690 778 734 740 c 1,40,-1
 734 844 l 1,41,-1
 1420 844 l 1,42,-1
 1420 692 l 1,0,-1
496 250 m 0,43,44
 496 300 496 300 476 333 c 128,-1,45
 456 366 456 366 414 366 c 0,46,47
 374 366 374 366 352 333 c 128,-1,48
 330 300 330 300 330 250 c 0,49,50
 330 196 330 196 348 162 c 128,-1,51
 366 128 366 128 408 128 c 0,52,53
 454 128 454 128 475 162 c 128,-1,54
 496 196 496 196 496 250 c 0,43,44
EndSplineSet
EndChar

StartChar: tm_llla
Encoding: 2996 2996 79
Width: 1280
GlyphClass: 2
Flags: W
LayerCount: 2
Fore
SplineSet
1170 350 m 0,0,1
 1170 220 1170 220 1118 132 c 0,2,3
 1040 0 1040 0 864 0 c 2,4,-1
 670 0 l 1,5,6
 676 -26 676 -26 681 -38 c 128,-1,7
 686 -50 686 -50 696 -58 c 0,8,9
 722 -82 722 -82 743 -90 c 128,-1,10
 764 -98 764 -98 784 -98 c 2,11,-1
 1020 -98 l 1,12,-1
 1020 -252 l 1,13,-1
 848 -252 l 2,14,15
 786 -252 786 -252 754 -268 c 128,-1,16
 722 -284 722 -284 682 -354 c 128,-1,17
 642 -424 642 -424 582 -466 c 0,18,19
 494 -526 494 -526 360 -526 c 0,20,21
 230 -526 230 -526 142 -466 c 0,22,23
 40 -396 40 -396 40 -268 c 0,24,25
 40 -138 40 -138 154 -90 c 0,26,27
 192 -76 192 -76 270 -68 c 1,28,-1
 440 -68 l 1,29,-1
 440 -222 l 1,30,-1
 276 -222 l 2,31,32
 246 -222 246 -222 232 -224 c 0,33,34
 188 -234 188 -234 188 -274 c 0,35,36
 188 -334 188 -334 250 -362 c 0,37,38
 294 -382 294 -382 358 -382 c 0,39,40
 448 -382 448 -382 498 -346 c 0,41,42
 530 -322 530 -322 576 -250 c 0,43,44
 584 -236 584 -236 611 -215 c 128,-1,45
 638 -194 638 -194 646 -188 c 1,46,47
 618 -174 618 -174 606 -166 c 0,48,49
 576 -146 576 -146 558 -120 c 0,50,51
 504 -50 504 -50 508 0 c 1,52,-1
 30 0 l 1,53,-1
 30 844 l 1,54,-1
 182 844 l 1,55,-1
 182 154 l 1,56,-1
 506 154 l 1,57,-1
 506 604 l 2,58,59
 506 714 506 714 577 793 c 128,-1,60
 648 872 648 872 754 872 c 0,61,62
 944 872 944 872 1064 698 c 0,63,64
 1170 544 1170 544 1170 350 c 0,0,1
1016 320 m 0,65,66
 1016 502 1016 502 949 616 c 128,-1,67
 882 730 882 730 772 730 c 0,68,69
 724 730 724 730 691 695 c 128,-1,70
 658 660 658 660 658 612 c 2,71,-1
 658 154 l 1,72,-1
 870 154 l 2,73,74
 932 154 932 154 974 198 c 128,-1,75
 1016 242 1016 242 1016 320 c 0,65,66
EndSplineSet
EndChar

StartChar: tm_va
Encoding: 2997 2997 80
Width: 1520
GlyphClass: 2
Flags: W
LayerCount: 2
Fore
SplineSet
1412 0 m 1,0,-1
 754 0 l 1,1,-1
 754 112 l 1,2,3
 786 144 786 144 800 172 c 0,4,5
 848 260 848 260 848 380 c 0,6,7
 848 522 848 522 749 619 c 128,-1,8
 650 716 650 716 514 716 c 0,9,10
 376 716 376 716 272 620 c 128,-1,11
 168 524 168 524 168 390 c 0,12,13
 168 318 168 318 182 273 c 128,-1,14
 196 228 196 228 216 204 c 1,15,-1
 210 256 l 1,16,17
 210 348 210 348 270 420 c 0,18,19
 338 500 338 500 448 500 c 0,20,21
 566 500 566 500 630 430 c 128,-1,22
 694 360 694 360 694 246 c 0,23,24
 694 126 694 126 620 56 c 128,-1,25
 546 -14 546 -14 438 -14 c 0,26,27
 260 -14 260 -14 145 103 c 128,-1,28
 30 220 30 220 30 390 c 0,29,30
 30 582 30 582 174 716 c 128,-1,31
 318 850 318 850 516 850 c 0,32,33
 718 850 718 850 855 719 c 128,-1,34
 992 588 992 588 992 392 c 0,35,36
 992 308 992 308 978 254 c 128,-1,37
 964 200 964 200 940 154 c 1,38,-1
 1258 154 l 1,39,-1
 1258 844 l 1,40,-1
 1412 844 l 1,41,-1
 1412 0 l 1,0,-1
558 234 m 0,42,43
 558 298 558 298 527 337 c 128,-1,44
 496 376 496 376 448 376 c 0,45,46
 394 376 394 376 362 336 c 128,-1,47
 330 296 330 296 330 240 c 0,48,49
 330 192 330 192 361 155 c 128,-1,50
 392 118 392 118 440 118 c 0,51,52
 486 118 486 118 522 152 c 128,-1,53
 558 186 558 186 558 234 c 0,42,43
EndSplineSet
EndChar

StartChar: tm_ssa
Encoding: 2999 2999 81
Width: 1370
GlyphClass: 2
Flags: W
LayerCount: 2
Fore
SplineSet
1270 470 m 0,0,1
 1270 298 1270 298 1147 189 c 128,-1,2
 1024 80 1024 80 856 80 c 2,3,-1
 378 80 l 2,4,5
 288 80 288 80 232 8 c 128,-1,6
 176 -64 176 -64 176 -158 c 0,7,8
 176 -242 176 -242 223 -305 c 128,-1,9
 270 -368 270 -368 344 -368 c 0,10,11
 400 -368 400 -368 444 -330 c 0,12,13
 448 -326 448 -326 576 -152 c 0,14,15
 660 -34 660 -34 764 4 c 0,16,17
 830 28 830 28 952 28 c 0,18,19
 1084 28 1084 28 1173 -53 c 128,-1,20
 1262 -134 1262 -134 1262 -242 c 0,21,22
 1262 -354 1262 -354 1204 -426 c 0,23,24
 1132 -514 1132 -514 996 -514 c 0,25,26
 872 -514 872 -514 808 -458 c 0,27,28
 756 -412 756 -412 756 -350 c 0,29,30
 756 -304 756 -304 774 -284 c 0,31,32
 786 -272 786 -272 810 -264 c 0,33,34
 870 -248 870 -248 890 -326 c 0,35,36
 896 -348 896 -348 926 -364 c 128,-1,37
 956 -380 956 -380 990 -378 c 0,38,39
 1054 -378 1054 -378 1083 -341 c 128,-1,40
 1112 -304 1112 -304 1112 -246 c 0,41,42
 1112 -184 1112 -184 1061 -145 c 128,-1,43
 1010 -106 1010 -106 950 -106 c 0,44,45
 864 -106 864 -106 805 -137 c 128,-1,46
 746 -168 746 -168 686 -258 c 1,47,48
 612 -380 612 -380 580 -412 c 0,49,50
 486 -510 486 -510 350 -510 c 0,51,52
 206 -510 206 -510 111 -403 c 128,-1,53
 16 -296 16 -296 16 -152 c 0,54,55
 16 6 16 6 111 120 c 128,-1,56
 206 234 206 234 368 234 c 2,57,-1
 858 234 l 2,58,59
 956 234 956 234 1038 304 c 128,-1,60
 1120 374 1120 374 1120 472 c 0,61,62
 1120 566 1120 566 1072 635 c 128,-1,63
 1024 704 1024 704 942 704 c 0,64,65
 862 704 862 704 811 651 c 128,-1,66
 760 598 760 598 760 512 c 2,67,-1
 760 296 l 1,68,-1
 608 296 l 1,69,-1
 608 514 l 2,70,71
 608 610 608 610 526 664 c 0,72,73
 460 708 460 708 378 708 c 0,74,75
 346 708 346 708 330 705 c 128,-1,76
 314 702 314 702 288 692 c 1,77,78
 330 692 330 692 352 688 c 0,79,80
 414 674 414 674 454 630 c 0,81,82
 504 576 504 576 504 488 c 0,83,84
 504 388 504 388 441 334 c 128,-1,85
 378 280 378 280 282 280 c 0,86,87
 178 280 178 280 110 352 c 128,-1,88
 42 424 42 424 42 532 c 0,89,90
 42 664 42 664 144 754 c 128,-1,91
 246 844 246 844 384 844 c 0,92,93
 488 844 488 844 570 810 c 128,-1,94
 652 776 652 776 688 714 c 1,95,96
 712 760 712 760 756 792 c 0,97,98
 828 844 828 844 928 844 c 0,99,100
 1090 844 1090 844 1184 728 c 0,101,102
 1270 622 1270 622 1270 470 c 0,0,1
366 500 m 0,103,104
 366 536 366 536 341 561 c 128,-1,105
 316 586 316 586 280 586 c 0,106,107
 240 586 240 586 214 562 c 128,-1,108
 188 538 188 538 188 500 c 0,109,110
 188 464 188 464 216 440 c 128,-1,111
 244 416 244 416 280 416 c 0,112,113
 318 416 318 416 342 437 c 128,-1,114
 366 458 366 458 366 500 c 0,103,104
EndSplineSet
EndChar

StartChar: tm_sa
Encoding: 3000 3000 82
Width: 1740
GlyphClass: 2
Flags: W
LayerCount: 2
Fore
SplineSet
1628 422 m 0,0,1
 1628 184 1628 184 1532 84 c 0,2,3
 1452 0 1452 0 1302 0 c 0,4,5
 1194 0 1194 0 1121 75 c 128,-1,6
 1048 150 1048 150 1048 266 c 2,7,-1
 1048 620 l 2,8,9
 1048 644 1048 644 1032 664 c 0,10,11
 1010 694 1010 694 968 694 c 0,12,13
 912 694 912 694 895 660 c 128,-1,14
 878 626 878 626 878 544 c 2,15,-1
 878 0 l 1,16,-1
 724 0 l 1,17,-1
 724 542 l 2,18,19
 724 590 724 590 637 646 c 128,-1,20
 550 702 550 702 452 702 c 0,21,22
 330 702 330 702 251 619 c 128,-1,23
 172 536 172 536 172 400 c 0,24,25
 172 326 172 326 198 250 c 0,26,27
 202 238 202 238 210 220 c 1,28,-1
 206 278 l 1,29,30
 206 370 206 370 265 435 c 128,-1,31
 324 500 324 500 412 500 c 0,32,33
 522 500 522 500 582 420 c 0,34,35
 634 350 634 350 634 242 c 0,36,37
 634 136 634 136 565 67 c 128,-1,38
 496 -2 496 -2 400 -2 c 0,39,40
 228 -2 228 -2 128 112 c 128,-1,41
 28 226 28 226 28 398 c 0,42,43
 28 586 28 586 149 715 c 128,-1,44
 270 844 270 844 452 844 c 0,45,46
 564 844 564 844 658 806 c 0,47,48
 734 776 734 776 776 730 c 1,49,50
 806 782 806 782 842 808 c 0,51,52
 892 844 892 844 962 844 c 0,53,54
 1080 844 1080 844 1146 766 c 0,55,56
 1200 702 1200 702 1200 628 c 2,57,-1
 1200 272 l 2,58,59
 1200 218 1200 218 1225 178 c 128,-1,60
 1250 138 1250 138 1302 138 c 0,61,62
 1400 138 1400 138 1442 218 c 0,63,64
 1478 288 1478 288 1478 432 c 0,65,66
 1478 548 1478 548 1434 638 c 0,67,68
 1398 710 1398 710 1342 748 c 2,69,-1
 1316 766 l 1,70,-1
 1394 886 l 1,71,-1
 1418 868 l 1,72,73
 1520 804 1520 804 1574 684 c 128,-1,74
 1628 564 1628 564 1628 422 c 0,0,1
490 256 m 256,75,76
 490 308 490 308 471 340 c 128,-1,77
 452 372 452 372 412 372 c 0,78,79
 374 372 374 372 350 342 c 128,-1,80
 326 312 326 312 326 266 c 0,81,82
 326 210 326 210 342 173 c 128,-1,83
 358 136 358 136 398 136 c 0,84,85
 446 136 446 136 468 170 c 128,-1,86
 490 204 490 204 490 256 c 256,75,76
EndSplineSet
EndChar

StartChar: tm_ha
Encoding: 3001 3001 83
Width: 2170
GlyphClass: 2
Flags: W
LayerCount: 2
Fore
SplineSet
2052 396 m 0,0,1
 2052 112 2052 112 1934 -52 c 0,2,3
 1844 -176 1844 -176 1692 -224 c 0,4,5
 1604 -252 1604 -252 1502 -252 c 2,6,-1
 292 -252 l 2,7,8
 246 -252 246 -252 238 -256 c 0,9,10
 204 -272 204 -272 204 -334 c 0,11,12
 204 -370 204 -370 218 -392 c 0,13,14
 222 -398 222 -398 232 -406 c 2,15,-1
 250 -420 l 1,16,-1
 164 -524 l 1,17,-1
 134 -506 l 2,18,19
 56 -458 56 -458 56 -318 c 0,20,21
 56 -216 56 -216 121 -157 c 128,-1,22
 186 -98 186 -98 290 -98 c 2,23,-1
 1500 -98 l 2,24,25
 1660 -98 1660 -98 1748 -28 c 0,26,27
 1894 86 1894 86 1894 392 c 0,28,29
 1894 526 1894 526 1841 615 c 128,-1,30
 1788 704 1788 704 1700 704 c 0,31,32
 1632 704 1632 704 1608 660 c 0,33,34
 1594 636 1594 636 1594 594 c 2,35,-1
 1594 0 l 1,36,-1
 1438 0 l 1,37,-1
 1438 602 l 2,38,39
 1438 646 1438 646 1418 674 c 128,-1,40
 1398 702 1398 702 1356 702 c 0,41,42
 1320 702 1320 702 1302 672 c 128,-1,43
 1284 642 1284 642 1284 596 c 2,44,-1
 1284 0 l 1,45,-1
 756 0 l 1,46,-1
 756 106 l 1,47,48
 786 140 786 140 800 168 c 0,49,50
 844 256 844 256 844 380 c 0,51,52
 844 522 844 522 745 619 c 128,-1,53
 646 716 646 716 510 716 c 0,54,55
 372 716 372 716 268 620 c 128,-1,56
 164 524 164 524 164 390 c 0,57,58
 164 318 164 318 178 273 c 128,-1,59
 192 228 192 228 212 204 c 1,60,-1
 206 256 l 1,61,62
 206 348 206 348 266 420 c 0,63,64
 334 500 334 500 444 500 c 0,65,66
 562 500 562 500 626 430 c 128,-1,67
 690 360 690 360 690 246 c 0,68,69
 690 126 690 126 616 56 c 128,-1,70
 542 -14 542 -14 434 -14 c 0,71,72
 256 -14 256 -14 141 103 c 128,-1,73
 26 220 26 220 26 390 c 0,74,75
 26 582 26 582 170 716 c 128,-1,76
 314 850 314 850 512 850 c 0,77,78
 714 850 714 850 851 719 c 128,-1,79
 988 588 988 588 988 392 c 0,80,81
 988 308 988 308 974 254 c 128,-1,82
 960 200 960 200 936 154 c 1,83,-1
 1132 154 l 1,84,-1
 1132 602 l 2,85,86
 1132 710 1132 710 1192 778 c 128,-1,87
 1252 846 1252 846 1350 846 c 0,88,89
 1406 846 1406 846 1450 816 c 0,90,91
 1478 796 1478 796 1506 758 c 1,92,93
 1556 804 1556 804 1604 825 c 128,-1,94
 1652 846 1652 846 1702 846 c 0,95,96
 1858 846 1858 846 1958 714 c 0,97,98
 2052 588 2052 588 2052 396 c 0,0,1
554 234 m 0,99,100
 554 298 554 298 523 337 c 128,-1,101
 492 376 492 376 444 376 c 0,102,103
 390 376 390 376 358 336 c 128,-1,104
 326 296 326 296 326 240 c 0,105,106
 326 192 326 192 357 155 c 128,-1,107
 388 118 388 118 436 118 c 0,108,109
 482 118 482 118 518 152 c 128,-1,110
 554 186 554 186 554 234 c 0,99,100
EndSplineSet
EndChar

StartChar: tm_aakaar
Encoding: 3006 3006 84
Width: 810
GlyphClass: 2
Flags: W
LayerCount: 2
Fore
SplineSet
702 692 m 1,0,-1
 528 692 l 1,1,-1
 528 0 l 1,2,-1
 374 0 l 1,3,-1
 374 692 l 1,4,-1
 174 692 l 1,5,-1
 174 0 l 1,6,-1
 22 0 l 1,7,-1
 22 844 l 1,8,-1
 702 844 l 1,9,-1
 702 692 l 1,0,-1
EndSplineSet
EndChar

StartChar: tm_ikaar
Encoding: 3007 3007 85
Width: 510
GlyphClass: 2
Flags: W
LayerCount: 2
Fore
SplineSet
396 -20 m 1,0,-1
 264 -20 l 1,1,-1
 264 916 l 2,2,3
 264 992 264 992 184 1068 c 0,4,5
 92 1154 92 1154 -44 1170 c 0,6,7
 -56 1172 -56 1172 -80 1172 c 0,8,9
 -184 1172 -184 1172 -269 1117 c 128,-1,10
 -354 1062 -354 1062 -354 984 c 0,11,12
 -354 872 -354 872 -298 828 c 0,13,14
 -262 800 -262 800 -180 792 c 1,15,-1
 -186 718 l 1,16,17
 -334 718 -334 718 -412 778 c 128,-1,18
 -490 838 -490 838 -490 944 c 0,19,20
 -490 968 -490 968 -488 982 c 0,21,22
 -472 1120 -472 1120 -348 1208 c 128,-1,23
 -224 1296 -224 1296 -46 1296 c 0,24,25
 172 1296 172 1296 300 1140 c 0,26,27
 396 1024 396 1024 396 914 c 2,28,-1
 396 -20 l 1,0,-1
EndSplineSet
EndChar

StartChar: tm_iikaar
Encoding: 3008 3008 86
Width: 102
GlyphClass: 4
Flags: W
LayerCount: 2
Fore
SplineSet
52 1180 m 0,0,1
 52 1094 52 1094 -2 1028 c 128,-1,2
 -56 962 -56 962 -140 962 c 0,3,4
 -222 962 -222 962 -281 1012 c 128,-1,5
 -340 1062 -340 1062 -356 1144 c 0,6,7
 -362 1180 -362 1180 -360 1204 c 1,8,9
 -388 1172 -388 1172 -398 1137 c 128,-1,10
 -408 1102 -408 1102 -408 1050 c 0,11,12
 -408 940 -408 940 -312 860 c 0,13,14
 -234 796 -234 796 -152 788 c 1,15,-1
 -142 720 l 1,16,17
 -246 720 -246 720 -370 794 c 0,18,19
 -536 892 -536 892 -536 1054 c 0,20,21
 -536 1212 -536 1212 -433 1309 c 128,-1,22
 -330 1406 -330 1406 -168 1406 c 0,23,24
 -68 1406 -68 1406 -8 1340 c 128,-1,25
 52 1274 52 1274 52 1180 c 0,0,1
-70 1176 m 0,26,27
 -70 1220 -70 1220 -95 1255 c 128,-1,28
 -120 1290 -120 1290 -160 1286 c 0,29,30
 -196 1286 -196 1286 -217 1253 c 128,-1,31
 -238 1220 -238 1220 -238 1178 c 0,32,33
 -238 1138 -238 1138 -211 1109 c 128,-1,34
 -184 1080 -184 1080 -142 1080 c 0,35,36
 -114 1080 -114 1080 -92 1111 c 128,-1,37
 -70 1142 -70 1142 -70 1176 c 0,26,27
EndSplineSet
EndChar

StartChar: tm_ukaar
Encoding: 3009 3009 87
Width: 759
GlyphClass: 4
Flags: W
LayerCount: 2
Fore
SplineSet
706 528 m 0,0,1
 706 398 706 398 619 317 c 128,-1,2
 532 236 532 236 396 236 c 0,3,4
 204 236 204 236 132 386 c 0,5,6
 108 436 108 436 98 536 c 1,7,-1
 98 692 l 1,8,-1
 -276 692 l 1,9,-1
 -276 844 l 1,10,-1
 396 844 l 1,11,12
 500 830 500 830 550 804 c 0,13,14
 706 724 706 724 706 528 c 0,0,1
552 524 m 0,15,16
 552 630 552 630 476 672 c 0,17,18
 452 684 452 684 400 692 c 1,19,-1
 250 692 l 1,20,-1
 250 542 l 2,21,22
 250 474 250 474 288 425 c 128,-1,23
 326 376 326 376 394 376 c 0,24,25
 458 376 458 376 505 419 c 128,-1,26
 552 462 552 462 552 524 c 0,15,16
EndSplineSet
EndChar

StartChar: tm_uukaar
Encoding: 3010 3010 88
Width: 1261
GlyphClass: 4
Flags: W
LayerCount: 2
Fore
SplineSet
1232 722 m 0,0,1
 1232 460 1232 460 1062 254 c 0,2,3
 870 22 870 22 564 22 c 0,4,5
 392 22 392 22 282 60 c 0,6,7
 148 106 148 106 36 230 c 2,8,-1
 16 252 l 1,9,-1
 116 360 l 1,10,-1
 138 334 l 2,11,12
 196 260 196 260 312 213 c 128,-1,13
 428 166 428 166 560 166 c 0,14,15
 792 166 792 166 940 354 c 0,16,17
 1070 520 1070 520 1070 728 c 0,18,19
 1070 942 1070 942 970 1100 c 0,20,21
 860 1276 860 1276 680 1276 c 0,22,23
 514 1276 514 1276 416 1166 c 0,24,25
 306 1042 306 1042 306 844 c 1,26,-1
 542 844 l 2,27,28
 650 844 650 844 728 776 c 128,-1,29
 806 708 806 708 806 602 c 0,30,31
 806 502 806 502 728 434 c 128,-1,32
 650 366 650 366 538 366 c 0,33,34
 372 366 372 366 264 498 c 0,35,36
 200 576 200 576 162 692 c 1,37,-1
 -216 692 l 1,38,-1
 -216 844 l 1,39,-1
 148 844 l 1,40,41
 148 1096 148 1096 308 1266 c 0,42,43
 450 1416 450 1416 680 1416 c 0,44,45
 926 1416 926 1416 1084 1198 c 0,46,47
 1232 994 1232 994 1232 722 c 0,0,1
652 594 m 0,48,49
 652 636 652 636 626 664 c 128,-1,50
 600 692 600 692 556 692 c 2,51,-1
 324 692 l 1,52,53
 352 624 352 624 394 580 c 0,54,55
 456 514 456 514 536 514 c 0,56,57
 584 514 584 514 618 534 c 128,-1,58
 652 554 652 554 652 594 c 0,48,49
EndSplineSet
EndChar

StartChar: tm_ekaar
Encoding: 3014 3014 89
Width: 1300
GlyphClass: 2
Flags: W
LayerCount: 2
Fore
SplineSet
1194 0 m 1,0,-1
 1040 0 l 1,1,-1
 1040 828 l 2,2,3
 1040 978 1040 978 929 1093 c 128,-1,4
 818 1208 818 1208 668 1208 c 0,5,6
 460 1208 460 1208 312 1004 c 0,7,8
 180 824 180 824 180 632 c 0,9,10
 180 434 180 434 274 294 c 0,11,12
 332 206 332 206 418 156 c 1,13,14
 400 190 400 190 393 224 c 128,-1,15
 386 258 386 258 386 296 c 0,16,17
 386 406 386 406 465 483 c 128,-1,18
 544 560 544 560 658 560 c 0,19,20
 768 560 768 560 848 480 c 128,-1,21
 928 400 928 400 928 288 c 0,22,23
 928 142 928 142 842 60 c 128,-1,24
 756 -22 756 -22 624 -22 c 0,25,26
 344 -22 344 -22 180 182 c 0,27,28
 32 366 32 366 32 630 c 0,29,30
 32 906 32 906 212 1120 c 0,31,32
 402 1346 402 1346 668 1346 c 0,33,34
 848 1346 848 1346 1002 1222 c 0,35,36
 1194 1068 1194 1068 1194 810 c 2,37,-1
 1194 0 l 1,0,-1
778 278 m 0,38,39
 778 338 778 338 743 381 c 128,-1,40
 708 424 708 424 654 424 c 0,41,42
 598 424 598 424 559 381 c 128,-1,43
 520 338 520 338 520 278 c 0,44,45
 520 206 520 206 556 161 c 128,-1,46
 592 116 592 116 646 116 c 0,47,48
 712 116 712 116 748 168 c 0,49,50
 778 212 778 212 778 278 c 0,38,39
EndSplineSet
EndChar

StartChar: tm_eekaar
Encoding: 3015 3015 90
Width: 1240
GlyphClass: 2
Flags: W
LayerCount: 2
Fore
SplineSet
1126 1016 m 0,0,1
 1126 894 1126 894 1048 824 c 0,2,3
 980 762 980 762 876 762 c 256,4,5
 772 762 772 762 701 829 c 128,-1,6
 630 896 630 896 630 996 c 0,7,8
 630 1118 630 1118 714 1198 c 1,9,-1
 664 1198 l 2,10,11
 524 1198 524 1198 388 1088 c 0,12,13
 196 934 196 934 196 646 c 0,14,15
 196 442 196 442 327 276 c 128,-1,16
 458 110 458 110 628 110 c 1,17,-1
 722 114 l 1,18,19
 676 152 676 152 653 206 c 128,-1,20
 630 260 630 260 630 320 c 0,21,22
 630 424 630 424 701 495 c 128,-1,23
 772 566 772 566 880 566 c 256,24,25
 988 566 988 566 1056 488 c 128,-1,26
 1124 410 1124 410 1124 302 c 0,27,28
 1124 138 1124 138 962 52 c 0,29,30
 826 -20 826 -20 632 -20 c 0,31,32
 396 -20 396 -20 219 181 c 128,-1,33
 42 382 42 382 42 646 c 0,34,35
 42 922 42 922 225 1130 c 128,-1,36
 408 1338 408 1338 672 1338 c 0,37,38
 862 1338 862 1338 986 1258 c 0,39,40
 1126 1168 1126 1168 1126 1016 c 0,0,1
978 1022 m 0,41,42
 978 1070 978 1070 948 1102 c 128,-1,43
 918 1134 918 1134 876 1134 c 256,44,45
 834 1134 834 1134 806 1098 c 128,-1,46
 778 1062 778 1062 778 1012 c 0,47,48
 778 966 778 966 808 932 c 128,-1,49
 838 898 838 898 878 898 c 0,50,51
 922 898 922 898 950 934 c 128,-1,52
 978 970 978 970 978 1022 c 0,41,42
984 304 m 0,53,54
 984 356 984 356 956 395 c 128,-1,55
 928 434 928 434 878 434 c 0,56,57
 836 434 836 434 804 396 c 128,-1,58
 772 358 772 358 772 306 c 0,59,60
 772 260 772 260 804 222 c 128,-1,61
 836 184 836 184 878 184 c 0,62,63
 926 184 926 184 955 221 c 128,-1,64
 984 258 984 258 984 304 c 0,53,54
EndSplineSet
EndChar

StartChar: tm_aikaar
Encoding: 3016 3016 91
Width: 1700
GlyphClass: 2
Flags: W
LayerCount: 2
Fore
SplineSet
1576 376 m 0,0,1
 1576 240 1576 240 1500 102 c 1,2,3
 1456 38 1456 38 1414 -26 c 1,4,-1
 1284 52 l 1,5,6
 1332 110 1332 110 1354 148 c 0,7,8
 1424 266 1424 266 1424 372 c 0,9,10
 1424 506 1424 506 1356 602 c 0,11,12
 1282 706 1282 706 1170 706 c 0,13,14
 1088 706 1088 706 1034 666 c 1,15,16
 1156 528 1156 528 1156 332 c 0,17,18
 1156 194 1156 194 1110 106 c 0,19,20
 1056 4 1056 4 950 4 c 0,21,22
 840 4 840 4 783 101 c 128,-1,23
 726 198 726 198 726 332 c 0,24,25
 726 424 726 424 757 515 c 128,-1,26
 788 606 788 606 832 658 c 1,27,28
 780 686 780 686 722 696 c 128,-1,29
 664 706 664 706 586 706 c 2,30,-1
 550 706 l 2,31,32
 400 706 400 706 287 595 c 128,-1,33
 174 484 174 484 174 356 c 0,34,35
 174 326 174 326 175 310 c 128,-1,36
 176 294 176 294 182 266 c 1,37,38
 182 290 182 290 192 334 c 128,-1,39
 202 378 202 378 246 426 c 0,40,41
 310 496 310 496 406 496 c 0,42,43
 522 496 522 496 590 418 c 0,44,45
 652 346 652 346 652 234 c 0,46,47
 652 140 652 140 578 72 c 128,-1,48
 504 4 504 4 402 4 c 0,49,50
 240 4 240 4 138 96 c 0,51,52
 30 194 30 194 30 364 c 0,53,54
 30 556 30 556 187 703 c 128,-1,55
 344 850 344 850 552 850 c 0,56,57
 680 850 680 850 776 827 c 128,-1,58
 872 804 872 804 928 770 c 1,59,60
 1026 848 1026 848 1162 848 c 0,61,62
 1364 848 1364 848 1478 692 c 0,63,64
 1576 558 1576 558 1576 376 c 0,0,1
1010 328 m 0,65,66
 1010 426 1010 426 966 530 c 1,67,68
 950 548 950 548 934 568 c 1,69,70
 916 532 916 532 898 498 c 1,71,72
 870 398 870 398 870 334 c 0,73,74
 870 254 870 254 885 198 c 128,-1,75
 900 142 900 142 948 142 c 0,76,77
 988 142 988 142 1002 206 c 0,78,79
 1010 244 1010 244 1010 328 c 0,65,66
504 250 m 0,80,81
 504 300 504 300 479 330 c 128,-1,82
 454 360 454 360 402 360 c 0,83,84
 354 360 354 360 328 326 c 128,-1,85
 302 292 302 292 302 250 c 0,86,87
 302 210 302 210 329 179 c 128,-1,88
 356 148 356 148 402 148 c 0,89,90
 444 148 444 148 474 176 c 128,-1,91
 504 204 504 204 504 250 c 0,80,81
EndSplineSet
EndChar

StartChar: tm_halant
Encoding: 3021 3021 95
Width: 4
GlyphClass: 4
Flags: W
LayerCount: 2
Fore
SplineSet
-360 1122 m 256,0,1
 -360 1068 -360 1068 -397 1031 c 128,-1,2
 -434 994 -434 994 -486 994 c 0,3,4
 -540 994 -540 994 -578 1032 c 128,-1,5
 -616 1070 -616 1070 -616 1124 c 256,6,7
 -616 1178 -616 1178 -578 1214 c 128,-1,8
 -540 1250 -540 1250 -486 1250 c 0,9,10
 -434 1250 -434 1250 -397 1213 c 128,-1,11
 -360 1176 -360 1176 -360 1122 c 256,0,1
EndSplineSet
EndChar

StartChar: tm_two
Encoding: 3048 3048 98
Width: 1425
GlyphClass: 2
Flags: W
LayerCount: 2
Fore
SplineSet
1244 70 m 1,0,-1
 1226 0 l 1,1,-1
 586 0 l 2,2,3
 429 0 429 0 429 106 c 0,4,5
 429 153 429 153 478 181.5 c 128,-1,6
 527 210 527 210 586 210 c 2,7,-1
 779 210 l 2,8,9
 867 210 867 210 928 271.5 c 128,-1,10
 989 333 989 333 989 420 c 0,11,12
 989 500 989 500 945 560.5 c 128,-1,13
 901 621 901 621 831 621 c 0,14,15
 793 621 793 621 744 595 c 1,16,17
 814 555 814 555 814 437 c 0,18,19
 814 382 814 382 772.5 344.5 c 128,-1,20
 731 307 731 307 675 307 c 0,21,22
 618 307 618 307 580 351 c 128,-1,23
 542 395 542 395 542 455 c 0,24,25
 542 565 542 565 646.5 632.5 c 128,-1,26
 751 700 751 700 884 700 c 0,27,28
 987 700 987 700 1058 629 c 128,-1,29
 1129 558 1129 558 1129 455 c 0,30,31
 1129 321 1129 321 1025.5 230.5 c 128,-1,32
 922 140 922 140 779 140 c 2,33,-1
 595 140 l 2,34,35
 551 140 551 140 551 106 c 0,36,37
 551 70 551 70 604 70 c 2,38,-1
 1244 70 l 1,0,-1
675 560 m 1,39,40
 621 516 621 516 621 473 c 0,41,42
 621 386 621 386 666 386 c 0,43,44
 709 386 709 386 709 473 c 0,45,46
 709 518 709 518 675 560 c 1,39,40
EndSplineSet
EndChar

StartChar: tm_three
Encoding: 3049 3049 99
Width: 1424
GlyphClass: 2
Flags: W
LayerCount: 2
Fore
SplineSet
1270 70 m 1,0,-1
 1252 0 l 1,1,-1
 640 0 l 1,2,-1
 657 70 l 1,3,-1
 780 70 l 2,4,5
 874 70 874 70 941 130.5 c 128,-1,6
 1008 191 1008 191 1008 280 c 0,7,8
 1008 317 1008 317 982.5 342.5 c 128,-1,9
 957 368 957 368 920 368 c 0,10,11
 890 368 890 368 865 341 c 128,-1,12
 840 314 840 314 833 280 c 2,13,-1
 815 193 l 1,14,-1
 675 193 l 1,15,-1
 764 630 l 1,16,-1
 571 630 l 1,17,-1
 444 0 l 1,18,-1
 378 0 l 1,19,-1
 517 700 l 1,20,-1
 1095 700 l 1,21,-1
 1077 630 l 1,22,-1
 902 630 l 1,23,-1
 859 403 l 1,24,25
 918 455 918 455 990 455 c 0,26,27
 1057 455 1057 455 1102.5 403.5 c 128,-1,28
 1148 352 1148 352 1148 280 c 0,29,30
 1148 209 1148 209 1090 151 c 128,-1,31
 1032 93 1032 93 947 70 c 1,32,-1
 1270 70 l 1,0,-1
EndSplineSet
EndChar

StartChar: tm_four
Encoding: 3050 3050 100
Width: 1427
GlyphClass: 2
Flags: W
LayerCount: 2
Fore
SplineSet
915 316 m 1,0,-1
 644 316 l 2,1,2
 601 316 601 316 570.5 291 c 128,-1,3
 540 266 540 266 540 228 c 0,4,5
 540 158 540 158 609.5 114 c 128,-1,6
 679 70 679 70 766 70 c 0,7,8
 811 70 811 70 844 99.5 c 128,-1,9
 877 129 877 129 887 175 c 2,10,-1
 915 316 l 1,0,-1
979 630 m 1,11,-1
 784 630 l 1,12,-1
 735 386 l 1,13,-1
 930 386 l 1,14,-1
 979 630 l 1,11,-1
1042 245 m 2,15,16
 1017 125 1017 125 940 62.5 c 128,-1,17
 863 0 863 0 766 0 c 0,18,19
 651 0 651 0 559.5 64 c 128,-1,20
 468 128 468 128 468 228 c 0,21,22
 468 294 468 294 520.5 340 c 128,-1,23
 573 386 573 386 644 386 c 2,24,-1
 669 386 l 1,25,-1
 731 700 l 1,26,-1
 1344 700 l 1,27,-1
 1329 630 l 1,28,-1
 1118 630 l 1,29,-1
 1068 386 l 1,30,-1
 1232 386 l 1,31,-1
 1248 464 l 1,32,-1
 1309 464 l 1,33,-1
 1279 316 l 1,34,-1
 1055 316 l 1,35,-1
 1042 245 l 2,15,16
EndSplineSet
EndChar

StartChar: tm_five
Encoding: 3051 3051 101
Width: 1424
GlyphClass: 2
Flags: W
LayerCount: 2
Fore
SplineSet
1412 517 m 1,0,-1
 1359 526 l 1,1,2
 1369 563 1369 563 1369 598 c 0,3,4
 1369 723 1369 723 1253.5 825.5 c 128,-1,5
 1138 928 1138 928 965 928 c 0,6,7
 728 928 728 928 575.5 716 c 128,-1,8
 423 504 423 504 423 228 c 0,9,10
 423 -43 423 -43 515 -179.5 c 128,-1,11
 607 -316 607 -316 790 -316 c 0,12,13
 979 -316 979 -316 1103.5 -163.5 c 128,-1,14
 1228 -11 1228 -11 1228 193 c 0,15,16
 1228 257 1228 257 1200 304.5 c 128,-1,17
 1172 352 1172 352 1126 352 c 0,18,19
 1099 352 1099 352 1072.5 336.5 c 128,-1,20
 1046 321 1046 321 1039 298 c 2,21,-1
 980 0 l 1,22,-1
 840 0 l 1,23,-1
 965 630 l 1,24,-1
 759 630 l 1,25,-1
 634 0 l 1,26,-1
 566 0 l 1,27,-1
 706 700 l 1,28,-1
 1237 700 l 1,29,-1
 1219 630 l 1,30,-1
 1105 630 l 1,31,-1
 1057 386 l 1,32,33
 1101 437 1101 437 1171 437 c 0,34,35
 1261 437 1261 437 1314.5 368.5 c 128,-1,36
 1368 300 1368 300 1368 193 c 0,37,38
 1368 -47 1368 -47 1202.5 -216 c 128,-1,39
 1037 -385 1037 -385 799 -385 c 0,40,41
 589 -385 589 -385 471.5 -223 c 128,-1,42
 354 -61 354 -61 354 193 c 0,43,44
 354 513 354 513 519 764 c 128,-1,45
 684 1015 684 1015 948 1015 c 0,46,47
 1152 1015 1152 1015 1288.5 889.5 c 128,-1,48
 1425 764 1425 764 1425 613 c 0,49,50
 1425 566 1425 566 1412 517 c 1,0,-1
EndSplineSet
EndChar

StartChar: tm_six
Encoding: 3052 3052 102
Width: 1424
GlyphClass: 2
Flags: W
LayerCount: 2
Fore
SplineSet
784 316 m 1,0,-1
 513 316 l 2,1,2
 469 316 469 316 438 291 c 128,-1,3
 407 266 407 266 407 228 c 0,4,5
 407 158 407 158 477 114 c 128,-1,6
 547 70 547 70 635 70 c 0,7,8
 680 70 680 70 713 99.5 c 128,-1,9
 746 129 746 129 756 175 c 2,10,-1
 784 316 l 1,0,-1
846 630 m 1,11,-1
 653 630 l 1,12,-1
 603 386 l 1,13,-1
 798 386 l 1,14,-1
 846 630 l 1,11,-1
910 245 m 2,15,16
 884 125 884 125 808 62.5 c 128,-1,17
 732 0 732 0 635 0 c 0,18,19
 518 0 518 0 428 64 c 128,-1,20
 338 128 338 128 338 228 c 0,21,22
 338 294 338 294 389.5 340 c 128,-1,23
 441 386 441 386 513 386 c 2,24,-1
 537 386 l 1,25,-1
 600 700 l 1,26,-1
 1229 700 l 1,27,-1
 1213 630 l 1,28,-1
 988 630 l 1,29,-1
 938 386 l 1,30,-1
 1422 386 l 1,31,-1
 1410 316 l 1,32,-1
 1353 316 l 1,33,-1
 1291 0 l 1,34,-1
 1151 0 l 1,35,-1
 1213 316 l 1,36,-1
 1116 316 l 1,37,-1
 1055 0 l 1,38,-1
 967 0 l 1,39,-1
 1028 316 l 1,40,-1
 924 316 l 1,41,-1
 910 245 l 2,15,16
EndSplineSet
EndChar

StartChar: tm_seven
Encoding: 3053 3053 103
Width: 1425
GlyphClass: 2
Flags: W
LayerCount: 2
Fore
SplineSet
643 88 m 1,0,1
 706 88 706 88 753 128 c 128,-1,2
 800 168 800 168 800 228 c 0,3,4
 800 269 800 269 781 301 c 128,-1,5
 762 333 762 333 729 333 c 0,6,7
 684 333 684 333 654.5 296.5 c 128,-1,8
 625 260 625 260 625 210 c 0,9,10
 625 135 625 135 643 88 c 1,0,1
1042 0 m 1,11,-1
 1167 630 l 1,12,-1
 852 630 l 2,13,14
 704 630 704 630 594.5 540.5 c 128,-1,15
 485 451 485 451 485 316 c 0,16,17
 485 247 485 247 507 194.5 c 128,-1,18
 529 142 529 142 572 106 c 1,19,20
 555 135 555 135 555 228 c 256,21,22
 555 321 555 321 614.5 388 c 128,-1,23
 674 455 674 455 765 455 c 0,24,25
 837 455 837 455 884 398 c 128,-1,26
 931 341 931 341 931 263 c 0,27,28
 931 155 931 155 863 77.5 c 128,-1,29
 795 0 795 0 695 0 c 0,30,31
 576 0 576 0 495.5 94 c 128,-1,32
 415 188 415 188 415 316 c 0,33,34
 415 481 415 481 545.5 590.5 c 128,-1,35
 676 700 676 700 852 700 c 2,36,-1
 1430 700 l 1,37,-1
 1412 630 l 1,38,-1
 1307 630 l 1,39,-1
 1181 0 l 1,40,-1
 1042 0 l 1,11,-1
EndSplineSet
EndChar

StartChar: tm_eight
Encoding: 3054 3054 104
Width: 1427
GlyphClass: 2
Flags: W
LayerCount: 2
Fore
SplineSet
849 629 m 1,0,1
 745 611 745 611 670 548.5 c 128,-1,2
 595 486 595 486 595 402 c 0,3,4
 595 338 595 338 638.5 291 c 128,-1,5
 682 244 682 244 744 244 c 0,6,7
 817 244 817 244 864 307.5 c 128,-1,8
 911 371 911 371 911 454 c 0,9,10
 911 580 911 580 849 629 c 1,0,1
1024 140 m 1,11,-1
 411 140 l 2,12,13
 381 140 381 140 357 125 c 128,-1,14
 333 110 333 110 333 87 c 0,15,16
 333 43 333 43 412 -13.5 c 128,-1,17
 491 -70 491 -70 639 -70 c 0,18,19
 743 -70 743 -70 839.5 -18 c 128,-1,20
 936 34 936 34 1024 140 c 1,11,-1
1414 -245 m 1,21,-1
 1269 -245 l 1,22,-1
 1348 140 l 1,23,-1
 1164 140 l 1,24,25
 1051 4 1051 4 915 -63.5 c 128,-1,26
 779 -131 779 -131 621 -131 c 0,27,28
 421 -131 421 -131 311.5 -52.5 c 128,-1,29
 202 26 202 26 202 123 c 0,30,31
 202 160 202 160 233 184.5 c 128,-1,32
 264 209 264 209 307 209 c 2,33,-1
 666 209 l 1,34,35
 604 231 604 231 565 284.5 c 128,-1,36
 526 338 526 338 526 402 c 0,37,38
 526 534 526 534 652 617 c 128,-1,39
 778 700 778 700 937 700 c 0,40,41
 1069 700 1069 700 1169 620.5 c 128,-1,42
 1269 541 1269 541 1269 420 c 0,43,44
 1269 306 1269 306 1213 209 c 1,45,-1
 1364 209 l 1,46,-1
 1463 700 l 1,47,-1
 1603 700 l 1,48,-1
 1414 -245 l 1,21,-1
989 620 m 1,49,50
 1042 530 1042 530 1042 411 c 0,51,52
 1042 267 1042 267 919 209 c 1,53,-1
 1077 209 l 1,54,55
 1146 308 1146 308 1146 402 c 0,56,57
 1146 486 1146 486 1103 553 c 128,-1,58
 1060 620 1060 620 989 620 c 1,49,50
EndSplineSet
EndChar

StartChar: tm_nine
Encoding: 3055 3055 105
Width: 1427
GlyphClass: 2
Flags: W
LayerCount: 2
Fore
SplineSet
692 316 m 1,0,-1
 422 316 l 2,1,2
 379 316 379 316 348 291 c 128,-1,3
 317 266 317 266 317 228 c 0,4,5
 317 158 317 158 387 114 c 128,-1,6
 457 70 457 70 544 70 c 0,7,8
 589 70 589 70 622 99.5 c 128,-1,9
 655 129 655 129 665 175 c 2,10,-1
 692 316 l 1,0,-1
756 630 m 1,11,-1
 562 630 l 1,12,-1
 513 386 l 1,13,-1
 707 386 l 1,14,-1
 756 630 l 1,11,-1
1157 175 m 0,15,16
 1157 259 1157 259 1052 298 c 1,17,18
 982 240 982 240 982 158 c 0,19,20
 982 121 982 121 1007.5 95.5 c 128,-1,21
 1033 70 1033 70 1068 70 c 0,22,23
 1107 70 1107 70 1132 101.5 c 128,-1,24
 1157 133 1157 133 1157 175 c 0,15,16
1297 0 m 1,25,26
 1375 93 1375 93 1375 193 c 0,27,28
 1375 263 1375 263 1332.5 315.5 c 128,-1,29
 1290 368 1290 368 1226 368 c 0,30,31
 1163 368 1163 368 1113 342 c 1,32,33
 1167 322 1167 322 1201 276.5 c 128,-1,34
 1235 231 1235 231 1235 175 c 0,35,36
 1235 104 1235 104 1187 52 c 128,-1,37
 1139 0 1139 0 1068 0 c 0,38,39
 1005 0 1005 0 958.5 46.5 c 128,-1,40
 912 93 912 93 912 158 c 0,41,42
 912 257 912 257 982 316 c 1,43,-1
 833 316 l 1,44,-1
 819 245 l 2,45,46
 795 125 795 125 718.5 62.5 c 128,-1,47
 642 0 642 0 544 0 c 0,48,49
 428 0 428 0 337 64 c 128,-1,50
 246 128 246 128 246 228 c 0,51,52
 246 294 246 294 299 340 c 128,-1,53
 352 386 352 386 422 386 c 2,54,-1
 446 386 l 1,55,-1
 508 700 l 1,56,-1
 1122 700 l 1,57,-1
 1104 630 l 1,58,-1
 896 630 l 1,59,-1
 847 386 l 1,60,-1
 947 386 l 2,61,62
 1014 386 1014 386 1052 368 c 1,63,64
 1111 420 1111 420 1226 420 c 0,65,66
 1327 420 1327 420 1399.5 354.5 c 128,-1,67
 1472 289 1472 289 1472 193 c 0,68,69
 1472 109 1472 109 1410 0 c 1,70,-1
 1297 0 l 1,25,26
EndSplineSet
EndChar

StartChar: tm_ten
Encoding: 3056 3056 106
Width: 1260
GlyphClass: 2
Flags: W
LayerCount: 2
Fore
SplineSet
597 149 m 1,0,1
 558 74 558 74 508 37 c 128,-1,2
 458 0 458 0 395 0 c 0,3,4
 302 0 302 0 242 64 c 128,-1,5
 182 128 182 128 182 200 c 0,6,7
 182 224 182 224 186 244 c 2,8,-1
 279 700 l 1,9,-1
 419 700 l 1,10,-1
 325 244 l 2,11,12
 320 223 320 223 320 205 c 0,13,14
 320 155 320 155 346.5 112.5 c 128,-1,15
 373 70 373 70 413 70 c 0,16,17
 472 70 472 70 525 146 c 128,-1,18
 578 222 578 222 606 359 c 2,19,-1
 675 700 l 1,20,-1
 815 700 l 1,21,-1
 746 351 l 2,22,23
 728 262 728 262 728 204 c 0,24,25
 728 150 728 150 760.5 110 c 128,-1,26
 793 70 793 70 841 70 c 0,27,28
 957 70 957 70 1026 204 c 128,-1,29
 1095 338 1095 338 1095 500 c 0,30,31
 1095 691 1095 691 995.5 840 c 128,-1,32
 896 989 896 989 737 989 c 1,33,-1
 755 1042 l 1,34,35
 960 1042 960 1042 1097.5 880.5 c 128,-1,36
 1235 719 1235 719 1235 500 c 0,37,38
 1235 300 1235 300 1118.5 150 c 128,-1,39
 1002 0 1002 0 824 0 c 0,40,41
 739 0 739 0 673.5 40.5 c 128,-1,42
 608 81 608 81 597 149 c 1,0,1
EndSplineSet
EndChar

StartChar: tm_hundred
Encoding: 3057 3057 107
Width: 1166
GlyphClass: 2
Flags: W
LayerCount: 2
Fore
SplineSet
1284 700 m 1,0,-1
 1267 629 l 1,1,-1
 1117 629 l 1,2,-1
 991 0 l 1,3,-1
 851 0 l 1,4,-1
 977 629 l 1,5,-1
 770 629 l 1,6,-1
 644 0 l 1,7,-1
 504 0 l 1,8,-1
 599 472 l 2,9,10
 606 507 606 507 606 534 c 0,11,12
 606 579 606 579 589 613 c 128,-1,13
 572 647 572 647 540 647 c 0,14,15
 483 647 483 647 440 595.5 c 128,-1,16
 397 544 397 544 382 472 c 2,17,-1
 285 0 l 1,18,-1
 146 0 l 1,19,-1
 242 472 l 2,20,21
 263 577 263 577 336.5 647 c 128,-1,22
 410 717 410 717 503 717 c 0,23,24
 567 717 567 717 614 679.5 c 128,-1,25
 661 642 661 642 661 585 c 1,26,-1
 685 700 l 1,27,-1
 1284 700 l 1,0,-1
EndSplineSet
EndChar

StartChar: tm_thousand
Encoding: 3058 3058 108
Width: 1256
GlyphClass: 2
Flags: W
LayerCount: 2
Fore
SplineSet
551 316 m 1,0,-1
 280 316 l 2,1,2
 237 316 237 316 206 291 c 128,-1,3
 175 266 175 266 175 228 c 0,4,5
 175 158 175 158 245.5 114 c 128,-1,6
 316 70 316 70 402 70 c 0,7,8
 447 70 447 70 480 99.5 c 128,-1,9
 513 129 513 129 523 175 c 2,10,-1
 551 316 l 1,0,-1
615 630 m 1,11,-1
 420 630 l 1,12,-1
 371 386 l 1,13,-1
 565 386 l 1,14,-1
 615 630 l 1,11,-1
677 245 m 2,15,16
 653 125 653 125 576 62.5 c 128,-1,17
 499 0 499 0 402 0 c 0,18,19
 285 0 285 0 195 64 c 128,-1,20
 105 128 105 128 105 228 c 0,21,22
 105 294 105 294 156.5 340 c 128,-1,23
 208 386 208 386 280 386 c 2,24,-1
 304 386 l 1,25,-1
 367 700 l 1,26,-1
 997 700 l 1,27,-1
 983 630 l 1,28,-1
 755 630 l 1,29,-1
 705 386 l 1,30,-1
 1120 386 l 1,31,-1
 1105 316 l 1,32,-1
 971 316 l 1,33,-1
 945 175 l 1,34,35
 990 228 990 228 1067 228 c 0,36,37
 1134 228 1134 228 1179.5 176 c 128,-1,38
 1225 124 1225 124 1225 53 c 0,39,40
 1225 -78 1225 -78 1108 -161 c 128,-1,41
 991 -244 991 -244 840 -244 c 0,42,43
 740 -244 740 -244 542 -205 c 0,44,45
 346 -167 346 -167 244 -167 c 0,46,47
 181 -167 181 -167 134 -206.5 c 128,-1,48
 87 -246 87 -246 87 -307 c 0,49,50
 87 -384 87 -384 158 -411 c 1,51,-1
 149 -445 l 1,52,53
 82 -433 82 -433 36.5 -387 c 128,-1,54
 -9 -341 -9 -341 -9 -280 c 0,55,56
 -9 -205 -9 -205 70.5 -159.5 c 128,-1,57
 150 -114 150 -114 244 -114 c 0,58,59
 346 -114 346 -114 542 -153 c 0,60,61
 740 -192 740 -192 840 -192 c 0,62,63
 938 -192 938 -192 1011.5 -135 c 128,-1,64
 1085 -78 1085 -78 1085 9 c 0,65,66
 1085 61 1085 61 1061 100.5 c 128,-1,67
 1037 140 1037 140 997 140 c 256,68,69
 957 140 957 140 927 88 c 1,70,-1
 910 0 l 1,71,-1
 769 0 l 1,72,-1
 831 316 l 1,73,-1
 691 316 l 1,74,-1
 677 245 l 2,15,16
EndSplineSet
EndChar

StartChar: zerowidthnonjoiner
Encoding: 8204 8204 109
Width: 0
GlyphClass: 2
Flags: W
LayerCount: 2
Fore
SplineSet
315 1225 m 1,0,-1
 -34 -516 l 1,1,-1
 -103 -516 l 1,2,-1
 244 1225 l 1,3,-1
 315 1225 l 1,0,-1
EndSplineSet
EndChar

StartChar: zerowidthjoiner
Encoding: 8205 8205 110
Width: 0
GlyphClass: 2
Flags: W
LayerCount: 2
Fore
SplineSet
415 997 m 1,0,-1
 363 953 l 1,1,-1
 270 1073 l 1,2,-1
 -24 -441 l 1,3,-1
 -87 -441 l 1,4,-1
 206 1073 l 1,5,-1
 65 953 l 1,6,-1
 32 997 l 1,7,-1
 210 1145 l 1,8,-1
 89 1292 l 1,9,-1
 140 1334 l 1,10,-1
 260 1185 l 1,11,-1
 437 1334 l 1,12,-1
 472 1292 l 1,13,-1
 294 1145 l 1,14,-1
 415 997 l 1,0,-1
EndSplineSet
EndChar

StartChar: u2013
Encoding: 8211 8211 111
Width: 722
GlyphClass: 2
Flags: W
LayerCount: 2
Fore
SplineSet
733 319 m 1,0,-1
 -12 319 l 1,1,-1
 -12 370 l 1,2,-1
 733 370 l 1,3,-1
 733 319 l 1,0,-1
EndSplineSet
EndChar

StartChar: u2014
Encoding: 8212 8212 112
Width: 1284
GlyphClass: 2
Flags: W
LayerCount: 2
Fore
SplineSet
1296 318 m 1,0,-1
 -13 319 l 1,1,-1
 -13 371 l 1,2,-1
 1296 370 l 1,3,-1
 1296 318 l 1,0,-1
EndSplineSet
EndChar

StartChar: u2018
Encoding: 65539 -1 113
Width: 330
GlyphClass: 2
Flags: W
LayerCount: 2
Fore
SplineSet
234 786 m 1,0,-1
 52 786 l 1,1,-1
 52 952 l 2,2,3
 54 978 54 978 59 1009 c 128,-1,4
 64 1040 64 1040 83 1079 c 128,-1,5
 102 1118 102 1118 134 1164 c 0,6,7
 138 1172 138 1172 150 1184 c 1,8,-1
 218 1138 l 1,9,10
 204 1118 204 1118 196 1106 c 0,11,12
 172 1066 172 1066 162 1035 c 128,-1,13
 152 1004 152 1004 152 990 c 128,-1,14
 152 976 152 976 154 966 c 1,15,-1
 234 966 l 1,16,-1
 234 786 l 1,0,-1
EndSplineSet
EndChar

StartChar: u2019
Encoding: 65540 -1 114
Width: 300
GlyphClass: 2
Flags: W
LayerCount: 2
Fore
SplineSet
212 1022 m 2,0,1
 210 996 210 996 208 980 c 0,2,3
 200 934 200 934 182 895 c 128,-1,4
 164 856 164 856 132 810 c 0,5,6
 128 802 128 802 116 790 c 1,7,-1
 46 836 l 1,8,9
 60 856 60 856 68 868 c 0,10,11
 96 910 96 910 105 940 c 128,-1,12
 114 970 114 970 114 985 c 128,-1,13
 114 1000 114 1000 112 1010 c 1,14,-1
 30 1010 l 1,15,-1
 30 1188 l 1,16,-1
 212 1188 l 1,17,-1
 212 1022 l 2,0,1
EndSplineSet
EndChar

StartChar: u201C
Encoding: 65541 -1 115
Width: 550
GlyphClass: 2
Flags: W
LayerCount: 2
Fore
SplineSet
234 786 m 1,0,-1
 52 786 l 1,1,-1
 52 952 l 2,2,3
 54 978 54 978 59 1009 c 128,-1,4
 64 1040 64 1040 83 1079 c 128,-1,5
 102 1118 102 1118 134 1164 c 0,6,7
 138 1172 138 1172 150 1184 c 1,8,-1
 218 1138 l 1,9,10
 204 1118 204 1118 196 1106 c 0,11,12
 172 1066 172 1066 162 1035 c 128,-1,13
 152 1004 152 1004 152 990 c 128,-1,14
 152 976 152 976 154 966 c 1,15,-1
 234 966 l 1,16,-1
 234 786 l 1,0,-1
454 786 m 1,17,-1
 272 786 l 1,18,-1
 272 952 l 2,19,20
 274 978 274 978 279 1009 c 128,-1,21
 284 1040 284 1040 303 1079 c 128,-1,22
 322 1118 322 1118 354 1164 c 0,23,24
 358 1172 358 1172 370 1184 c 1,25,-1
 438 1138 l 1,26,27
 424 1118 424 1118 416 1106 c 0,28,29
 392 1066 392 1066 382 1035 c 128,-1,30
 372 1004 372 1004 372 990 c 128,-1,31
 372 976 372 976 374 966 c 1,32,-1
 454 966 l 1,33,-1
 454 786 l 1,17,-1
EndSplineSet
EndChar

StartChar: u201D
Encoding: 65542 -1 116
Width: 530
GlyphClass: 2
Flags: W
LayerCount: 2
Fore
SplineSet
212 1022 m 2,0,1
 210 996 210 996 208 980 c 0,2,3
 200 934 200 934 182 895 c 128,-1,4
 164 856 164 856 132 810 c 0,5,6
 128 802 128 802 116 790 c 1,7,-1
 46 836 l 1,8,9
 60 856 60 856 68 868 c 0,10,11
 96 910 96 910 105 940 c 128,-1,12
 114 970 114 970 114 985 c 128,-1,13
 114 1000 114 1000 112 1010 c 1,14,-1
 30 1010 l 1,15,-1
 30 1188 l 1,16,-1
 212 1188 l 1,17,-1
 212 1022 l 2,0,1
412 1022 m 2,18,19
 410 996 410 996 408 980 c 0,20,21
 400 934 400 934 382 895 c 128,-1,22
 364 856 364 856 332 810 c 0,23,24
 328 802 328 802 316 790 c 1,25,-1
 246 836 l 1,26,27
 260 856 260 856 268 868 c 0,28,29
 296 910 296 910 305 940 c 128,-1,30
 314 970 314 970 314 985 c 128,-1,31
 314 1000 314 1000 312 1010 c 1,32,-1
 230 1010 l 1,33,-1
 230 1188 l 1,34,-1
 412 1188 l 1,35,-1
 412 1022 l 2,18,19
EndSplineSet
EndChar

StartChar: u2026
Encoding: 8230 8230 117
Width: 1283
GlyphClass: 2
Flags: W
LayerCount: 2
Fore
SplineSet
265 136 m 0,0,1
 298 136 298 136 320.5 114 c 128,-1,2
 343 92 343 92 343 58 c 0,3,4
 343 26 343 26 320.5 3 c 128,-1,5
 298 -20 298 -20 265 -20 c 0,6,7
 233 -20 233 -20 210 3 c 128,-1,8
 187 26 187 26 187 58 c 0,9,10
 187 92 187 92 210 114 c 128,-1,11
 233 136 233 136 265 136 c 0,0,1
638 136 m 256,12,13
 670 136 670 136 693 114 c 128,-1,14
 716 92 716 92 716 58 c 0,15,16
 716 26 716 26 692.5 3 c 128,-1,17
 669 -20 669 -20 638 -20 c 0,18,19
 606 -20 606 -20 583 3 c 128,-1,20
 560 26 560 26 560 58 c 0,21,22
 560 92 560 92 583 114 c 128,-1,23
 606 136 606 136 638 136 c 256,12,13
1010 136 m 0,24,25
 1043 136 1043 136 1066 114 c 128,-1,26
 1089 92 1089 92 1089 58 c 0,27,28
 1089 26 1089 26 1065.5 3 c 128,-1,29
 1042 -20 1042 -20 1010 -20 c 256,30,31
 978 -20 978 -20 955.5 3 c 128,-1,32
 933 26 933 26 933 58 c 0,33,34
 933 92 933 92 955.5 114 c 128,-1,35
 978 136 978 136 1010 136 c 0,24,25
EndSplineSet
EndChar

StartChar: u2212
Encoding: 8722 8722 118
Width: 974
GlyphClass: 2
Flags: W
LayerCount: 2
Fore
SplineSet
133 450 m 1,0,-1
 133 508 l 1,1,-1
 894 508 l 1,2,-1
 894 450 l 1,3,-1
 133 450 l 1,0,-1
EndSplineSet
EndChar

StartChar: u25CC
Encoding: 9676 9676 119
Width: 1167
GlyphClass: 2
Flags: W
LayerCount: 2
Fore
SplineSet
654 665 m 0,0,1
 626 665 626 665 612 679 c 128,-1,2
 598 693 598 693 598 724 c 0,3,4
 598 746 598 746 615 762.5 c 128,-1,5
 632 779 632 779 654 779 c 0,6,7
 683 779 683 779 697.5 765 c 128,-1,8
 712 751 712 751 712 724 c 0,9,10
 712 693 712 693 697.5 679 c 128,-1,11
 683 665 683 665 654 665 c 0,0,1
840 616 m 0,12,13
 811 616 811 616 796.5 630.5 c 128,-1,14
 782 645 782 645 782 674 c 0,15,16
 782 701 782 701 796.5 715 c 128,-1,17
 811 729 811 729 840 729 c 0,18,19
 862 729 862 729 879 713 c 128,-1,20
 896 697 896 697 896 674 c 0,21,22
 896 645 896 645 882 630.5 c 128,-1,23
 868 616 868 616 840 616 c 0,12,13
470 616 m 0,24,25
 442 616 442 616 428 630.5 c 128,-1,26
 414 645 414 645 414 674 c 0,27,28
 414 697 414 697 431 713 c 128,-1,29
 448 729 448 729 470 729 c 0,30,31
 494 729 494 729 510 713 c 128,-1,32
 526 697 526 697 526 674 c 0,33,34
 526 645 526 645 512.5 630.5 c 128,-1,35
 499 616 499 616 470 616 c 0,24,25
973 482 m 0,36,37
 951 482 951 482 933.5 498 c 128,-1,38
 916 514 916 514 916 538 c 0,39,40
 916 567 916 567 930.5 581 c 128,-1,41
 945 595 945 595 973 595 c 256,42,43
 1001 595 1001 595 1014.5 581 c 128,-1,44
 1028 567 1028 567 1028 538 c 0,45,46
 1028 514 1028 514 1012 498 c 128,-1,47
 996 482 996 482 973 482 c 0,36,37
336 482 m 0,48,49
 307 482 307 482 293 495.5 c 128,-1,50
 279 509 279 509 279 538 c 256,51,52
 279 567 279 567 293 581 c 128,-1,53
 307 595 307 595 336 595 c 0,54,55
 364 595 364 595 378 581 c 128,-1,56
 392 567 392 567 392 538 c 0,57,58
 392 514 392 514 375 498 c 128,-1,59
 358 482 358 482 336 482 c 0,48,49
1024 298 m 0,60,61
 994 298 994 298 979.5 311.5 c 128,-1,62
 965 325 965 325 965 354 c 0,63,64
 965 382 965 382 979.5 396 c 128,-1,65
 994 410 994 410 1024 410 c 0,66,67
 1046 410 1046 410 1063 393 c 128,-1,68
 1080 376 1080 376 1080 354 c 0,69,70
 1080 331 1080 331 1063 314.5 c 128,-1,71
 1046 298 1046 298 1024 298 c 0,60,61
287 298 m 0,72,73
 257 298 257 298 243 311.5 c 128,-1,74
 229 325 229 325 229 354 c 0,75,76
 229 382 229 382 243 396 c 128,-1,77
 257 410 257 410 287 410 c 0,78,79
 310 410 310 410 326.5 393 c 128,-1,80
 343 376 343 376 343 354 c 0,81,82
 343 331 343 331 326.5 314.5 c 128,-1,83
 310 298 310 298 287 298 c 0,72,73
973 112 m 256,84,85
 945 112 945 112 930.5 126.5 c 128,-1,86
 916 141 916 141 916 169 c 0,87,88
 916 193 916 193 933.5 209.5 c 128,-1,89
 951 226 951 226 973 226 c 0,90,91
 996 226 996 226 1012 209.5 c 128,-1,92
 1028 193 1028 193 1028 169 c 0,93,94
 1028 141 1028 141 1014.5 126.5 c 128,-1,95
 1001 112 1001 112 973 112 c 256,84,85
336 112 m 0,96,97
 307 112 307 112 293 126.5 c 128,-1,98
 279 141 279 141 279 169 c 0,99,100
 279 198 279 198 293 212 c 128,-1,101
 307 226 307 226 336 226 c 0,102,103
 358 226 358 226 375 209.5 c 128,-1,104
 392 193 392 193 392 169 c 0,105,106
 392 141 392 141 378 126.5 c 128,-1,107
 364 112 364 112 336 112 c 0,96,97
840 -22 m 0,108,109
 811 -22 811 -22 796.5 -8 c 128,-1,110
 782 6 782 6 782 34 c 0,111,112
 782 63 782 63 796.5 78 c 128,-1,113
 811 93 811 93 840 93 c 0,114,115
 863 93 863 93 879.5 75 c 128,-1,116
 896 57 896 57 896 34 c 256,117,118
 896 11 896 11 879 -5.5 c 128,-1,119
 862 -22 862 -22 840 -22 c 0,108,109
470 -22 m 0,120,121
 448 -22 448 -22 431 -5.5 c 128,-1,122
 414 11 414 11 414 34 c 256,123,124
 414 57 414 57 430.5 75 c 128,-1,125
 447 93 447 93 470 93 c 0,126,127
 495 93 495 93 510.5 75 c 128,-1,128
 526 57 526 57 526 34 c 256,129,130
 526 11 526 11 510 -5.5 c 128,-1,131
 494 -22 494 -22 470 -22 c 0,120,121
654 -72 m 0,132,133
 632 -72 632 -72 615 -55 c 128,-1,134
 598 -38 598 -38 598 -16 c 0,135,136
 598 14 598 14 612 28.5 c 128,-1,137
 626 43 626 43 654 43 c 0,138,139
 683 43 683 43 697.5 28.5 c 128,-1,140
 712 14 712 14 712 -16 c 0,141,142
 712 -44 712 -44 697.5 -58 c 128,-1,143
 683 -72 683 -72 654 -72 c 0,132,133
EndSplineSet
EndChar

StartChar: tm_k_ikaar
Encoding: 65543 -1 120
Width: 1340
GlyphClass: 2
Flags: W
LayerCount: 2
Fore
SplineSet
1238 0 m 1,0,-1
 1086 0 l 1,1,-1
 1086 948 l 2,2,3
 1086 1032 1086 1032 1032 1106 c 0,4,5
 964 1200 964 1200 842 1200 c 0,6,7
 750 1200 750 1200 686 1148 c 128,-1,8
 622 1096 622 1096 622 1012 c 0,9,10
 622 964 622 964 644 908 c 0,11,12
 660 870 660 870 678 844 c 1,13,-1
 930 844 l 1,14,-1
 930 692 l 1,15,-1
 688 692 l 1,16,-1
 688 512 l 1,17,-1
 774 512 l 2,18,19
 876 512 876 512 943 441 c 128,-1,20
 1010 370 1010 370 1010 254 c 0,21,22
 1010 116 1010 116 928 48 c 0,23,24
 870 0 870 0 798 0 c 0,25,26
 760 0 760 0 716 10 c 0,27,28
 702 12 702 12 680 20 c 1,29,-1
 722 158 l 1,30,31
 738 152 738 152 758 147 c 128,-1,32
 778 142 778 142 798 142 c 0,33,34
 828 144 828 144 845 175 c 128,-1,35
 862 206 862 206 862 248 c 0,36,37
 862 320 862 320 814 346 c 0,38,39
 798 354 798 354 766 358 c 1,40,-1
 688 358 l 1,41,-1
 688 276 l 1,42,43
 678 184 678 184 654 138 c 0,44,45
 578 0 578 0 374 0 c 0,46,47
 236 0 236 0 138 78 c 0,48,49
 30 164 30 164 30 296 c 0,50,51
 30 380 30 380 86 436 c 0,52,53
 150 498 150 498 240 508 c 1,54,-1
 240 844 l 1,55,-1
 512 844 l 1,56,57
 494 870 494 870 480 914 c 128,-1,58
 466 958 466 958 466 1014 c 0,59,60
 466 1158 466 1158 576 1249 c 128,-1,61
 686 1340 686 1340 842 1340 c 0,62,63
 1004 1340 1004 1340 1108 1244 c 0,64,65
 1238 1124 1238 1124 1238 954 c 2,66,-1
 1238 0 l 1,0,-1
534 512 m 1,67,-1
 534 692 l 1,68,-1
 394 692 l 1,69,-1
 394 512 l 1,70,-1
 534 512 l 1,67,-1
534 270 m 2,71,-1
 534 358 l 1,72,-1
 276 358 l 2,73,74
 228 358 228 358 206 342 c 128,-1,75
 184 326 184 326 184 294 c 0,76,77
 184 226 184 226 237 183 c 128,-1,78
 290 140 290 140 372 140 c 0,79,80
 448 140 448 140 491 180 c 128,-1,81
 534 220 534 220 534 270 c 2,71,-1
EndSplineSet
Ligature2: "'psts' Post Base Substitutions lookup 8 subtable" tm_ka tm_ikaar
EndChar

StartChar: tm_ng_ikaar
Encoding: 65544 -1 121
Width: 1740
GlyphClass: 2
Flags: W
LayerCount: 2
Fore
SplineSet
1634 0 m 1,0,-1
 1480 0 l 1,1,-1
 1480 830 l 2,2,3
 1480 1190 1480 1190 1230 1190 c 0,4,5
 1138 1190 1138 1190 1061 1115 c 128,-1,6
 984 1040 984 1040 984 928 c 0,7,8
 984 824 984 824 1037 764 c 128,-1,9
 1090 704 1090 704 1178 704 c 1,10,-1
 1178 844 l 1,11,-1
 1332 844 l 1,12,-1
 1332 0 l 1,13,-1
 358 0 l 1,14,-1
 358 154 l 1,15,-1
 666 154 l 1,16,17
 694 168 694 168 708 182 c 0,18,19
 750 224 750 224 750 296 c 0,20,21
 750 344 750 344 716 380 c 128,-1,22
 682 416 682 416 636 416 c 0,23,24
 584 416 584 416 552 392 c 0,25,26
 530 374 530 374 510 334 c 1,27,-1
 510 218 l 1,28,-1
 358 218 l 1,29,-1
 358 692 l 1,30,-1
 176 692 l 1,31,-1
 176 0 l 1,32,-1
 24 0 l 1,33,-1
 24 844 l 1,34,-1
 750 844 l 1,35,-1
 750 692 l 1,36,-1
 510 692 l 1,37,-1
 510 518 l 1,38,39
 536 532 536 532 574 540 c 128,-1,40
 612 548 612 548 642 548 c 0,41,42
 746 548 746 548 823 477 c 128,-1,43
 900 406 900 406 900 300 c 0,44,45
 900 216 900 216 856 154 c 1,46,-1
 1178 154 l 1,47,-1
 1178 554 l 1,48,49
 1022 572 1022 572 925 667 c 128,-1,50
 828 762 828 762 828 920 c 0,51,52
 828 1094 828 1094 944 1212 c 128,-1,53
 1060 1330 1060 1330 1230 1330 c 0,54,55
 1430 1330 1430 1330 1536 1190 c 0,56,57
 1634 1060 1634 1060 1634 832 c 2,58,-1
 1634 0 l 1,0,-1
EndSplineSet
Ligature2: "'psts' Post Base Substitutions lookup 8 subtable" tm_nga tm_ikaar
EndChar

StartChar: tm_c_ikaar
Encoding: 65545 -1 122
Width: 1260
GlyphClass: 2
Flags: W
LayerCount: 2
Fore
SplineSet
1150 0 m 1,0,-1
 996 0 l 1,1,-1
 996 906 l 2,2,3
 996 1024 996 1024 938 1104 c 0,4,5
 872 1194 872 1194 766 1194 c 0,6,7
 680 1194 680 1194 625 1143 c 128,-1,8
 570 1092 570 1092 570 1012 c 0,9,10
 570 958 570 958 600 908 c 0,11,12
 618 876 618 876 654 844 c 1,13,-1
 894 844 l 1,14,-1
 894 692 l 1,15,-1
 686 692 l 1,16,-1
 686 512 l 1,17,-1
 894 512 l 1,18,-1
 894 358 l 1,19,-1
 686 358 l 1,20,-1
 686 276 l 1,21,22
 674 184 674 184 650 138 c 0,23,24
 574 0 574 0 372 0 c 0,25,26
 232 0 232 0 134 78 c 0,27,28
 28 162 28 162 28 296 c 0,29,30
 28 382 28 382 82 436 c 0,31,32
 146 498 146 498 238 508 c 1,33,-1
 238 844 l 1,34,-1
 466 844 l 1,35,36
 442 876 442 876 429 917 c 128,-1,37
 416 958 416 958 416 1014 c 0,38,39
 416 1156 416 1156 518 1247 c 128,-1,40
 620 1338 620 1338 768 1338 c 0,41,42
 962 1338 962 1338 1068 1178 c 0,43,44
 1150 1054 1150 1054 1150 904 c 2,45,-1
 1150 0 l 1,0,-1
532 512 m 1,46,-1
 532 692 l 1,47,-1
 392 692 l 1,48,-1
 392 512 l 1,49,-1
 532 512 l 1,46,-1
532 270 m 2,50,-1
 532 358 l 1,51,-1
 274 358 l 2,52,53
 234 358 234 358 216 350 c 0,54,55
 180 334 180 334 180 294 c 0,56,57
 180 224 180 224 233 181 c 128,-1,58
 286 138 286 138 370 138 c 0,59,60
 444 138 444 138 488 178 c 128,-1,61
 532 218 532 218 532 270 c 2,50,-1
EndSplineSet
Ligature2: "'psts' Post Base Substitutions lookup 8 subtable" tm_ca tm_ikaar
EndChar

StartChar: tm_j_ikaar
Encoding: 65546 -1 123
Width: 1600
GlyphClass: 2
Flags: W
LayerCount: 2
Fore
SplineSet
1494 0 m 1,0,-1
 1342 0 l 1,1,-1
 1342 888 l 2,2,3
 1342 1014 1342 1014 1278 1090 c 0,4,5
 1208 1174 1208 1174 1080 1174 c 0,6,7
 1000 1174 1000 1174 944 1120 c 128,-1,8
 888 1066 888 1066 888 1000 c 0,9,10
 888 906 888 906 914 870 c 0,11,12
 922 858 922 858 942 850 c 0,13,14
 1050 822 1050 822 1102 788 c 0,15,16
 1262 684 1262 684 1262 470 c 0,17,18
 1262 298 1262 298 1134 186 c 0,19,20
 1014 80 1014 80 846 80 c 2,21,-1
 368 80 l 2,22,23
 278 80 278 80 222 8 c 128,-1,24
 166 -64 166 -64 166 -158 c 0,25,26
 166 -242 166 -242 213 -305 c 128,-1,27
 260 -368 260 -368 334 -368 c 0,28,29
 406 -368 406 -368 464 -308 c 0,30,31
 476 -296 476 -296 572 -164 c 0,32,33
 656 -44 656 -44 758 -4 c 0,34,35
 824 22 824 22 942 22 c 0,36,37
 1076 22 1076 22 1164 -56 c 128,-1,38
 1252 -134 1252 -134 1252 -242 c 0,39,40
 1252 -348 1252 -348 1194 -422 c 0,41,42
 1122 -514 1122 -514 986 -514 c 0,43,44
 882 -514 882 -514 810 -466 c 128,-1,45
 738 -418 738 -418 738 -352 c 0,46,47
 738 -320 738 -320 750 -307 c 128,-1,48
 762 -294 762 -294 784 -288 c 0,49,50
 812 -280 812 -280 836 -300 c 0,51,52
 842 -304 842 -304 870 -338 c 0,53,54
 886 -356 886 -356 916 -370 c 128,-1,55
 946 -384 946 -384 978 -382 c 0,56,57
 1042 -382 1042 -382 1072 -343 c 128,-1,58
 1102 -304 1102 -304 1102 -246 c 0,59,60
 1102 -184 1102 -184 1052 -148 c 128,-1,61
 1002 -112 1002 -112 940 -112 c 0,62,63
 854 -112 854 -112 795 -143 c 128,-1,64
 736 -174 736 -174 676 -264 c 0,65,66
 602 -384 602 -384 570 -416 c 0,67,68
 476 -510 476 -510 340 -510 c 0,69,70
 196 -510 196 -510 101 -403 c 128,-1,71
 6 -296 6 -296 6 -152 c 0,72,73
 6 6 6 6 101 120 c 128,-1,74
 196 234 196 234 358 234 c 2,75,-1
 848 234 l 2,76,77
 946 234 946 234 1028 304 c 128,-1,78
 1110 374 1110 374 1110 472 c 0,79,80
 1110 566 1110 566 1062 635 c 128,-1,81
 1014 704 1014 704 932 704 c 0,82,83
 852 704 852 704 801 651 c 128,-1,84
 750 598 750 598 750 512 c 2,85,-1
 750 296 l 1,86,-1
 598 296 l 1,87,-1
 598 514 l 2,88,89
 598 610 598 610 516 664 c 0,90,91
 450 708 450 708 368 708 c 0,92,93
 336 708 336 708 320 705 c 128,-1,94
 304 702 304 702 278 692 c 1,95,96
 320 692 320 692 342 688 c 0,97,98
 404 674 404 674 444 630 c 0,99,100
 494 576 494 576 494 488 c 0,101,102
 494 388 494 388 431 334 c 128,-1,103
 368 280 368 280 270 280 c 0,104,105
 168 280 168 280 100 352 c 128,-1,106
 32 424 32 424 32 532 c 0,107,108
 32 664 32 664 134 754 c 128,-1,109
 236 844 236 844 374 844 c 0,110,111
 478 844 478 844 560 810 c 128,-1,112
 642 776 642 776 678 714 c 1,113,114
 700 752 700 752 729 777 c 128,-1,115
 758 802 758 802 790 816 c 1,116,117
 764 856 764 856 749 909 c 128,-1,118
 734 962 734 962 734 1000 c 0,119,120
 734 1134 734 1134 850 1228 c 0,121,122
 956 1314 956 1314 1084 1314 c 0,123,124
 1296 1314 1296 1314 1406 1166 c 0,125,126
 1494 1048 1494 1048 1494 892 c 2,127,-1
 1494 0 l 1,0,-1
356 500 m 0,128,129
 356 538 356 538 330 562 c 128,-1,130
 304 586 304 586 268 586 c 0,131,132
 230 586 230 586 204 562 c 128,-1,133
 178 538 178 538 178 500 c 0,134,135
 178 466 178 466 205 441 c 128,-1,136
 232 416 232 416 268 416 c 0,137,138
 306 416 306 416 331 437 c 128,-1,139
 356 458 356 458 356 500 c 0,128,129
EndSplineSet
Ligature2: "'psts' Post Base Substitutions lookup 8 subtable" tm_ja tm_ikaar
EndChar

StartChar: tm_ny_ikaar
Encoding: 65547 -1 124
Width: 2030
GlyphClass: 2
Flags: W
LayerCount: 2
Fore
SplineSet
1920 0 m 1,0,-1
 1766 0 l 1,1,-1
 1766 916 l 2,2,3
 1766 1036 1766 1036 1679 1115 c 128,-1,4
 1592 1194 1592 1194 1472 1194 c 0,5,6
 1372 1194 1372 1194 1287 1140 c 128,-1,7
 1202 1086 1202 1086 1202 1010 c 0,8,9
 1202 950 1202 950 1218 902 c 0,10,11
 1228 872 1228 872 1248 844 c 1,12,-1
 1556 844 l 1,13,-1
 1556 692 l 1,14,-1
 1252 692 l 1,15,-1
 1252 486 l 1,16,17
 1268 494 1268 494 1297 503 c 128,-1,18
 1326 512 1326 512 1354 512 c 0,19,20
 1480 512 1480 512 1560 422 c 128,-1,21
 1640 332 1640 332 1640 188 c 0,22,23
 1640 52 1640 52 1599 -48 c 128,-1,24
 1558 -148 1558 -148 1466 -236 c 0,25,26
 1356 -344 1356 -344 1208 -399 c 128,-1,27
 1060 -454 1060 -454 904 -454 c 0,28,29
 742 -454 742 -454 598 -404 c 0,30,31
 432 -346 432 -346 306 -228 c 128,-1,32
 180 -110 180 -110 110 24 c 0,33,34
 28 182 28 182 28 356 c 0,35,36
 28 494 28 494 54 597 c 128,-1,37
 80 700 80 700 156 812 c 1,38,-1
 170 836 l 1,39,-1
 288 760 l 1,40,-1
 270 734 l 2,41,42
 216 654 216 654 196 536 c 0,43,44
 184 462 184 462 184 348 c 0,45,46
 184 220 184 220 258 78 c 0,47,48
 324 -48 324 -48 414 -126 c 0,49,50
 518 -212 518 -212 642 -262 c 128,-1,51
 766 -312 766 -312 904 -312 c 0,52,53
 1022 -312 1022 -312 1162 -255 c 128,-1,54
 1302 -198 1302 -198 1366 -128 c 128,-1,55
 1430 -58 1430 -58 1456 11 c 128,-1,56
 1482 80 1482 80 1482 198 c 0,57,58
 1482 258 1482 258 1454 306 c 0,59,60
 1418 370 1418 370 1352 370 c 0,61,62
 1300 370 1300 370 1272 332 c 0,63,64
 1264 320 1264 320 1252 292 c 1,65,-1
 1252 0 l 1,66,-1
 1100 0 l 1,67,-1
 1100 692 l 1,68,-1
 716 692 l 1,69,70
 622 678 622 678 576 652 c 0,71,72
 436 570 436 570 436 366 c 0,73,74
 436 314 436 314 447 278 c 128,-1,75
 458 242 458 242 474 218 c 1,76,-1
 468 286 l 1,77,78
 468 370 468 370 530 436 c 0,79,80
 600 510 600 510 704 510 c 0,81,82
 812 510 812 510 880 426 c 0,83,84
 942 350 942 350 942 246 c 0,85,86
 942 154 942 154 869 79 c 128,-1,87
 796 4 796 4 672 4 c 0,88,89
 502 4 502 4 398 106 c 128,-1,90
 294 208 294 208 294 372 c 0,91,92
 294 574 294 574 414 696 c 0,93,94
 500 782 500 782 638 822 c 0,95,96
 716 844 716 844 760 844 c 2,97,-1
 1080 844 l 1,98,99
 1048 912 1048 912 1048 1010 c 0,100,101
 1048 1152 1048 1152 1178 1245 c 128,-1,102
 1308 1338 1308 1338 1468 1338 c 0,103,104
 1676 1338 1676 1338 1804 1202 c 0,105,106
 1920 1078 1920 1078 1920 916 c 2,107,-1
 1920 0 l 1,0,-1
790 256 m 0,108,109
 790 306 790 306 765 342 c 128,-1,110
 740 378 740 378 694 378 c 0,111,112
 644 378 644 378 616 344 c 128,-1,113
 588 310 588 310 588 262 c 256,114,115
 588 214 588 214 614 180 c 128,-1,116
 640 146 640 146 682 146 c 0,117,118
 730 146 730 146 760 178 c 128,-1,119
 790 210 790 210 790 256 c 0,108,109
EndSplineSet
Ligature2: "'psts' Post Base Substitutions lookup 8 subtable" tm_nya tm_ikaar
EndChar

StartChar: tm_tt_ikaar
Encoding: 65548 -1 125
Width: 1330
GlyphClass: 2
Flags: W
LayerCount: 2
Fore
SplineSet
1224 0 m 1,0,-1
 840 0 l 1,1,-1
 840 -412 l 1,2,-1
 686 -412 l 1,3,-1
 686 0 l 1,4,-1
 24 0 l 1,5,-1
 24 844 l 1,6,-1
 176 844 l 1,7,-1
 176 154 l 1,8,-1
 384 154 l 1,9,10
 350 198 350 198 330 248 c 0,11,12
 304 316 304 316 304 394 c 0,13,14
 304 498 304 498 380 582 c 0,15,16
 464 674 464 674 586 674 c 0,17,18
 716 674 716 674 784 590 c 0,19,20
 840 522 840 522 840 430 c 2,21,-1
 840 154 l 1,22,-1
 1224 154 l 1,23,-1
 1224 0 l 1,0,-1
686 154 m 1,24,-1
 686 422 l 2,25,26
 686 474 686 474 658 501 c 128,-1,27
 630 528 630 528 584 528 c 0,28,29
 532 528 532 528 494 484 c 128,-1,30
 456 440 456 440 456 390 c 0,31,32
 456 296 456 296 512 224 c 0,33,34
 540 188 540 188 590 154 c 1,35,-1
 686 154 l 1,24,-1
EndSplineSet
Ligature2: "'psts' Post Base Substitutions lookup 8 subtable" tm_tta tm_ikaar
EndChar

StartChar: tm_nn_ikaar
Encoding: 65549 -1 126
Width: 2450
GlyphClass: 2
Flags: W
LayerCount: 2
Fore
SplineSet
2336 0 m 1,0,-1
 2180 0 l 1,1,-1
 2180 960 l 2,2,3
 2180 1066 2180 1066 2122 1130 c 0,4,5
 2058 1200 2058 1200 1946 1200 c 0,6,7
 1852 1200 1852 1200 1789 1143 c 128,-1,8
 1726 1086 1726 1086 1726 1012 c 0,9,10
 1726 958 1726 958 1766 906 c 0,11,12
 1786 880 1786 880 1828 844 c 1,13,-1
 2074 844 l 1,14,-1
 2074 692 l 1,15,-1
 1854 692 l 1,16,-1
 1854 0 l 1,17,-1
 1700 0 l 1,18,-1
 1700 692 l 1,19,-1
 1562 692 l 1,20,-1
 1480 674 l 1,21,22
 1534 586 1534 586 1564 503 c 128,-1,23
 1594 420 1594 420 1594 356 c 0,24,25
 1594 194 1594 194 1550 106 c 0,26,27
 1498 0 1498 0 1384 0 c 0,28,29
 1272 0 1272 0 1216 114 c 0,30,31
 1168 210 1168 210 1168 352 c 0,32,33
 1168 458 1168 458 1212 562 c 0,34,35
 1240 628 1240 628 1278 678 c 1,36,37
 1238 692 1238 692 1195 699 c 128,-1,38
 1152 706 1152 706 1124 706 c 0,39,40
 1090 706 1090 706 1051 696 c 128,-1,41
 1012 686 1012 686 986 676 c 1,42,43
 1032 586 1032 586 1062 494 c 128,-1,44
 1092 402 1092 402 1092 338 c 0,45,46
 1092 178 1092 178 1046 94 c 0,47,48
 994 0 994 0 886 0 c 0,49,50
 782 0 782 0 724 108 c 0,51,52
 674 202 674 202 674 340 c 0,53,54
 674 416 674 416 720 536 c 0,55,56
 736 580 736 580 780 672 c 1,57,58
 750 688 750 688 682 698 c 128,-1,59
 614 708 614 708 544 708 c 0,60,61
 366 708 366 708 260 594 c 0,62,63
 162 488 162 488 162 334 c 0,64,65
 162 312 162 312 166 289 c 128,-1,66
 170 266 170 266 174 254 c 1,67,68
 174 354 174 354 228 422 c 0,69,70
 290 500 290 500 390 500 c 0,71,72
 494 500 494 500 556 412 c 0,73,74
 610 336 610 336 610 236 c 0,75,76
 610 132 610 132 542 64 c 128,-1,77
 474 -4 474 -4 374 -4 c 0,78,79
 240 -4 240 -4 138 92 c 0,80,81
 26 198 26 198 26 362 c 0,82,83
 26 556 26 556 172 696 c 0,84,85
 326 844 326 844 558 844 c 0,86,87
 662 844 662 844 752 822 c 128,-1,88
 842 800 842 800 884 772 c 1,89,90
 916 798 916 798 978 818 c 0,91,92
 1054 844 1054 844 1124 844 c 0,93,94
 1208 844 1208 844 1292 816 c 0,95,96
 1350 798 1350 798 1382 776 c 1,97,98
 1390 782 1390 782 1420 798 c 0,99,100
 1462 820 1462 820 1487 828 c 128,-1,101
 1512 836 1512 836 1562 840 c 128,-1,102
 1612 844 1612 844 1644 844 c 1,103,104
 1616 882 1616 882 1600 914 c 0,105,106
 1574 966 1574 966 1574 1014 c 0,107,108
 1574 1160 1574 1160 1682 1251 c 128,-1,109
 1790 1342 1790 1342 1942 1342 c 0,110,111
 2144 1342 2144 1342 2250 1212 c 0,112,113
 2336 1108 2336 1108 2336 964 c 2,114,-1
 2336 0 l 1,0,-1
1450 356 m 2,115,116
 1450 426 1450 426 1420 504 c 0,117,118
 1402 554 1402 554 1374 594 c 1,119,120
 1342 530 1342 530 1324 464 c 128,-1,121
 1306 398 1306 398 1306 348 c 0,122,123
 1306 248 1306 248 1314 212 c 0,124,125
 1330 140 1330 140 1380 140 c 0,126,127
 1414 140 1414 140 1432 175 c 128,-1,128
 1450 210 1450 210 1450 312 c 2,129,-1
 1450 356 l 2,115,116
952 342 m 0,130,131
 952 396 952 396 924 476 c 0,132,133
 910 516 910 516 882 578 c 1,134,135
 852 516 852 516 834 450 c 128,-1,136
 816 384 816 384 816 342 c 0,137,138
 816 250 816 250 827 194 c 128,-1,139
 838 138 838 138 884 138 c 0,140,141
 934 138 934 138 946 240 c 0,142,143
 952 290 952 290 952 342 c 0,130,131
466 250 m 0,144,145
 466 302 466 302 443 334 c 128,-1,146
 420 366 420 366 376 366 c 0,147,148
 338 366 338 366 314 331 c 128,-1,149
 290 296 290 296 290 250 c 256,150,151
 290 204 290 204 314 172 c 128,-1,152
 338 140 338 140 380 140 c 0,153,154
 420 140 420 140 443 170 c 128,-1,155
 466 200 466 200 466 250 c 0,144,145
EndSplineSet
Ligature2: "'psts' Post Base Substitutions lookup 8 subtable" tm_nna tm_ikaar
EndChar

StartChar: tm_t_ikaar
Encoding: 65550 -1 127
Width: 1360
GlyphClass: 2
Flags: W
LayerCount: 2
Fore
SplineSet
1252 0 m 1,0,-1
 1100 0 l 1,1,-1
 1100 944 l 2,2,3
 1100 1018 1100 1018 1032 1100 c 0,4,5
 954 1194 954 1194 850 1194 c 0,6,7
 752 1194 752 1194 690 1139 c 128,-1,8
 628 1084 628 1084 628 1010 c 0,9,10
 628 946 628 946 639 906 c 128,-1,11
 650 866 650 866 664 844 c 1,12,-1
 904 844 l 1,13,-1
 904 692 l 1,14,-1
 690 692 l 1,15,-1
 690 512 l 1,16,-1
 756 512 l 2,17,18
 892 512 892 512 966 400 c 0,19,20
 1026 310 1026 310 1026 194 c 0,21,22
 1026 -20 1026 -20 884 -148 c 0,23,24
 768 -252 768 -252 628 -252 c 2,25,-1
 248 -252 l 2,26,27
 218 -252 218 -252 204 -256 c 0,28,29
 160 -272 160 -272 160 -334 c 0,30,31
 160 -370 160 -370 174 -392 c 0,32,33
 178 -398 178 -398 188 -406 c 2,34,-1
 208 -420 l 1,35,-1
 120 -524 l 1,36,-1
 92 -506 l 1,37,38
 12 -460 12 -460 12 -318 c 0,39,40
 12 -218 12 -218 79 -158 c 128,-1,41
 146 -98 146 -98 244 -98 c 2,42,-1
 628 -98 l 2,43,44
 746 -98 746 -98 810 -10 c 0,45,46
 868 68 868 68 868 186 c 0,47,48
 868 258 868 258 846 302 c 0,49,50
 818 358 818 358 758 358 c 2,51,-1
 690 358 l 1,52,-1
 690 276 l 1,53,54
 678 184 678 184 654 138 c 0,55,56
 576 0 576 0 374 0 c 0,57,58
 236 0 236 0 140 78 c 0,59,60
 36 162 36 162 36 296 c 0,61,62
 36 408 36 408 124 466 c 0,63,64
 174 500 174 500 242 510 c 1,65,-1
 242 844 l 1,66,-1
 502 844 l 1,67,68
 488 882 488 882 481 919 c 128,-1,69
 474 956 474 956 474 1014 c 0,70,71
 474 1144 474 1144 580 1242 c 128,-1,72
 686 1340 686 1340 848 1340 c 0,73,74
 1054 1340 1054 1340 1168 1180 c 0,75,76
 1252 1062 1252 1062 1252 946 c 2,77,-1
 1252 0 l 1,0,-1
536 512 m 1,78,-1
 536 692 l 1,79,-1
 396 692 l 1,80,-1
 396 512 l 1,81,-1
 536 512 l 1,78,-1
536 270 m 2,82,-1
 536 358 l 1,83,-1
 278 358 l 2,84,85
 230 358 230 358 208 342 c 128,-1,86
 186 326 186 326 186 294 c 0,87,88
 186 226 186 226 239 183 c 128,-1,89
 292 140 292 140 374 140 c 0,90,91
 450 140 450 140 493 180 c 128,-1,92
 536 220 536 220 536 270 c 2,82,-1
EndSplineSet
Ligature2: "'psts' Post Base Substitutions lookup 8 subtable" tm_ta tm_ikaar
EndChar

StartChar: tm_n_ikaar
Encoding: 65551 -1 128
Width: 1390
GlyphClass: 2
Flags: W
LayerCount: 2
Fore
SplineSet
1260 0 m 1,0,-1
 1106 0 l 1,1,-1
 1106 876 l 2,2,3
 1106 1020 1106 1020 1036 1112 c 128,-1,4
 966 1204 966 1204 840 1204 c 0,5,6
 728 1204 728 1204 660 1154 c 128,-1,7
 592 1104 592 1104 592 1014 c 0,8,9
 592 950 592 950 600 919 c 128,-1,10
 608 888 608 888 630 844 c 1,11,-1
 904 844 l 1,12,-1
 904 692 l 1,13,-1
 632 692 l 1,14,-1
 632 560 l 1,15,16
 668 572 668 572 695 578 c 128,-1,17
 722 584 722 584 744 584 c 0,18,19
 876 584 876 584 952 491 c 128,-1,20
 1028 398 1028 398 1028 254 c 0,21,22
 1028 40 1028 40 916 -106 c 128,-1,23
 804 -252 804 -252 626 -252 c 2,24,-1
 250 -252 l 2,25,26
 218 -252 218 -252 204 -256 c 0,27,28
 158 -272 158 -272 158 -334 c 0,29,30
 158 -372 158 -372 172 -392 c 0,31,32
 176 -398 176 -398 188 -406 c 2,33,-1
 206 -420 l 1,34,-1
 116 -524 l 1,35,-1
 88 -506 l 2,36,37
 10 -460 10 -460 10 -318 c 0,38,39
 10 -218 10 -218 77 -158 c 128,-1,40
 144 -98 144 -98 242 -98 c 2,41,-1
 654 -98 l 2,42,43
 752 -98 752 -98 814 22 c 0,44,45
 866 124 866 124 866 230 c 0,46,47
 866 312 866 312 842 368 c 0,48,49
 810 444 810 444 744 444 c 0,50,51
 710 444 710 444 681 428 c 128,-1,52
 652 412 652 412 632 382 c 1,53,-1
 632 0 l 1,54,-1
 478 0 l 1,55,-1
 478 692 l 1,56,-1
 298 692 l 1,57,-1
 298 0 l 1,58,-1
 146 0 l 1,59,-1
 146 844 l 1,60,-1
 468 844 l 1,61,62
 454 884 454 884 445 924 c 128,-1,63
 436 964 436 964 436 1010 c 0,64,65
 436 1160 436 1160 544 1253 c 128,-1,66
 652 1346 652 1346 832 1346 c 0,67,68
 1032 1346 1032 1346 1142 1228 c 0,69,70
 1260 1102 1260 1102 1260 904 c 2,71,-1
 1260 0 l 1,0,-1
EndSplineSet
Ligature2: "'psts' Post Base Substitutions lookup 8 subtable" tm_na tm_ikaar
EndChar

StartChar: tm_nnn_ikaar
Encoding: 65552 -1 129
Width: 1920
GlyphClass: 2
Flags: W
LayerCount: 2
Fore
SplineSet
1808 0 m 1,0,-1
 1654 0 l 1,1,-1
 1654 946 l 2,2,3
 1654 1034 1654 1034 1598 1114 c 0,4,5
 1532 1208 1532 1208 1434 1208 c 0,6,7
 1354 1208 1354 1208 1302 1147 c 128,-1,8
 1250 1086 1250 1086 1250 1016 c 0,9,10
 1250 952 1250 952 1270 915 c 128,-1,11
 1290 878 1290 878 1340 844 c 1,12,-1
 1568 844 l 1,13,-1
 1568 692 l 1,14,-1
 1412 692 l 1,15,-1
 1412 0 l 1,16,-1
 1258 0 l 1,17,-1
 1258 692 l 1,18,-1
 1108 690 l 2,19,20
 1088 690 1088 690 1064 678 c 0,21,22
 1056 674 1056 674 1042 664 c 1,23,24
 1092 610 1092 610 1126 513 c 128,-1,25
 1160 416 1160 416 1160 326 c 0,26,27
 1160 -16 1160 -16 944 -16 c 0,28,29
 832 -16 832 -16 774 94 c 0,30,31
 724 190 724 190 724 330 c 0,32,33
 724 410 724 410 770 522 c 0,34,35
 790 568 790 568 834 654 c 1,36,37
 786 678 786 678 715 692 c 128,-1,38
 644 706 644 706 568 706 c 0,39,40
 386 706 386 706 272 600 c 0,41,42
 166 502 166 502 166 364 c 0,43,44
 166 328 166 328 170 297 c 128,-1,45
 174 266 174 266 180 244 c 1,46,-1
 180 262 l 2,47,48
 180 372 180 372 268 440 c 0,49,50
 338 494 338 494 408 494 c 0,51,52
 518 494 518 494 586 422 c 128,-1,53
 654 350 654 350 654 244 c 0,54,55
 654 132 654 132 594 60 c 0,56,57
 528 -20 528 -20 404 -20 c 0,58,59
 248 -20 248 -20 137 93 c 128,-1,60
 26 206 26 206 26 376 c 0,61,62
 26 572 26 572 179 710 c 128,-1,63
 332 848 332 848 566 848 c 0,64,65
 706 848 706 848 816 810 c 0,66,67
 878 788 878 788 926 758 c 1,68,69
 946 774 946 774 970 790 c 128,-1,70
 994 806 994 806 1010 814 c 0,71,72
 1042 828 1042 828 1083 835 c 128,-1,73
 1124 842 1124 842 1158 842 c 1,74,75
 1128 882 1128 882 1114 919 c 128,-1,76
 1100 956 1100 956 1100 1014 c 0,77,78
 1100 1156 1100 1156 1195 1251 c 128,-1,79
 1290 1346 1290 1346 1430 1346 c 0,80,81
 1628 1346 1628 1346 1732 1188 c 0,82,83
 1808 1072 1808 1072 1808 946 c 2,84,-1
 1808 0 l 1,0,-1
1012 330 m 0,85,86
 1012 390 1012 390 986 464 c 0,87,88
 970 508 970 508 946 554 c 1,89,90
 926 518 926 518 904 458 c 0,91,92
 874 376 874 376 874 332 c 0,93,94
 874 242 874 242 889 181 c 128,-1,95
 904 120 904 120 944 120 c 256,96,97
 984 120 984 120 998 182 c 128,-1,98
 1012 244 1012 244 1012 330 c 0,85,86
512 234 m 0,99,100
 512 288 512 288 484 325 c 128,-1,101
 456 362 456 362 408 362 c 0,102,103
 364 362 364 362 335 327 c 128,-1,104
 306 292 306 292 306 242 c 0,105,106
 306 188 306 188 333 150 c 128,-1,107
 360 112 360 112 406 112 c 0,108,109
 448 112 448 112 480 148 c 128,-1,110
 512 184 512 184 512 234 c 0,99,100
EndSplineSet
Ligature2: "'psts' Post Base Substitutions lookup 8 subtable" tm_nnna tm_ikaar
EndChar

StartChar: tm_p_ikaar
Encoding: 65553 -1 130
Width: 1430
GlyphClass: 2
Flags: W
LayerCount: 2
Fore
SplineSet
1316 0 m 1,0,-1
 1162 0 l 1,1,-1
 1162 888 l 2,2,3
 1162 1016 1162 1016 1098 1104 c 0,4,5
 1028 1200 1028 1200 912 1200 c 0,6,7
 798 1200 798 1200 718 1122 c 128,-1,8
 638 1044 638 1044 638 918 c 0,9,10
 638 814 638 814 699 749 c 128,-1,11
 760 684 760 684 856 684 c 1,12,-1
 856 844 l 1,13,-1
 1014 844 l 1,14,-1
 1014 0 l 1,15,-1
 28 0 l 1,16,-1
 28 844 l 1,17,-1
 180 844 l 1,18,-1
 180 154 l 1,19,-1
 856 154 l 1,20,-1
 856 540 l 1,21,22
 706 540 706 540 594 650 c 0,23,24
 490 752 490 752 490 920 c 0,25,26
 490 1096 490 1096 611 1215 c 128,-1,27
 732 1334 732 1334 912 1334 c 0,28,29
 1094 1334 1094 1334 1210 1194 c 0,30,31
 1316 1066 1316 1066 1316 890 c 2,32,-1
 1316 0 l 1,0,-1
EndSplineSet
Ligature2: "'psts' Post Base Substitutions lookup 8 subtable" tm_pa tm_ikaar
EndChar

StartChar: tm_m_ikaar
Encoding: 65554 -1 131
Width: 1520
GlyphClass: 2
Flags: W
LayerCount: 2
Fore
SplineSet
1414 0 m 1,0,-1
 1262 0 l 1,1,-1
 1262 918 l 2,2,3
 1262 1044 1262 1044 1196 1122 c 128,-1,4
 1130 1200 1130 1200 1018 1200 c 0,5,6
 936 1200 936 1200 879 1143 c 128,-1,7
 822 1086 822 1086 822 1014 c 0,8,9
 822 972 822 972 848 914 c 0,10,11
 866 872 866 872 886 846 c 1,12,13
 1016 764 1016 764 1078 660 c 0,14,15
 1158 524 1158 524 1158 350 c 0,16,17
 1158 210 1158 210 1106 126 c 0,18,19
 1028 0 1028 0 842 0 c 2,20,-1
 24 0 l 1,21,-1
 24 844 l 1,22,-1
 176 844 l 1,23,-1
 176 154 l 1,24,-1
 498 154 l 1,25,-1
 498 600 l 2,26,27
 500 664 500 664 512 700 c 0,28,29
 534 760 534 760 588 806 c 0,30,31
 612 830 612 830 643 842 c 128,-1,32
 674 854 674 854 706 860 c 1,33,34
 690 894 690 894 681 934 c 128,-1,35
 672 974 672 974 672 1030 c 0,36,37
 672 1162 672 1162 772 1250 c 128,-1,38
 872 1338 872 1338 1022 1338 c 0,39,40
 1218 1338 1218 1338 1328 1190 c 0,41,42
 1414 1076 1414 1076 1414 942 c 2,43,-1
 1414 0 l 1,0,-1
1006 316 m 0,44,45
 1006 488 1006 488 926 607 c 128,-1,46
 846 726 846 726 754 726 c 0,47,48
 714 726 714 726 685 693 c 128,-1,49
 656 660 656 660 656 612 c 2,50,-1
 656 154 l 1,51,-1
 872 154 l 2,52,53
 930 154 930 154 968 196 c 128,-1,54
 1006 238 1006 238 1006 316 c 0,44,45
EndSplineSet
Ligature2: "'psts' Post Base Substitutions lookup 8 subtable" tm_ma tm_ikaar
EndChar

StartChar: tm_y_ikaar
Encoding: 65555 -1 132
Width: 1620
GlyphClass: 2
Flags: W
LayerCount: 2
Fore
SplineSet
1508 0 m 1,0,-1
 1356 0 l 1,1,-1
 1356 888 l 2,2,3
 1356 1010 1356 1010 1282 1100 c 128,-1,4
 1208 1190 1208 1190 1092 1190 c 0,5,6
 978 1190 978 1190 899 1117 c 128,-1,7
 820 1044 820 1044 820 922 c 0,8,9
 820 822 820 822 879 761 c 128,-1,10
 938 700 938 700 1042 690 c 1,11,-1
 1042 844 l 1,12,-1
 1194 844 l 1,13,-1
 1194 0 l 1,14,-1
 392 0 l 1,15,-1
 392 82 l 1,16,17
 356 42 356 42 342 32 c 0,18,19
 300 0 300 0 254 0 c 0,20,21
 146 0 146 0 82 82 c 0,22,23
 26 154 26 154 26 246 c 2,24,-1
 26 844 l 1,25,-1
 178 844 l 1,26,-1
 178 242 l 2,27,28
 178 202 178 202 202 174 c 128,-1,29
 226 146 226 146 264 146 c 0,30,31
 320 146 320 146 362 200 c 0,32,33
 374 218 374 218 392 254 c 1,34,-1
 392 844 l 1,35,-1
 546 844 l 1,36,-1
 546 154 l 1,37,-1
 1042 154 l 1,38,-1
 1042 546 l 1,39,40
 868 570 868 570 774 660 c 0,41,42
 670 758 670 758 670 920 c 0,43,44
 670 1094 670 1094 790 1212 c 128,-1,45
 910 1330 910 1330 1092 1330 c 0,46,47
 1278 1330 1278 1330 1398 1192 c 0,48,49
 1508 1066 1508 1066 1508 890 c 2,50,-1
 1508 0 l 1,0,-1
EndSplineSet
Ligature2: "'psts' Post Base Substitutions lookup 8 subtable" tm_ya tm_ikaar
EndChar

StartChar: tm_r_ikaar
Encoding: 65556 -1 133
Width: 1080
GlyphClass: 2
Flags: W
LayerCount: 2
Fore
SplineSet
332 844 m 1,0,1
 310 882 310 882 297 922 c 128,-1,2
 284 962 284 962 284 1008 c 0,3,4
 284 1152 284 1152 378 1250 c 128,-1,5
 472 1348 472 1348 606 1348 c 0,6,7
 808 1348 808 1348 908 1188 c 0,8,9
 978 1078 978 1078 978 946 c 2,10,-1
 978 0 l 1,11,-1
 826 0 l 1,12,-1
 826 940 l 2,13,14
 826 1032 826 1032 782 1106 c 0,15,16
 724 1204 724 1204 608 1204 c 0,17,18
 532 1204 532 1204 483 1149 c 128,-1,19
 434 1094 434 1094 434 1010 c 0,20,21
 434 968 434 968 456 921 c 128,-1,22
 478 874 478 874 502 844 c 1,23,-1
 766 844 l 1,24,-1
 766 692 l 1,25,-1
 588 692 l 1,26,-1
 588 12 l 1,27,28
 583 9 583 9 578 6 c 1,29,-1
 578 0 l 1,30,-1
 566 0 l 1,31,32
 535 -18 535 -18 516 -30 c 0,33,34
 438 -82 438 -82 398 -130 c 0,35,36
 360 -170 360 -170 336 -202 c 128,-1,37
 312 -234 312 -234 294 -270 c 2,38,-1
 278 -298 l 1,39,-1
 160 -218 l 1,40,-1
 174 -192 l 2,41,42
 194 -154 194 -154 212 -128 c 0,43,44
 214 -126 214 -126 296 -32 c 0,45,46
 328 4 328 4 374 42 c 0,47,48
 399 60 399 60 424 80 c 1,49,-1
 424 692 l 1,50,-1
 188 692 l 1,51,-1
 188 0 l 1,52,-1
 26 0 l 1,53,-1
 26 844 l 1,54,-1
 332 844 l 1,0,1
EndSplineSet
Ligature2: "'psts' Post Base Substitutions lookup 8 subtable" tm_ra tm_ikaar
EndChar

StartChar: tm_rr_ikaar
Encoding: 65557 -1 134
Width: 1350
GlyphClass: 2
Flags: W
LayerCount: 2
Fore
SplineSet
1232 0 m 1,0,-1
 1078 0 l 1,1,-1
 1078 930 l 2,2,3
 1078 1024 1078 1024 1030 1094 c 0,4,5
 966 1188 966 1188 842 1188 c 0,6,7
 752 1188 752 1188 696 1136 c 128,-1,8
 640 1084 640 1084 640 1004 c 0,9,10
 640 952 640 952 698 890 c 0,11,12
 716 870 716 870 756 838 c 1,13,14
 832 804 832 804 870 762 c 0,15,16
 984 636 984 636 984 386 c 0,17,18
 984 120 984 120 882 -52 c 0,19,20
 764 -252 764 -252 542 -252 c 2,21,-1
 244 -252 l 2,22,23
 218 -252 218 -252 206 -256 c 0,24,25
 168 -272 168 -272 168 -334 c 0,26,27
 168 -372 168 -372 182 -392 c 0,28,29
 186 -398 186 -398 198 -406 c 2,30,-1
 216 -420 l 1,31,-1
 128 -524 l 1,32,-1
 100 -506 l 2,33,34
 20 -456 20 -456 20 -318 c 0,35,36
 20 -218 20 -218 87 -158 c 128,-1,37
 154 -98 154 -98 252 -98 c 2,38,-1
 546 -98 l 2,39,40
 692 -98 692 -98 766 56 c 0,41,42
 828 186 828 186 828 376 c 0,43,44
 828 516 828 516 800 594 c 0,45,46
 762 702 762 702 668 702 c 0,47,48
 624 702 624 702 593 669 c 128,-1,49
 562 636 562 636 562 584 c 2,50,-1
 562 0 l 1,51,-1
 406 0 l 1,52,-1
 406 590 l 2,53,54
 406 634 406 634 378 668 c 128,-1,55
 350 702 350 702 308 702 c 0,56,57
 270 702 270 702 246 670 c 128,-1,58
 222 638 222 638 222 588 c 2,59,-1
 222 0 l 1,60,-1
 70 0 l 1,61,-1
 70 594 l 2,62,63
 70 694 70 694 133 769 c 128,-1,64
 196 844 196 844 302 844 c 0,65,66
 352 844 352 844 400 822 c 128,-1,67
 448 800 448 800 484 760 c 1,68,-1
 520 798 l 2,69,70
 524 802 524 802 540 811 c 128,-1,71
 556 820 556 820 562 822 c 1,72,73
 536 850 536 850 518 886 c 0,74,75
 490 942 490 942 490 1000 c 0,76,77
 490 1142 490 1142 588 1234 c 128,-1,78
 686 1326 686 1326 842 1326 c 0,79,80
 1046 1326 1046 1326 1154 1174 c 0,81,82
 1232 1064 1232 1064 1232 934 c 2,83,-1
 1232 0 l 1,0,-1
EndSplineSet
Ligature2: "'psts' Post Base Substitutions lookup 8 subtable" tm_rra tm_ikaar
EndChar

StartChar: tm_l_ikaar
Encoding: 65558 -1 135
Width: 1590
GlyphClass: 2
Flags: W
LayerCount: 2
Fore
SplineSet
1482 0 m 1,0,-1
 1330 0 l 1,1,-1
 1330 930 l 2,2,3
 1330 1028 1330 1028 1298 1086 c 0,4,5
 1246 1180 1246 1180 1122 1180 c 0,6,7
 1024 1180 1024 1180 962 1142 c 128,-1,8
 900 1104 900 1104 900 1026 c 0,9,10
 900 976 900 976 922 936 c 0,11,12
 936 910 936 910 1024 820 c 0,13,14
 1124 720 1124 720 1160 662 c 0,15,16
 1222 562 1222 562 1222 442 c 0,17,18
 1222 180 1222 180 1138 84 c 0,19,20
 1064 0 1064 0 916 0 c 0,21,22
 794 0 794 0 720 82 c 0,23,24
 654 156 654 156 654 254 c 2,25,-1
 654 528 l 2,26,27
 654 618 654 618 593 666 c 128,-1,28
 532 714 532 714 444 714 c 0,29,30
 318 714 318 714 246 634 c 0,31,32
 166 544 166 544 166 370 c 0,33,34
 166 318 166 318 178 276 c 0,35,36
 184 252 184 252 204 216 c 1,37,-1
 202 264 l 2,38,39
 202 328 202 328 257 389 c 128,-1,40
 312 450 312 450 394 450 c 0,41,42
 492 450 492 450 545 385 c 128,-1,43
 598 320 598 320 598 222 c 0,44,45
 598 126 598 126 536 62 c 128,-1,46
 474 -2 474 -2 372 -2 c 0,47,48
 216 -2 216 -2 122 110 c 128,-1,49
 28 222 28 222 28 380 c 0,50,51
 28 590 28 590 145 717 c 128,-1,52
 262 844 262 844 452 844 c 0,53,54
 618 844 618 844 720 736 c 0,55,56
 808 644 808 644 808 532 c 2,57,-1
 808 254 l 2,58,59
 808 208 808 208 840 174 c 128,-1,60
 872 140 872 140 918 140 c 0,61,62
 1024 140 1024 140 1054 230 c 0,63,64
 1074 288 1074 288 1074 454 c 0,65,66
 1074 542 1074 542 1004 634 c 0,67,68
 970 678 970 678 886 754 c 1,69,70
 824 816 824 816 792 872 c 0,71,72
 750 948 750 948 750 1038 c 0,73,74
 750 1160 750 1160 863 1239 c 128,-1,75
 976 1318 976 1318 1116 1318 c 0,76,77
 1320 1318 1320 1318 1414 1172 c 0,78,79
 1482 1068 1482 1068 1482 930 c 2,80,-1
 1482 0 l 1,0,-1
466 230 m 0,81,82
 466 274 466 274 447 305 c 128,-1,83
 428 336 428 336 388 336 c 0,84,85
 356 336 356 336 333 305 c 128,-1,86
 310 274 310 274 310 238 c 0,87,88
 310 190 310 190 329 162 c 128,-1,89
 348 134 348 134 390 134 c 0,90,91
 424 134 424 134 445 161 c 128,-1,92
 466 188 466 188 466 230 c 0,81,82
EndSplineSet
Ligature2: "'psts' Post Base Substitutions lookup 8 subtable" tm_la tm_ikaar
EndChar

StartChar: tm_ll_ikaar
Encoding: 65559 -1 136
Width: 1780
GlyphClass: 2
Flags: W
LayerCount: 2
Fore
SplineSet
1666 -2 m 1,0,-1
 1512 -2 l 1,1,-1
 1512 942 l 2,2,3
 1512 1038 1512 1038 1474 1106 c 0,4,5
 1420 1202 1420 1202 1302 1202 c 0,6,7
 1216 1202 1216 1202 1160 1148 c 128,-1,8
 1104 1094 1104 1094 1104 1016 c 0,9,10
 1104 956 1104 956 1132 904 c 0,11,12
 1154 864 1154 864 1180 844 c 1,13,-1
 1426 844 l 1,14,-1
 1426 692 l 1,15,-1
 1244 692 l 1,16,-1
 1244 0 l 1,17,-1
 1090 0 l 1,18,-1
 1090 692 l 1,19,-1
 894 692 l 1,20,-1
 894 0 l 1,21,-1
 740 0 l 1,22,-1
 740 534 l 1,23,24
 702 590 702 590 672 618 c 0,25,26
 576 704 576 704 450 704 c 0,27,28
 328 704 328 704 246 598 c 0,29,30
 174 504 174 504 174 394 c 0,31,32
 174 348 174 348 183 312 c 128,-1,33
 192 276 192 276 204 250 c 1,34,-1
 202 270 l 1,35,36
 202 356 202 356 265 428 c 128,-1,37
 328 500 328 500 424 500 c 0,38,39
 530 500 530 500 589 424 c 128,-1,40
 648 348 648 348 648 230 c 0,41,42
 648 130 648 130 580 60 c 128,-1,43
 512 -10 512 -10 406 -10 c 0,44,45
 248 -10 248 -10 139 109 c 128,-1,46
 30 228 30 228 30 398 c 0,47,48
 30 600 30 600 158 726 c 0,49,50
 278 844 278 844 454 844 c 0,51,52
 556 844 556 844 642 804 c 0,53,54
 696 778 696 778 740 740 c 1,55,-1
 740 844 l 1,56,-1
 1002 844 l 1,57,58
 980 872 980 872 967 916 c 128,-1,59
 954 960 954 960 954 1014 c 0,60,61
 954 1154 954 1154 1055 1249 c 128,-1,62
 1156 1344 1156 1344 1302 1344 c 0,63,64
 1498 1344 1498 1344 1596 1186 c 0,65,66
 1666 1074 1666 1074 1666 946 c 2,67,-1
 1666 -2 l 1,0,-1
504 254 m 0,68,69
 504 304 504 304 483 340 c 128,-1,70
 462 376 462 376 420 376 c 0,71,72
 382 376 382 376 357 337 c 128,-1,73
 332 298 332 298 332 250 c 0,74,75
 332 198 332 198 352 163 c 128,-1,76
 372 128 372 128 418 128 c 0,77,78
 466 128 466 128 485 164 c 128,-1,79
 504 200 504 200 504 254 c 0,68,69
EndSplineSet
Ligature2: "'psts' Post Base Substitutions lookup 8 subtable" tm_lla tm_ikaar
EndChar

StartChar: tm_lll_ikaar
Encoding: 65560 -1 137
Width: 1500
GlyphClass: 2
Flags: W
LayerCount: 2
Fore
SplineSet
1386 0 m 1,0,-1
 1232 0 l 1,1,-1
 1232 946 l 2,2,3
 1232 1030 1232 1030 1174 1104 c 0,4,5
 1104 1194 1104 1194 998 1194 c 0,6,7
 914 1194 914 1194 857 1137 c 128,-1,8
 800 1080 800 1080 800 1010 c 0,9,10
 800 958 800 958 828 900 c 0,11,12
 836 880 836 880 858 850 c 1,13,14
 956 792 956 792 1004 740 c 0,15,16
 1150 584 1150 584 1150 350 c 0,17,18
 1150 212 1150 212 1104 132 c 0,19,20
 1028 0 1028 0 840 0 c 2,21,-1
 660 0 l 1,22,23
 662 -14 662 -14 667 -36 c 128,-1,24
 672 -58 672 -58 676 -62 c 0,25,26
 692 -80 692 -80 706 -90 c 0,27,28
 736 -110 736 -110 772 -110 c 2,29,-1
 1014 -110 l 1,30,-1
 1014 -264 l 1,31,-1
 804 -264 l 2,32,33
 790 -264 790 -264 782 -266 c 0,34,35
 726 -282 726 -282 676 -353 c 128,-1,36
 626 -424 626 -424 568 -462 c 0,37,38
 478 -522 478 -522 346 -522 c 0,39,40
 210 -522 210 -522 124 -466 c 0,41,42
 20 -398 20 -398 20 -268 c 0,43,44
 20 -178 20 -178 89 -133 c 128,-1,45
 158 -88 158 -88 250 -88 c 2,46,-1
 404 -88 l 1,47,-1
 404 -242 l 1,48,-1
 260 -242 l 1,49,-1
 230 -242 l 2,50,51
 204 -242 204 -242 188 -249 c 128,-1,52
 172 -256 172 -256 172 -280 c 0,53,54
 172 -338 172 -338 234 -364 c 0,55,56
 280 -384 280 -384 346 -384 c 0,57,58
 440 -384 440 -384 494 -348 c 0,59,60
 530 -324 530 -324 574 -260 c 0,61,62
 586 -240 586 -240 612 -220 c 128,-1,63
 638 -200 638 -200 648 -194 c 1,64,65
 616 -180 616 -180 589 -167 c 128,-1,66
 562 -154 562 -154 546 -129 c 128,-1,67
 530 -104 530 -104 516 -65 c 128,-1,68
 502 -26 502 -26 502 0 c 1,69,-1
 28 0 l 1,70,-1
 28 844 l 1,71,-1
 180 844 l 1,72,-1
 180 154 l 1,73,-1
 500 154 l 1,74,-1
 500 592 l 2,75,76
 500 662 500 662 515 703 c 128,-1,77
 530 744 530 744 578 788 c 0,78,79
 596 806 596 806 624 821 c 128,-1,80
 652 836 652 836 692 850 c 1,81,82
 672 876 672 876 661 922 c 128,-1,83
 650 968 650 968 650 1010 c 0,84,85
 650 1152 650 1152 750 1242 c 128,-1,86
 850 1332 850 1332 996 1332 c 0,87,88
 1196 1332 1196 1332 1306 1176 c 0,89,90
 1386 1062 1386 1062 1386 942 c 2,91,-1
 1386 0 l 1,0,-1
996 338 m 0,92,93
 996 502 996 502 917 610 c 128,-1,94
 838 718 838 718 750 718 c 0,95,96
 694 718 694 718 668 656 c 0,97,98
 660 636 660 636 654 594 c 1,99,-1
 654 154 l 1,100,-1
 846 154 l 2,101,102
 926 154 926 154 961 202 c 128,-1,103
 996 250 996 250 996 338 c 0,92,93
EndSplineSet
Ligature2: "'psts' Post Base Substitutions lookup 8 subtable" tm_llla tm_ikaar
EndChar

StartChar: tm_v_ikaar
Encoding: 65561 -1 138
Width: 1820
GlyphClass: 2
Flags: W
LayerCount: 2
Fore
SplineSet
1714 0 m 1,0,-1
 1562 0 l 1,1,-1
 1562 888 l 2,2,3
 1562 1020 1562 1020 1492 1108 c 128,-1,4
 1422 1196 1422 1196 1308 1196 c 0,5,6
 1186 1196 1186 1196 1111 1117 c 128,-1,7
 1036 1038 1036 1038 1036 916 c 0,8,9
 1036 818 1036 818 1094 758 c 0,10,11
 1162 686 1162 686 1252 686 c 1,12,-1
 1252 844 l 1,13,-1
 1406 844 l 1,14,-1
 1406 0 l 1,15,-1
 754 0 l 1,16,-1
 754 106 l 1,17,18
 782 160 782 160 792 208 c 0,19,20
 812 294 812 294 812 392 c 0,21,22
 812 520 812 520 721 615 c 128,-1,23
 630 710 630 710 494 710 c 256,24,25
 358 710 358 710 264 616 c 128,-1,26
 170 522 170 522 170 390 c 0,27,28
 170 308 170 308 182 268 c 0,29,30
 186 256 186 256 194 244 c 1,31,-1
 192 256 l 1,32,33
 192 348 192 348 259 424 c 128,-1,34
 326 500 326 500 432 500 c 0,35,36
 544 500 544 500 614 426 c 128,-1,37
 684 352 684 352 684 238 c 0,38,39
 684 134 684 134 610 62 c 128,-1,40
 536 -10 536 -10 428 -10 c 0,41,42
 264 -10 264 -10 144 106 c 128,-1,43
 24 222 24 222 24 388 c 0,44,45
 24 580 24 580 161 715 c 128,-1,46
 298 850 298 850 494 850 c 256,47,48
 690 850 690 850 830 708 c 0,49,50
 964 572 964 572 964 400 c 0,51,52
 964 300 964 300 950 242 c 128,-1,53
 936 184 936 184 918 154 c 1,54,-1
 1252 154 l 1,55,-1
 1252 538 l 1,56,57
 1092 556 1092 556 992 656 c 128,-1,58
 892 756 892 756 892 918 c 0,59,60
 892 1090 892 1090 1005 1209 c 128,-1,61
 1118 1328 1118 1328 1306 1328 c 0,62,63
 1510 1328 1510 1328 1620 1190 c 0,64,65
 1714 1072 1714 1072 1714 890 c 2,66,-1
 1714 0 l 1,0,-1
546 242 m 0,67,68
 546 306 546 306 513 341 c 128,-1,69
 480 376 480 376 430 376 c 256,70,71
 380 376 380 376 349 335 c 128,-1,72
 318 294 318 294 318 240 c 0,73,74
 318 194 318 194 350 160 c 128,-1,75
 382 126 382 126 426 126 c 0,76,77
 478 126 478 126 512 155 c 128,-1,78
 546 184 546 184 546 242 c 0,67,68
EndSplineSet
Ligature2: "'psts' Post Base Substitutions lookup 8 subtable" tm_va tm_ikaar
EndChar

StartChar: tm_ss_ikaar
Encoding: 65562 -1 139
Width: 2330
GlyphClass: 2
Flags: W
LayerCount: 2
Fore
SplineSet
2222 0 m 1,0,-1
 2070 0 l 1,1,-1
 2070 890 l 2,2,3
 2070 1026 2070 1026 1974 1116 c 128,-1,4
 1878 1206 1878 1206 1730 1206 c 0,5,6
 1620 1206 1620 1206 1530 1120 c 128,-1,7
 1440 1034 1440 1034 1440 948 c 0,8,9
 1440 902 1440 902 1445 879 c 128,-1,10
 1450 856 1450 856 1458 834 c 1,11,12
 1480 828 1480 828 1506 812 c 0,13,14
 1548 786 1548 786 1578 744 c 0,15,16
 1622 684 1622 684 1622 574 c 2,17,-1
 1622 410 l 1,18,19
 1660 422 1660 422 1678 428 c 0,20,21
 1712 440 1712 440 1726 448 c 0,22,23
 1758 464 1758 464 1800 508 c 0,24,25
 1812 522 1812 522 1834 548 c 1,26,-1
 1958 548 l 1,27,-1
 1958 0 l 1,28,-1
 1622 0 l 1,29,-1
 1622 -446 l 1,30,-1
 1468 -446 l 1,31,-1
 1468 0 l 1,32,-1
 762 0 l 1,33,-1
 762 106 l 1,34,35
 790 140 790 140 802 168 c 0,36,37
 842 256 842 256 842 380 c 0,38,39
 842 522 842 522 743 619 c 128,-1,40
 644 716 644 716 510 716 c 0,41,42
 370 716 370 716 266 620 c 128,-1,43
 162 524 162 524 162 390 c 0,44,45
 162 314 162 314 176 272 c 128,-1,46
 190 230 190 230 212 204 c 1,47,48
 208 214 208 214 206 225 c 128,-1,49
 204 236 204 236 204 256 c 0,50,51
 204 350 204 350 262 420 c 0,52,53
 328 500 328 500 442 500 c 0,54,55
 560 500 560 500 625 431 c 128,-1,56
 690 362 690 362 690 246 c 0,57,58
 690 126 690 126 616 56 c 128,-1,59
 542 -14 542 -14 434 -14 c 0,60,61
 256 -14 256 -14 141 103 c 128,-1,62
 26 220 26 220 26 390 c 0,63,64
 26 580 26 580 169 715 c 128,-1,65
 312 850 312 850 512 850 c 0,66,67
 714 850 714 850 851 719 c 128,-1,68
 988 588 988 588 988 392 c 0,69,70
 988 308 988 308 976 253 c 128,-1,71
 964 198 964 198 942 154 c 1,72,-1
 1468 154 l 1,73,-1
 1468 242 l 1,74,-1
 1406 238 l 1,75,76
 1298 238 1298 238 1214 286 c 0,77,78
 1078 364 1078 364 1078 534 c 0,79,80
 1078 654 1078 654 1134 734 c 128,-1,81
 1190 814 1190 814 1288 838 c 1,82,83
 1286 848 1286 848 1283 881 c 128,-1,84
 1280 914 1280 914 1280 940 c 0,85,86
 1280 1114 1280 1114 1426 1236 c 0,87,88
 1558 1346 1558 1346 1724 1346 c 0,89,90
 1946 1346 1946 1346 2084 1216 c 128,-1,91
 2222 1086 2222 1086 2222 890 c 2,92,-1
 2222 0 l 1,0,-1
1806 154 m 1,93,-1
 1806 330 l 1,94,-1
 1710 284 l 2,95,96
 1682 272 1682 272 1661 268 c 128,-1,97
 1640 264 1640 264 1622 264 c 1,98,-1
 1622 154 l 1,99,-1
 1806 154 l 1,93,-1
1468 376 m 1,100,-1
 1468 592 l 2,101,102
 1468 638 1468 638 1438 672 c 128,-1,103
 1408 706 1408 706 1364 706 c 0,104,105
 1298 706 1298 706 1261 655 c 128,-1,106
 1224 604 1224 604 1224 528 c 0,107,108
 1224 448 1224 448 1284 406 c 0,109,110
 1334 370 1334 370 1404 370 c 0,111,112
 1424 370 1424 370 1439 372 c 128,-1,113
 1454 374 1454 374 1468 376 c 1,100,-1
554 234 m 0,114,115
 554 298 554 298 523 337 c 128,-1,116
 492 376 492 376 442 376 c 0,117,118
 388 376 388 376 356 336 c 128,-1,119
 324 296 324 296 324 240 c 0,120,121
 324 192 324 192 355 155 c 128,-1,122
 386 118 386 118 436 118 c 0,123,124
 482 118 482 118 518 152 c 128,-1,125
 554 186 554 186 554 234 c 0,114,115
EndSplineSet
Ligature2: "'psts' Post Base Substitutions lookup 8 subtable" tm_ssa tm_ikaar
EndChar

StartChar: tm_s_ikaar
Encoding: 65563 -1 140
Width: 2010
GlyphClass: 2
Flags: W
LayerCount: 2
Fore
SplineSet
1902 0 m 1,0,-1
 1748 0 l 1,1,-1
 1748 926 l 2,2,3
 1748 1176 1748 1176 1512 1176 c 0,4,5
 1428 1176 1428 1176 1375 1135 c 128,-1,6
 1322 1094 1322 1094 1322 1040 c 0,7,8
 1322 976 1322 976 1382 906 c 0,9,10
 1394 892 1394 892 1444 842 c 0,11,12
 1546 742 1546 742 1589 648 c 128,-1,13
 1632 554 1632 554 1632 422 c 0,14,15
 1632 248 1632 248 1564 140 c 0,16,17
 1476 0 1476 0 1288 0 c 0,18,19
 1180 0 1180 0 1107 75 c 128,-1,20
 1034 150 1034 150 1034 266 c 2,21,-1
 1034 620 l 2,22,23
 1034 656 1034 656 1013 677 c 128,-1,24
 992 698 992 698 962 698 c 0,25,26
 912 698 912 698 894 661 c 128,-1,27
 876 624 876 624 876 544 c 2,28,-1
 876 0 l 1,29,-1
 722 0 l 1,30,-1
 722 542 l 2,31,32
 722 610 722 610 630 662 c 0,33,34
 556 704 556 704 458 704 c 0,35,36
 334 704 334 704 252 620 c 128,-1,37
 170 536 170 536 170 400 c 0,38,39
 170 342 170 342 180 302 c 128,-1,40
 190 262 190 262 208 220 c 1,41,-1
 204 278 l 1,42,43
 204 370 204 370 263 435 c 128,-1,44
 322 500 322 500 410 500 c 0,45,46
 520 500 520 500 580 420 c 0,47,48
 632 350 632 350 632 242 c 0,49,50
 632 136 632 136 563 67 c 128,-1,51
 494 -2 494 -2 398 -2 c 0,52,53
 224 -2 224 -2 124 111 c 128,-1,54
 24 224 24 224 24 398 c 0,55,56
 24 586 24 586 149 715 c 128,-1,57
 274 844 274 844 458 844 c 0,58,59
 570 844 570 844 660 806 c 0,60,61
 732 776 732 776 772 730 c 1,62,63
 800 778 800 778 846 808 c 0,64,65
 900 844 900 844 960 844 c 0,66,67
 1072 844 1072 844 1136 766 c 0,68,69
 1188 702 1188 702 1188 628 c 2,70,-1
 1188 272 l 2,71,72
 1188 218 1188 218 1212 178 c 128,-1,73
 1236 138 1236 138 1288 138 c 0,74,75
 1392 138 1392 138 1436 214 c 128,-1,76
 1480 290 1480 290 1480 432 c 0,77,78
 1480 516 1480 516 1444 593 c 128,-1,79
 1408 670 1408 670 1322 762 c 128,-1,80
 1236 854 1236 854 1214 888 c 0,81,82
 1170 956 1170 956 1170 1040 c 0,83,84
 1170 1168 1170 1168 1284 1248 c 0,85,86
 1384 1318 1384 1318 1516 1318 c 0,87,88
 1720 1318 1720 1318 1822 1186 c 0,89,90
 1902 1082 1902 1082 1902 936 c 2,91,-1
 1902 0 l 1,0,-1
488 256 m 256,92,93
 488 308 488 308 469 340 c 128,-1,94
 450 372 450 372 410 372 c 0,95,96
 372 372 372 372 348 342 c 128,-1,97
 324 312 324 312 324 266 c 0,98,99
 324 210 324 210 340 173 c 128,-1,100
 356 136 356 136 396 136 c 0,101,102
 444 136 444 136 466 170 c 128,-1,103
 488 204 488 204 488 256 c 256,92,93
EndSplineSet
Ligature2: "'psts' Post Base Substitutions lookup 8 subtable" tm_sa tm_ikaar
EndChar

StartChar: tm_h_ikaar
Encoding: 65564 -1 141
Width: 2430
GlyphClass: 2
Flags: W
LayerCount: 2
Fore
SplineSet
2320 -2 m 1,0,-1
 2164 -2 l 1,1,-1
 2164 910 l 2,2,3
 2164 1040 2164 1040 2098 1114 c 0,4,5
 2016 1206 2016 1206 1848 1206 c 0,6,7
 1762 1206 1762 1206 1692 1151 c 128,-1,8
 1622 1096 1622 1096 1622 1018 c 0,9,10
 1622 964 1622 964 1650 910 c 0,11,12
 1668 880 1668 880 1686 852 c 1,13,14
 1824 852 1824 852 1920 731 c 128,-1,15
 2016 610 2016 610 2016 396 c 0,16,17
 2016 72 2016 72 1850 -98 c 0,18,19
 1700 -252 1700 -252 1482 -252 c 2,20,-1
 292 -252 l 2,21,22
 256 -252 256 -252 240 -260 c 0,23,24
 206 -278 206 -278 206 -334 c 0,25,26
 206 -370 206 -370 220 -392 c 0,27,28
 224 -398 224 -398 234 -406 c 2,29,-1
 252 -420 l 1,30,-1
 166 -524 l 1,31,-1
 136 -506 l 2,32,33
 58 -458 58 -458 58 -318 c 0,34,35
 58 -216 58 -216 123 -157 c 128,-1,36
 188 -98 188 -98 290 -98 c 2,37,-1
 1480 -98 l 2,38,39
 1642 -98 1642 -98 1736 -2 c 0,40,41
 1856 120 1856 120 1856 392 c 0,42,43
 1856 540 1856 540 1818 616 c 0,44,45
 1772 708 1772 708 1670 708 c 0,46,47
 1616 708 1616 708 1586 678 c 128,-1,48
 1556 648 1556 648 1556 594 c 2,49,-1
 1556 0 l 1,50,-1
 1402 0 l 1,51,-1
 1402 602 l 2,52,53
 1402 646 1402 646 1384 672 c 128,-1,54
 1366 698 1366 698 1324 698 c 0,55,56
 1290 698 1290 698 1272 670 c 128,-1,57
 1254 642 1254 642 1254 596 c 2,58,-1
 1254 0 l 1,59,-1
 760 0 l 1,60,-1
 760 106 l 1,61,62
 788 140 788 140 802 168 c 0,63,64
 846 258 846 258 846 380 c 0,65,66
 846 522 846 522 747 619 c 128,-1,67
 648 716 648 716 514 716 c 0,68,69
 376 716 376 716 272 620 c 128,-1,70
 168 524 168 524 168 390 c 0,71,72
 168 318 168 318 182 273 c 128,-1,73
 196 228 196 228 216 204 c 1,74,-1
 210 256 l 1,75,76
 210 350 210 350 268 420 c 0,77,78
 334 500 334 500 448 500 c 0,79,80
 566 500 566 500 630 430 c 128,-1,81
 694 360 694 360 694 246 c 0,82,83
 694 126 694 126 620 56 c 128,-1,84
 546 -14 546 -14 438 -14 c 0,85,86
 260 -14 260 -14 145 103 c 128,-1,87
 30 220 30 220 30 390 c 0,88,89
 30 580 30 580 173 715 c 128,-1,90
 316 850 316 850 516 850 c 0,91,92
 718 850 718 850 855 719 c 128,-1,93
 992 588 992 588 992 392 c 0,94,95
 992 308 992 308 980 253 c 128,-1,96
 968 198 968 198 946 154 c 1,97,-1
 1102 154 l 1,98,-1
 1102 602 l 2,99,100
 1102 710 1102 710 1160 776 c 128,-1,101
 1218 842 1218 842 1316 842 c 0,102,103
 1372 842 1372 842 1420 810 c 0,104,105
 1454 788 1454 788 1476 758 c 1,106,-1
 1502 798 l 1,107,-1
 1544 828 l 1,108,109
 1524 856 1524 856 1516 870 c 0,110,111
 1472 942 1472 942 1472 1020 c 0,112,113
 1472 1158 1472 1158 1575 1252 c 128,-1,114
 1678 1346 1678 1346 1846 1346 c 0,115,116
 2102 1346 2102 1346 2226 1190 c 0,117,118
 2320 1072 2320 1072 2320 908 c 2,119,-1
 2320 -2 l 1,0,-1
558 234 m 0,120,121
 558 298 558 298 527 337 c 128,-1,122
 496 376 496 376 448 376 c 0,123,124
 394 376 394 376 362 336 c 128,-1,125
 330 296 330 296 330 240 c 0,126,127
 330 190 330 190 360 154 c 128,-1,128
 390 118 390 118 440 118 c 0,129,130
 486 118 486 118 522 152 c 128,-1,131
 558 186 558 186 558 234 c 0,120,121
EndSplineSet
Ligature2: "'psts' Post Base Substitutions lookup 8 subtable" tm_ha tm_ikaar
EndChar

StartChar: tm_k_iikaar
Encoding: 65565 -1 142
Width: 1130
GlyphClass: 2
Flags: W
LayerCount: 2
Fore
SplineSet
1004 254 m 0,0,1
 1004 116 1004 116 920 48 c 0,2,3
 862 0 862 0 790 0 c 0,4,5
 752 0 752 0 718 10 c 0,6,7
 706 12 706 12 688 22 c 1,8,-1
 732 162 l 1,9,10
 740 154 740 154 746 152 c 0,11,12
 764 142 764 142 786 142 c 0,13,14
 812 142 812 142 830 162 c 0,15,16
 856 192 856 192 856 248 c 0,17,18
 856 324 856 324 824 346 c 0,19,20
 806 358 806 358 760 358 c 2,21,-1
 682 358 l 1,22,-1
 682 276 l 2,23,24
 682 162 682 162 603 81 c 128,-1,25
 524 0 524 0 368 0 c 0,26,27
 230 0 230 0 132 78 c 0,28,29
 24 164 24 164 24 296 c 0,30,31
 24 380 24 380 80 436 c 0,32,33
 144 498 144 498 234 508 c 1,34,-1
 234 844 l 1,35,-1
 448 844 l 1,36,37
 410 890 410 890 388 940 c 0,38,39
 356 1010 356 1010 356 1078 c 0,40,41
 356 1210 356 1210 450 1302 c 128,-1,42
 544 1394 544 1394 678 1394 c 256,43,44
 812 1394 812 1394 894 1324 c 128,-1,45
 976 1254 976 1254 976 1148 c 0,46,47
 976 1052 976 1052 913 987 c 128,-1,48
 850 922 850 922 756 922 c 0,49,50
 676 922 676 922 616 976 c 0,51,52
 550 1036 550 1036 550 1140 c 0,53,54
 550 1162 550 1162 557 1185 c 128,-1,55
 564 1208 564 1208 576 1234 c 1,56,57
 536 1200 536 1200 517 1160 c 128,-1,58
 498 1120 498 1120 498 1082 c 0,59,60
 498 990 498 990 552 922 c 0,61,62
 576 892 576 892 642 844 c 1,63,-1
 922 844 l 1,64,-1
 922 692 l 1,65,-1
 682 692 l 1,66,-1
 682 512 l 1,67,-1
 768 512 l 2,68,69
 872 512 872 512 938 442 c 128,-1,70
 1004 372 1004 372 1004 254 c 0,0,1
832 1154 m 0,71,72
 832 1192 832 1192 812 1220 c 128,-1,73
 792 1248 792 1248 754 1248 c 0,74,75
 718 1248 718 1248 698 1217 c 128,-1,76
 678 1186 678 1186 678 1146 c 0,77,78
 678 1114 678 1114 700 1084 c 128,-1,79
 722 1054 722 1054 754 1054 c 0,80,81
 788 1054 788 1054 810 1080 c 128,-1,82
 832 1106 832 1106 832 1154 c 0,71,72
528 512 m 1,83,-1
 528 692 l 1,84,-1
 388 692 l 1,85,-1
 388 512 l 1,86,-1
 528 512 l 1,83,-1
528 290 m 2,87,-1
 528 358 l 1,88,-1
 270 358 l 2,89,90
 222 358 222 358 200 342 c 128,-1,91
 178 326 178 326 178 294 c 0,92,93
 178 226 178 226 231 183 c 128,-1,94
 284 140 284 140 366 140 c 0,95,96
 444 140 444 140 486 181 c 128,-1,97
 528 222 528 222 528 290 c 2,87,-1
EndSplineSet
Ligature2: "'abvs' Above Base Substitutions lookup 6 subtable" tm_ka tm_iikaar
EndChar

StartChar: tm_ng_iikaar
Encoding: 65566 -1 143
Width: 1440
GlyphClass: 2
Flags: W
LayerCount: 2
Fore
SplineSet
1458 1152 m 0,0,1
 1458 1056 1458 1056 1400 994 c 128,-1,2
 1342 932 1342 932 1246 932 c 0,3,4
 1164 932 1164 932 1106 984 c 0,5,6
 1040 1044 1040 1044 1040 1144 c 0,7,8
 1040 1166 1040 1166 1048 1192 c 0,9,10
 1050 1198 1050 1198 1066 1240 c 1,11,12
 1020 1208 1020 1208 992 1166 c 0,13,14
 946 1098 946 1098 946 1010 c 0,15,16
 946 936 946 936 975 879 c 128,-1,17
 1004 822 1004 822 1056 786 c 0,18,19
 1088 764 1088 764 1126 748 c 0,20,21
 1146 740 1146 740 1178 730 c 1,22,-1
 1178 844 l 1,23,-1
 1332 844 l 1,24,-1
 1332 0 l 1,25,-1
 360 0 l 1,26,-1
 360 154 l 1,27,-1
 668 154 l 1,28,29
 696 168 696 168 710 182 c 0,30,31
 752 224 752 224 752 296 c 0,32,33
 752 344 752 344 718 380 c 128,-1,34
 684 416 684 416 638 416 c 0,35,36
 584 416 584 416 554 392 c 0,37,38
 532 374 532 374 514 334 c 1,39,-1
 514 226 l 1,40,-1
 360 226 l 1,41,-1
 360 692 l 1,42,-1
 178 692 l 1,43,-1
 178 0 l 1,44,-1
 26 0 l 1,45,-1
 26 844 l 1,46,-1
 752 844 l 1,47,-1
 752 692 l 1,48,-1
 514 692 l 1,49,-1
 514 518 l 1,50,51
 532 528 532 528 568 538 c 128,-1,52
 604 548 604 548 644 548 c 0,53,54
 748 548 748 548 824 476 c 128,-1,55
 900 404 900 404 900 300 c 0,56,57
 900 258 900 258 889 220 c 128,-1,58
 878 182 878 182 856 154 c 1,59,-1
 1178 154 l 1,60,-1
 1178 596 l 1,61,62
 1132 602 1132 602 1092 618 c 0,63,64
 1018 646 1018 646 958 696 c 0,65,66
 884 756 884 756 846 840 c 128,-1,67
 808 924 808 924 808 1024 c 0,68,69
 808 1166 808 1166 904 1276 c 0,70,71
 1010 1398 1010 1398 1174 1398 c 0,72,73
 1310 1398 1310 1398 1384 1330 c 128,-1,74
 1458 1262 1458 1262 1458 1152 c 0,0,1
1320 1158 m 0,75,76
 1320 1194 1320 1194 1301 1223 c 128,-1,77
 1282 1252 1282 1252 1246 1252 c 256,78,79
 1210 1252 1210 1252 1189 1219 c 128,-1,80
 1168 1186 1168 1186 1168 1150 c 0,81,82
 1168 1118 1168 1118 1190 1088 c 128,-1,83
 1212 1058 1212 1058 1244 1058 c 0,84,85
 1320 1058 1320 1058 1320 1158 c 0,75,76
EndSplineSet
Ligature2: "'abvs' Above Base Substitutions lookup 6 subtable" tm_nga tm_iikaar
EndChar

StartChar: tm_c_iikaar
Encoding: 65567 -1 144
Width: 1020
GlyphClass: 2
Flags: W
LayerCount: 2
Fore
SplineSet
970 1148 m 0,0,1
 970 1052 970 1052 910 992 c 128,-1,2
 850 932 850 932 748 932 c 0,3,4
 666 932 666 932 610 984 c 0,5,6
 546 1042 546 1042 546 1140 c 0,7,8
 546 1164 546 1164 552 1188 c 128,-1,9
 558 1212 558 1212 570 1242 c 1,10,11
 534 1210 534 1210 516 1180 c 0,12,13
 484 1130 484 1130 484 1082 c 0,14,15
 484 996 484 996 544 926 c 0,16,17
 572 892 572 892 638 844 c 1,18,-1
 896 844 l 1,19,-1
 896 692 l 1,20,-1
 682 692 l 1,21,-1
 682 512 l 1,22,-1
 896 512 l 1,23,-1
 896 358 l 1,24,-1
 682 358 l 1,25,-1
 682 276 l 1,26,27
 672 184 672 184 648 138 c 0,28,29
 572 0 572 0 368 0 c 0,30,31
 228 0 228 0 130 78 c 0,32,33
 24 162 24 162 24 296 c 0,34,35
 24 382 24 382 78 436 c 0,36,37
 142 498 142 498 234 508 c 1,38,-1
 234 844 l 1,39,-1
 438 844 l 1,40,41
 404 888 404 888 380 944 c 0,42,43
 350 1014 350 1014 350 1078 c 0,44,45
 350 1210 350 1210 446 1302 c 128,-1,46
 542 1394 542 1394 676 1394 c 0,47,48
 818 1394 818 1394 894 1326 c 128,-1,49
 970 1258 970 1258 970 1148 c 0,0,1
826 1154 m 0,50,51
 826 1190 826 1190 805 1219 c 128,-1,52
 784 1248 784 1248 748 1248 c 256,53,54
 712 1248 712 1248 692 1217 c 128,-1,55
 672 1186 672 1186 672 1146 c 0,56,57
 672 1114 672 1114 694 1084 c 128,-1,58
 716 1054 716 1054 748 1054 c 0,59,60
 826 1054 826 1054 826 1154 c 0,50,51
528 512 m 1,61,-1
 528 692 l 1,62,-1
 388 692 l 1,63,-1
 388 512 l 1,64,-1
 528 512 l 1,61,-1
528 270 m 2,65,-1
 528 358 l 1,66,-1
 270 358 l 2,67,68
 222 358 222 358 200 342 c 128,-1,69
 178 326 178 326 178 294 c 0,70,71
 178 226 178 226 231 183 c 128,-1,72
 284 140 284 140 366 140 c 0,73,74
 440 140 440 140 484 180 c 128,-1,75
 528 220 528 220 528 270 c 2,65,-1
EndSplineSet
Ligature2: "'abvs' Above Base Substitutions lookup 6 subtable" tm_ca tm_iikaar
EndChar

StartChar: tm_j_iikaar
Encoding: 65568 -1 145
Width: 1380
GlyphClass: 2
Flags: W
LayerCount: 2
Fore
SplineSet
1294 1150 m 0,0,1
 1294 1054 1294 1054 1238 994 c 128,-1,2
 1182 934 1182 934 1084 934 c 0,3,4
 1002 934 1002 934 942 988 c 0,5,6
 876 1048 876 1048 876 1150 c 0,7,8
 876 1170 876 1170 883 1191 c 128,-1,9
 890 1212 890 1212 904 1240 c 1,10,11
 862 1200 862 1200 843 1160 c 128,-1,12
 824 1120 824 1120 824 1080 c 0,13,14
 824 992 824 992 870 928 c 0,15,16
 898 888 898 888 952 852 c 1,17,18
 1058 824 1058 824 1110 790 c 0,19,20
 1268 684 1268 684 1268 470 c 0,21,22
 1268 298 1268 298 1140 186 c 0,23,24
 1020 80 1020 80 852 80 c 2,25,-1
 374 80 l 2,26,27
 284 80 284 80 228 8 c 128,-1,28
 172 -64 172 -64 172 -158 c 0,29,30
 172 -242 172 -242 219 -305 c 128,-1,31
 266 -368 266 -368 340 -368 c 0,32,33
 396 -368 396 -368 440 -330 c 0,34,35
 444 -326 444 -326 572 -152 c 0,36,37
 656 -34 656 -34 760 8 c 0,38,39
 834 38 834 38 948 38 c 0,40,41
 1080 38 1080 38 1169 -47 c 128,-1,42
 1258 -132 1258 -132 1258 -242 c 0,43,44
 1258 -348 1258 -348 1200 -422 c 0,45,46
 1128 -514 1128 -514 992 -514 c 0,47,48
 870 -514 870 -514 802 -454 c 0,49,50
 748 -406 748 -406 748 -350 c 0,51,52
 748 -308 748 -308 764 -290 c 0,53,54
 774 -280 774 -280 798 -272 c 256,55,56
 822 -264 822 -264 842 -282 c 128,-1,57
 862 -300 862 -300 876 -329 c 128,-1,58
 890 -358 890 -358 923 -372 c 128,-1,59
 956 -386 956 -386 992 -382 c 1,60,61
 1052 -382 1052 -382 1080 -343 c 128,-1,62
 1108 -304 1108 -304 1108 -246 c 0,63,64
 1108 -184 1108 -184 1057 -141 c 128,-1,65
 1006 -98 1006 -98 946 -98 c 0,66,67
 858 -98 858 -98 797 -130 c 128,-1,68
 736 -162 736 -162 676 -254 c 0,69,70
 576 -416 576 -416 532 -450 c 0,71,72
 454 -510 454 -510 346 -510 c 0,73,74
 202 -510 202 -510 107 -403 c 128,-1,75
 12 -296 12 -296 12 -152 c 0,76,77
 12 6 12 6 107 120 c 128,-1,78
 202 234 202 234 364 234 c 2,79,-1
 854 234 l 2,80,81
 952 234 952 234 1034 304 c 128,-1,82
 1116 374 1116 374 1116 472 c 0,83,84
 1116 566 1116 566 1068 635 c 128,-1,85
 1020 704 1020 704 938 704 c 0,86,87
 858 704 858 704 807 651 c 128,-1,88
 756 598 756 598 756 512 c 2,89,-1
 756 296 l 1,90,-1
 604 296 l 1,91,-1
 604 514 l 2,92,93
 604 610 604 610 522 664 c 0,94,95
 456 708 456 708 374 708 c 0,96,97
 342 708 342 708 326 705 c 128,-1,98
 310 702 310 702 284 692 c 1,99,100
 326 692 326 692 348 688 c 0,101,102
 410 674 410 674 450 630 c 0,103,104
 500 576 500 576 500 488 c 0,105,106
 500 388 500 388 437 334 c 128,-1,107
 374 280 374 280 278 280 c 0,108,109
 174 280 174 280 106 352 c 128,-1,110
 38 424 38 424 38 532 c 0,111,112
 38 664 38 664 140 754 c 128,-1,113
 242 844 242 844 380 844 c 0,114,115
 484 844 484 844 566 810 c 128,-1,116
 648 776 648 776 684 714 c 1,117,118
 706 752 706 752 735 777 c 128,-1,119
 764 802 764 802 796 816 c 1,120,121
 744 888 744 888 720 944 c 0,122,123
 688 1020 688 1020 688 1084 c 0,124,125
 688 1210 688 1210 781 1305 c 128,-1,126
 874 1400 874 1400 1006 1400 c 0,127,128
 1146 1400 1146 1400 1220 1330 c 128,-1,129
 1294 1260 1294 1260 1294 1150 c 0,0,1
1158 1160 m 0,130,131
 1158 1198 1158 1198 1139 1226 c 128,-1,132
 1120 1254 1120 1254 1084 1254 c 256,133,134
 1048 1254 1048 1254 1027 1222 c 128,-1,135
 1006 1190 1006 1190 1006 1152 c 0,136,137
 1006 1118 1006 1118 1027 1088 c 128,-1,138
 1048 1058 1048 1058 1084 1058 c 0,139,140
 1116 1058 1116 1058 1137 1085 c 128,-1,141
 1158 1112 1158 1112 1158 1160 c 0,130,131
362 500 m 0,142,143
 362 536 362 536 337 561 c 128,-1,144
 312 586 312 586 276 586 c 0,145,146
 236 586 236 586 210 562 c 128,-1,147
 184 538 184 538 184 500 c 0,148,149
 184 464 184 464 212 440 c 128,-1,150
 240 416 240 416 276 416 c 0,151,152
 314 416 314 416 338 437 c 128,-1,153
 362 458 362 458 362 500 c 0,142,143
EndSplineSet
Ligature2: "'abvs' Above Base Substitutions lookup 6 subtable" tm_ja tm_iikaar
EndChar

StartChar: tm_ny_iikaar
Encoding: 65569 -1 146
Width: 1760
GlyphClass: 2
Flags: W
LayerCount: 2
Fore
SplineSet
1642 188 m 0,0,1
 1642 56 1642 56 1601 -42 c 128,-1,2
 1560 -140 1560 -140 1468 -230 c 0,3,4
 1356 -340 1356 -340 1211 -397 c 128,-1,5
 1066 -454 1066 -454 908 -454 c 0,6,7
 746 -454 746 -454 606 -404 c 0,8,9
 446 -346 446 -346 319 -229 c 128,-1,10
 192 -112 192 -112 122 24 c 0,11,12
 38 184 38 184 38 356 c 0,13,14
 38 502 38 502 56 605 c 128,-1,15
 74 708 74 708 130 812 c 1,16,-1
 144 842 l 1,17,-1
 270 770 l 1,18,-1
 252 734 l 2,19,20
 218 674 218 674 202 558 c 128,-1,21
 186 442 186 442 186 348 c 0,22,23
 186 218 186 218 260 78 c 0,24,25
 326 -46 326 -46 418 -126 c 0,26,27
 522 -214 522 -214 646 -265 c 128,-1,28
 770 -316 770 -316 908 -316 c 0,29,30
 1028 -316 1028 -316 1158 -262 c 128,-1,31
 1288 -208 1288 -208 1358 -134 c 128,-1,32
 1428 -60 1428 -60 1459 12 c 128,-1,33
 1490 84 1490 84 1490 198 c 0,34,35
 1490 256 1490 256 1460 306 c 0,36,37
 1422 370 1422 370 1358 370 c 0,38,39
 1306 370 1306 370 1276 332 c 0,40,41
 1266 320 1266 320 1256 292 c 1,42,-1
 1256 0 l 1,43,-1
 1104 0 l 1,44,-1
 1104 692 l 1,45,-1
 714 692 l 1,46,47
 622 672 622 672 578 644 c 0,48,49
 440 558 440 558 440 366 c 0,50,51
 440 314 440 314 451 278 c 128,-1,52
 462 242 462 242 478 218 c 1,53,-1
 472 286 l 1,54,55
 472 370 472 370 534 436 c 0,56,57
 604 510 604 510 708 510 c 0,58,59
 818 510 818 510 886 424 c 0,60,61
 946 348 946 348 946 244 c 0,62,63
 946 152 946 152 876 82 c 0,64,65
 798 4 798 4 676 4 c 0,66,67
 506 4 506 4 402 106 c 128,-1,68
 298 208 298 208 298 372 c 0,69,70
 298 586 298 586 428 708 c 0,71,72
 520 794 520 794 674 828 c 0,73,74
 746 844 746 844 806 844 c 2,75,-1
 1036 844 l 1,76,77
 1000 892 1000 892 978 942 c 0,78,79
 950 1008 950 1008 950 1078 c 0,80,81
 950 1210 950 1210 1046 1302 c 128,-1,82
 1142 1394 1142 1394 1274 1394 c 0,83,84
 1416 1394 1416 1394 1493 1325 c 128,-1,85
 1570 1256 1570 1256 1570 1148 c 0,86,87
 1570 1054 1570 1054 1510 992 c 128,-1,88
 1450 930 1450 930 1356 930 c 0,89,90
 1270 930 1270 930 1212 980 c 0,91,92
 1146 1036 1146 1036 1146 1140 c 0,93,94
 1146 1158 1146 1158 1154 1185 c 128,-1,95
 1162 1212 1162 1212 1174 1246 c 1,96,97
 1144 1216 1144 1216 1124 1182 c 0,98,99
 1094 1130 1094 1130 1094 1082 c 0,100,101
 1094 990 1094 990 1160 908 c 0,102,103
 1182 882 1182 882 1226 844 c 1,104,-1
 1560 844 l 1,105,-1
 1560 692 l 1,106,-1
 1256 692 l 1,107,-1
 1256 486 l 1,108,109
 1290 504 1290 504 1314 511 c 128,-1,110
 1338 518 1338 518 1360 518 c 0,111,112
 1486 518 1486 518 1564 426 c 128,-1,113
 1642 334 1642 334 1642 188 c 0,0,1
1426 1154 m 0,114,115
 1426 1190 1426 1190 1407 1219 c 128,-1,116
 1388 1248 1388 1248 1352 1248 c 256,117,118
 1316 1248 1316 1248 1295 1215 c 128,-1,119
 1274 1182 1274 1182 1274 1146 c 0,120,121
 1274 1114 1274 1114 1297 1083 c 128,-1,122
 1320 1052 1320 1052 1358 1052 c 0,123,124
 1426 1052 1426 1052 1426 1154 c 0,114,115
796 256 m 0,125,126
 796 306 796 306 771 342 c 128,-1,127
 746 378 746 378 698 378 c 0,128,129
 648 378 648 378 620 344 c 128,-1,130
 592 310 592 310 592 262 c 256,131,132
 592 214 592 214 618 180 c 128,-1,133
 644 146 644 146 688 146 c 0,134,135
 736 146 736 146 766 178 c 128,-1,136
 796 210 796 210 796 256 c 0,125,126
EndSplineSet
Ligature2: "'abvs' Above Base Substitutions lookup 6 subtable" tm_nya tm_iikaar
EndChar

StartChar: tm_tt_iikaar
Encoding: 65570 -1 147
Width: 1260
GlyphClass: 2
Flags: W
LayerCount: 2
Fore
SplineSet
1152 0 m 1,0,-1
 26 0 l 1,1,-1
 26 844 l 1,2,-1
 178 844 l 1,3,-1
 178 154 l 1,4,-1
 402 154 l 1,5,6
 374 186 374 186 352 234 c 0,7,8
 318 306 318 306 318 372 c 0,9,10
 318 500 318 500 406 596 c 0,11,12
 502 700 502 700 644 700 c 0,13,14
 796 700 796 700 874 620 c 0,15,16
 940 552 940 552 940 452 c 0,17,18
 940 360 940 360 888 300 c 0,19,20
 828 230 828 230 720 230 c 0,21,22
 632 230 632 230 575 291 c 128,-1,23
 518 352 518 352 518 454 c 0,24,25
 518 480 518 480 525 504 c 128,-1,26
 532 528 532 528 544 548 c 1,27,28
 502 518 502 518 479 469 c 128,-1,29
 456 420 456 420 456 370 c 0,30,31
 456 286 456 286 516 212 c 0,32,33
 536 188 536 188 576 154 c 1,34,-1
 1152 154 l 1,35,-1
 1152 0 l 1,0,-1
796 454 m 0,36,37
 796 492 796 492 780 522 c 0,38,39
 758 562 758 562 718 562 c 0,40,41
 682 562 682 562 663 528 c 128,-1,42
 644 494 644 494 644 454 c 0,43,44
 644 416 644 416 664 384 c 128,-1,45
 684 352 684 352 722 352 c 0,46,47
 796 352 796 352 796 454 c 0,36,37
EndSplineSet
Ligature2: "'abvs' Above Base Substitutions lookup 5 subtable" tm_tta tm_iikaar
EndChar

StartChar: tm_nn_iikaar
Encoding: 65571 -1 148
Width: 2200
GlyphClass: 2
Flags: W
LayerCount: 2
Fore
SplineSet
2140 1148 m 0,0,1
 2140 1052 2140 1052 2081 989 c 128,-1,2
 2022 926 2022 926 1928 926 c 0,3,4
 1846 926 1846 926 1788 978 c 0,5,6
 1722 1036 1722 1036 1722 1140 c 0,7,8
 1722 1158 1722 1158 1734 1204 c 0,9,10
 1738 1218 1738 1218 1746 1246 c 1,11,12
 1716 1230 1716 1230 1702 1214 c 0,13,14
 1656 1164 1656 1164 1656 1082 c 0,15,16
 1656 982 1656 982 1732 904 c 0,17,18
 1756 878 1756 878 1810 844 c 1,19,-1
 2080 844 l 1,20,-1
 2080 692 l 1,21,-1
 1838 692 l 1,22,-1
 1838 0 l 1,23,-1
 1684 0 l 1,24,-1
 1684 692 l 1,25,-1
 1600 692 l 1,26,-1
 1518 690 l 1,27,-1
 1464 674 l 1,28,29
 1518 586 1518 586 1548 503 c 128,-1,30
 1578 420 1578 420 1578 356 c 0,31,32
 1578 194 1578 194 1534 106 c 0,33,34
 1482 0 1482 0 1368 0 c 0,35,36
 1256 0 1256 0 1200 114 c 0,37,38
 1154 208 1154 208 1154 352 c 0,39,40
 1154 452 1154 452 1200 562 c 0,41,42
 1224 620 1224 620 1262 678 c 1,43,44
 1230 690 1230 690 1188 698 c 128,-1,45
 1146 706 1146 706 1118 706 c 0,46,47
 1084 706 1084 706 1036 694 c 0,48,49
 1014 688 1014 688 980 676 c 1,50,51
 1010 622 1010 622 1040 546 c 0,52,53
 1086 424 1086 424 1086 338 c 0,54,55
 1086 178 1086 178 1040 94 c 0,56,57
 988 0 988 0 880 0 c 0,58,59
 776 0 776 0 718 108 c 0,60,61
 668 202 668 202 668 340 c 0,62,63
 668 416 668 416 714 536 c 0,64,65
 730 580 730 580 774 672 c 1,66,67
 744 688 744 688 676 698 c 128,-1,68
 608 708 608 708 538 708 c 0,69,70
 362 708 362 708 258 594 c 0,71,72
 162 488 162 488 162 334 c 0,73,74
 162 312 162 312 166 289 c 128,-1,75
 170 266 170 266 174 254 c 1,76,77
 174 354 174 354 228 422 c 0,78,79
 290 500 290 500 390 500 c 0,80,81
 494 500 494 500 556 412 c 0,82,83
 610 336 610 336 610 236 c 0,84,85
 610 132 610 132 542 64 c 128,-1,86
 474 -4 474 -4 374 -4 c 0,87,88
 240 -4 240 -4 138 92 c 0,89,90
 26 198 26 198 26 362 c 0,91,92
 26 558 26 558 168 696 c 0,93,94
 320 844 320 844 552 844 c 0,95,96
 656 844 656 844 746 822 c 128,-1,97
 836 800 836 800 878 772 c 1,98,99
 910 798 910 798 972 818 c 0,100,101
 1048 844 1048 844 1120 844 c 0,102,103
 1202 844 1202 844 1282 816 c 0,104,105
 1336 796 1336 796 1366 776 c 1,106,107
 1376 784 1376 784 1390 792 c 0,108,109
 1430 814 1430 814 1468 826 c 128,-1,110
 1506 838 1506 838 1537 841 c 128,-1,111
 1568 844 1568 844 1594 844 c 2,112,-1
 1632 844 l 1,113,114
 1586 884 1586 884 1556 946 c 128,-1,115
 1526 1008 1526 1008 1526 1078 c 0,116,117
 1526 1210 1526 1210 1622 1302 c 128,-1,118
 1718 1394 1718 1394 1852 1394 c 0,119,120
 1992 1394 1992 1394 2066 1326 c 128,-1,121
 2140 1258 2140 1258 2140 1148 c 0,0,1
2006 1154 m 0,122,123
 2006 1190 2006 1190 1985 1219 c 128,-1,124
 1964 1248 1964 1248 1928 1248 c 256,125,126
 1892 1248 1892 1248 1870 1217 c 128,-1,127
 1848 1186 1848 1186 1848 1146 c 0,128,129
 1848 1112 1848 1112 1870 1081 c 128,-1,130
 1892 1050 1892 1050 1934 1050 c 0,131,132
 1964 1050 1964 1050 1985 1079 c 128,-1,133
 2006 1108 2006 1108 2006 1154 c 0,122,123
1436 356 m 0,134,135
 1436 428 1436 428 1406 504 c 0,136,137
 1392 542 1392 542 1360 594 c 1,138,139
 1330 542 1330 542 1309 468 c 128,-1,140
 1288 394 1288 394 1288 348 c 0,141,142
 1288 248 1288 248 1296 212 c 0,143,144
 1312 140 1312 140 1364 140 c 0,145,146
 1414 140 1414 140 1428 214 c 0,147,148
 1436 256 1436 256 1436 356 c 0,134,135
946 342 m 0,149,150
 946 396 946 396 918 476 c 0,151,152
 904 516 904 516 876 578 c 1,153,154
 846 516 846 516 828 450 c 128,-1,155
 810 384 810 384 810 342 c 0,156,157
 810 250 810 250 821 194 c 128,-1,158
 832 138 832 138 878 138 c 0,159,160
 928 138 928 138 940 240 c 0,161,162
 946 290 946 290 946 342 c 0,149,150
466 250 m 0,163,164
 466 302 466 302 445 336 c 128,-1,165
 424 370 424 370 380 370 c 0,166,167
 342 370 342 370 316 332 c 128,-1,168
 290 294 290 294 290 250 c 0,169,170
 290 204 290 204 314 172 c 128,-1,171
 338 140 338 140 380 140 c 0,172,173
 420 140 420 140 443 170 c 128,-1,174
 466 200 466 200 466 250 c 0,163,164
EndSplineSet
Ligature2: "'abvs' Above Base Substitutions lookup 6 subtable" tm_nna tm_iikaar
EndChar

StartChar: tm_t_iikaar
Encoding: 65572 -1 149
Width: 1180
GlyphClass: 2
Flags: W
LayerCount: 2
Fore
SplineSet
532 358 m 1,0,-1
 274 358 l 2,1,2
 238 358 238 358 210 345 c 128,-1,3
 182 332 182 332 182 294 c 0,4,5
 182 224 182 224 236 182 c 128,-1,6
 290 140 290 140 370 140 c 0,7,8
 446 140 446 140 489 180 c 128,-1,9
 532 220 532 220 532 270 c 2,10,-1
 532 358 l 1,0,-1
532 692 m 1,11,-1
 392 692 l 1,12,-1
 392 512 l 1,13,-1
 532 512 l 1,14,-1
 532 692 l 1,11,-1
842 1154 m 0,15,16
 842 1190 842 1190 821 1219 c 128,-1,17
 800 1248 800 1248 764 1248 c 0,18,19
 726 1248 726 1248 707 1216 c 128,-1,20
 688 1184 688 1184 688 1146 c 0,21,22
 688 1112 688 1112 709 1082 c 128,-1,23
 730 1052 730 1052 764 1052 c 256,24,25
 798 1052 798 1052 820 1080 c 128,-1,26
 842 1108 842 1108 842 1154 c 0,15,16
1036 194 m 0,27,28
 1036 -20 1036 -20 888 -148 c 0,29,30
 768 -252 768 -252 628 -252 c 2,31,-1
 244 -252 l 2,32,33
 216 -254 216 -254 204 -258 c 0,34,35
 166 -276 166 -276 166 -334 c 0,36,37
 166 -370 166 -370 180 -392 c 0,38,39
 184 -398 184 -398 194 -406 c 2,40,-1
 212 -420 l 1,41,-1
 126 -524 l 1,42,-1
 96 -506 l 2,43,44
 16 -458 16 -458 16 -318 c 0,45,46
 16 -186 16 -186 120 -130 c 0,47,48
 178 -98 178 -98 250 -98 c 2,49,-1
 624 -98 l 2,50,51
 748 -98 748 -98 816 -10 c 0,52,53
 876 66 876 66 876 186 c 0,54,55
 876 252 876 252 844 305 c 128,-1,56
 812 358 812 358 754 358 c 2,57,-1
 686 358 l 1,58,-1
 686 276 l 1,59,60
 674 184 674 184 650 138 c 0,61,62
 574 0 574 0 372 0 c 0,63,64
 236 0 236 0 134 82 c 128,-1,65
 32 164 32 164 32 296 c 0,66,67
 32 406 32 406 122 466 c 0,68,69
 172 500 172 500 238 510 c 1,70,-1
 238 844 l 1,71,-1
 446 844 l 1,72,73
 418 874 418 874 398 924 c 0,74,75
 372 990 372 990 372 1078 c 0,76,77
 372 1206 372 1206 464 1300 c 128,-1,78
 556 1394 556 1394 688 1394 c 0,79,80
 832 1394 832 1394 910 1322 c 0,81,82
 982 1256 982 1256 982 1144 c 0,83,84
 982 1046 982 1046 923 985 c 128,-1,85
 864 924 864 924 764 924 c 0,86,87
 684 924 684 924 626 980 c 0,88,89
 562 1042 562 1042 562 1144 c 0,90,91
 562 1160 562 1160 567 1181 c 128,-1,92
 572 1202 572 1202 584 1232 c 1,93,94
 554 1204 554 1204 536 1172 c 0,95,96
 510 1126 510 1126 510 1074 c 0,97,98
 510 982 510 982 552 918 c 0,99,100
 580 876 580 876 628 844 c 1,101,-1
 916 844 l 1,102,-1
 916 692 l 1,103,-1
 686 692 l 1,104,-1
 686 512 l 1,105,-1
 752 512 l 2,106,107
 888 512 888 512 970 398 c 0,108,109
 1036 306 1036 306 1036 194 c 0,27,28
EndSplineSet
Ligature2: "'abvs' Above Base Substitutions lookup 6 subtable" tm_ta tm_iikaar
EndChar

StartChar: tm_n_iikaar
Encoding: 65573 -1 150
Width: 1160
GlyphClass: 2
Flags: W
LayerCount: 2
Fore
SplineSet
1036 230 m 0,0,1
 1036 10 1036 10 918 -121 c 128,-1,2
 800 -252 800 -252 628 -252 c 2,3,-1
 252 -252 l 2,4,5
 222 -252 222 -252 208 -256 c 0,6,7
 164 -272 164 -272 164 -334 c 0,8,9
 164 -370 164 -370 178 -392 c 0,10,11
 182 -398 182 -398 192 -406 c 2,12,-1
 210 -420 l 1,13,-1
 122 -524 l 1,14,-1
 92 -506 l 2,15,16
 14 -458 14 -458 14 -318 c 0,17,18
 14 -218 14 -218 81 -158 c 128,-1,19
 148 -98 148 -98 246 -98 c 2,20,-1
 662 -98 l 2,21,22
 764 -98 764 -98 824 6 c 0,23,24
 876 96 876 96 876 218 c 0,25,26
 876 296 876 296 848 356 c 0,27,28
 812 432 812 432 746 432 c 0,29,30
 698 432 698 432 666 406 c 0,31,32
 646 390 646 390 636 370 c 1,33,-1
 636 0 l 1,34,-1
 482 0 l 1,35,-1
 482 692 l 1,36,-1
 300 692 l 1,37,-1
 300 0 l 1,38,-1
 148 0 l 1,39,-1
 148 844 l 1,40,-1
 428 844 l 1,41,42
 376 900 376 900 351 957 c 128,-1,43
 326 1014 326 1014 326 1072 c 0,44,45
 326 1210 326 1210 432 1302 c 128,-1,46
 538 1394 538 1394 678 1394 c 0,47,48
 816 1394 816 1394 892 1324 c 128,-1,49
 968 1254 968 1254 968 1144 c 0,50,51
 968 1048 968 1048 911 985 c 128,-1,52
 854 922 854 922 754 922 c 0,53,54
 672 922 672 922 614 978 c 0,55,56
 548 1042 548 1042 548 1144 c 0,57,58
 548 1172 548 1172 559 1199 c 128,-1,59
 570 1226 570 1226 584 1248 c 1,60,61
 540 1228 540 1228 512 1196 c 0,62,63
 468 1146 468 1146 468 1074 c 0,64,65
 468 982 468 982 520 918 c 0,66,67
 544 888 544 888 610 844 c 1,68,-1
 908 844 l 1,69,-1
 908 692 l 1,70,-1
 636 692 l 1,71,-1
 636 548 l 1,72,73
 656 556 656 556 685 564 c 128,-1,74
 714 572 714 572 746 572 c 0,75,76
 876 572 876 572 956 472 c 128,-1,77
 1036 372 1036 372 1036 230 c 0,0,1
828 1154 m 0,78,79
 828 1190 828 1190 807 1219 c 128,-1,80
 786 1248 786 1248 754 1248 c 0,81,82
 718 1248 718 1248 698 1217 c 128,-1,83
 678 1186 678 1186 678 1146 c 0,84,85
 678 1114 678 1114 698 1083 c 128,-1,86
 718 1052 718 1052 754 1052 c 0,87,88
 786 1052 786 1052 807 1079 c 128,-1,89
 828 1106 828 1106 828 1154 c 0,78,79
EndSplineSet
Ligature2: "'abvs' Above Base Substitutions lookup 6 subtable" tm_na tm_iikaar
EndChar

StartChar: tm_nnn_iikaar
Encoding: 65574 -1 151
Width: 1710
GlyphClass: 2
Flags: W
LayerCount: 2
Fore
SplineSet
1752 1144 m 0,0,1
 1752 1048 1752 1048 1697 989 c 128,-1,2
 1642 930 1642 930 1544 930 c 0,3,4
 1460 930 1460 930 1404 982 c 0,5,6
 1340 1040 1340 1040 1340 1144 c 0,7,8
 1340 1166 1340 1166 1345 1185 c 128,-1,9
 1350 1204 1350 1204 1364 1234 c 1,10,11
 1332 1204 1332 1204 1314 1174 c 0,12,13
 1286 1126 1286 1126 1286 1074 c 0,14,15
 1286 984 1286 984 1332 920 c 0,16,17
 1360 882 1360 882 1416 844 c 1,18,-1
 1586 844 l 1,19,-1
 1586 692 l 1,20,-1
 1430 692 l 1,21,-1
 1430 0 l 1,22,-1
 1276 0 l 1,23,-1
 1276 692 l 1,24,-1
 1182 692 l 2,25,26
 1158 692 1158 692 1135 692 c 128,-1,27
 1112 692 1112 692 1090 686 c 0,28,29
 1084 686 1084 686 1074 680 c 0,30,31
 1050 666 1050 666 1044 664 c 1,32,33
 1094 596 1094 596 1126 503 c 128,-1,34
 1158 410 1158 410 1158 326 c 0,35,36
 1158 148 1158 148 1110 66 c 128,-1,37
 1062 -16 1062 -16 944 -16 c 0,38,39
 832 -16 832 -16 774 94 c 0,40,41
 724 188 724 188 724 330 c 0,42,43
 724 420 724 420 790 566 c 0,44,45
 826 640 826 640 832 654 c 1,46,47
 790 676 790 676 716 691 c 128,-1,48
 642 706 642 706 568 706 c 0,49,50
 384 706 384 706 270 600 c 0,51,52
 164 502 164 502 164 364 c 0,53,54
 164 324 164 324 167 297 c 128,-1,55
 170 270 170 270 180 236 c 1,56,-1
 180 266 l 2,57,58
 180 380 180 380 266 444 c 0,59,60
 334 494 334 494 406 494 c 0,61,62
 516 494 516 494 585 421 c 128,-1,63
 654 348 654 348 654 244 c 0,64,65
 654 132 654 132 594 60 c 0,66,67
 528 -20 528 -20 402 -20 c 0,68,69
 248 -20 248 -20 137 93 c 128,-1,70
 26 206 26 206 26 376 c 0,71,72
 26 572 26 572 179 710 c 128,-1,73
 332 848 332 848 564 848 c 0,74,75
 708 848 708 848 820 810 c 0,76,77
 872 792 872 792 928 758 c 1,78,79
 940 768 940 768 962 784 c 0,80,81
 994 806 994 806 1010 814 c 0,82,83
 1050 832 1050 832 1090 837 c 128,-1,84
 1130 842 1130 842 1184 842 c 2,85,-1
 1236 842 l 1,86,87
 1204 878 1204 878 1184 922 c 0,88,89
 1150 994 1150 994 1150 1078 c 0,90,91
 1150 1206 1150 1206 1242 1300 c 128,-1,92
 1334 1394 1334 1394 1466 1394 c 0,93,94
 1604 1394 1604 1394 1678 1324 c 128,-1,95
 1752 1254 1752 1254 1752 1144 c 0,0,1
1618 1154 m 0,96,97
 1618 1192 1618 1192 1599 1220 c 128,-1,98
 1580 1248 1580 1248 1544 1248 c 256,99,100
 1508 1248 1508 1248 1487 1215 c 128,-1,101
 1466 1182 1466 1182 1466 1146 c 0,102,103
 1466 1112 1466 1112 1487 1082 c 128,-1,104
 1508 1052 1508 1052 1544 1052 c 0,105,106
 1576 1052 1576 1052 1597 1079 c 128,-1,107
 1618 1106 1618 1106 1618 1154 c 0,96,97
1012 330 m 0,108,109
 1012 378 1012 378 996 432 c 128,-1,110
 980 486 980 486 944 554 c 1,111,112
 920 506 920 506 902 458 c 0,113,114
 872 378 872 378 872 332 c 0,115,116
 872 240 872 240 887 180 c 128,-1,117
 902 120 902 120 944 120 c 0,118,119
 994 120 994 120 1006 226 c 0,120,121
 1012 278 1012 278 1012 330 c 0,108,109
510 234 m 0,122,123
 510 286 510 286 482 324 c 128,-1,124
 454 362 454 362 408 362 c 0,125,126
 364 362 364 362 335 327 c 128,-1,127
 306 292 306 292 306 242 c 0,128,129
 306 190 306 190 333 151 c 128,-1,130
 360 112 360 112 404 112 c 0,131,132
 450 112 450 112 480 148 c 128,-1,133
 510 184 510 184 510 234 c 0,122,123
EndSplineSet
Ligature2: "'abvs' Above Base Substitutions lookup 6 subtable" tm_nnna tm_iikaar
EndChar

